<?xml version="1.0" encoding="UTF-8" standalone="no"?>
<svg width="140px" height="140px" viewBox="0 0 140 140" version="1.1" xmlns="http://www.w3.org/2000/svg" xmlns:xlink="http://www.w3.org/1999/xlink">
    <!-- Generator: Sketch 48.2 (47327) - http://www.bohemiancoding.com/sketch -->
    <title>uxb_b2</title>
    <desc>Created with Sketch.</desc>
    <defs></defs>
    <g id="artwork-icons" stroke="none" stroke-width="1" fill="none" fill-rule="evenodd">
        <g id="uxb_b2">
            <g id="background-grey"></g>
            <path d="M94.6219324,62.3542359 C92.6742301,63.4903956 90.036756,64.6265383 86.7094312,65.762698 C99.9375763,68.4407887 106.55155,75.906869 106.55155,88.161163 C106.55155,95.9519723 103.873499,101.876145 98.5173176,105.933858 C94.0538331,109.342337 87.5210128,111.046551 78.9186608,111.046551 C75.9971072,111.046551 72.6292558,110.965398 68.8150054,110.80309 L60.415581,110.437897 C56.7636391,110.275589 54.2884712,110.194436 52.9900029,110.194436 L49.5815409,110.194436 C48.2019184,110.194436 46.0919391,110.356742 43.2515399,110.681359 C40.4111406,111.005976 38.3417379,111.168282 37.0432697,111.168282 L36.5563465,111.168282 C34.852107,111.168282 34,110.681364 34,109.707512 C34,108.490198 34.8926835,107.881551 36.6780773,107.881551 C36.7592316,107.881551 37.7330682,107.962704 39.5996162,108.125012 C41.4661643,108.287321 42.7646131,108.368474 43.4950015,108.368474 C45.9296294,108.368474 47.5526903,107.556943 48.364233,105.933858 C48.9323128,104.878853 49.256925,102.931179 49.3380793,100.09078 L49.5815409,90.9609711 L49.3380793,40.0775017 C49.256925,37.2371025 48.9728894,35.2894293 48.4859638,34.2344239 C47.5932669,32.6113386 45.9296294,31.7998081 43.4950015,31.7998081 C42.8457673,31.7998081 41.5473186,31.8809612 39.5996162,32.0432697 C38.6257651,32.124424 37.6519285,32.1650005 36.6780773,32.1650005 C34.8926835,32.1650005 34,31.6375057 34,30.5825002 C34,29.5274948 34.852107,29 36.5563465,29 L37.0432697,29 L39.721347,29.2434616 C40.8575067,29.2434616 42.5008559,29.3651911 44.6514439,29.6086539 C46.802032,29.8521167 48.4453812,29.9738463 49.5815409,29.9738463 L52.9900029,29.9738463 C54.2073169,29.9738463 57.5751683,29.8115402 63.0936583,29.4869232 C68.6121483,29.1623061 73.3596016,29 77.3361605,29 C85.451587,29 91.497489,30.2984488 95.4740479,32.8953852 C100.505612,36.2227101 103.021357,40.9701633 103.021357,47.1378874 C103.021357,54.0359999 100.221577,59.1080653 94.6219324,62.3542359 Z M52.9900029,59.432697 C52.9900029,62.3542505 53.7609569,64.0584645 55.3028879,64.5453901 C56.1144305,64.7888529 57.4128793,64.9105825 59.1982731,64.9105825 L70.3975056,64.9105825 C75.9971498,64.9105825 79.8113431,64.7888529 81.8401997,64.5453901 C86.0602214,63.9773102 89.6309555,62.6788615 92.552509,60.6500049 C97.0159936,57.6472971 99.2477024,53.3461856 99.2477024,47.7465413 C99.2477024,42.0657428 96.894264,37.7646313 92.1873166,34.8430778 C88.9411461,32.8142212 83.8690806,31.7998081 76.9709682,31.7998081 C73.3190263,31.7998081 69.8294452,31.8809612 66.5021204,32.0432697 L58.9548115,32.4084621 C56.1955665,32.5707706 54.5116408,32.9968241 53.9029838,33.6866353 C53.2943268,34.3764466 52.9900029,36.344408 52.9900029,39.5905786 L52.9900029,59.432697 Z M53.1117337,101.795011 C53.1117337,104.391948 53.7203816,106.015009 54.9376955,106.664243 C55.7492382,107.151168 57.7374878,107.47578 60.9025041,107.638089 L68.6932746,108.125012 C71.290211,108.287321 73.5624964,108.368474 75.5101987,108.368474 C80.3794546,108.368474 83.9096121,108.206168 86.1007773,107.881551 C89.9961819,107.232316 93.2017273,105.893291 95.7175095,103.864435 C100.424457,99.9690299 102.777895,94.5723523 102.777895,87.6742398 C102.777895,76.393797 97.0566054,69.8609768 85.6138541,68.0755829 C81.9619122,67.5075031 77.8231068,67.2234674 73.1973137,67.2234674 L70.8844288,67.2234674 C69.6671148,67.3046217 68.8555843,67.3451982 68.449813,67.3451982 L60.6590426,67.466929 C58.7924945,67.466929 57.5751988,67.5075055 57.0071189,67.5886598 C55.3028794,67.7509683 54.2478898,68.0755805 53.8421184,68.5625061 C53.4363471,69.0494317 53.1523115,69.9015387 52.9900029,71.1188526 L53.1117337,101.795011 Z" id="B" fill="#FFFFFF"></path>
        </g>
    </g>
</svg>