<?xml version="1.0" encoding="UTF-8" standalone="no"?>
<svg width="140px" height="140px" viewBox="0 0 140 140" version="1.1" xmlns="http://www.w3.org/2000/svg" xmlns:xlink="http://www.w3.org/1999/xlink">
    <!-- Generator: Sketch 48.2 (47327) - http://www.bohemiancoding.com/sketch -->
    <title>uxb_bitcoin</title>
    <desc>Created with Sketch.</desc>
    <defs></defs>
    <g id="artwork-icons" stroke="none" stroke-width="1" fill="none" fill-rule="evenodd">
        <g id="uxb_bitcoin">
            <g id="background-grey"></g>
            <path d="M99.9139833,50.915355 C98.9207,40.2813812 89.7474368,36.7172471 78.1786081,35.7239638 L78.1786081,21 L69.1806303,21 L69.1806303,35.3149648 C66.8434931,35.3149648 64.4479276,35.3733932 62.0523621,35.4318217 L62.0523621,21 L53.0543842,21 L53.0543842,35.7239638 C51.1262461,35.7823922 49.198108,35.7823922 47.3868267,35.7823922 L35,35.7239638 L35,45.306226 C41.6024123,45.1893691 41.4855555,45.306226 41.4855555,45.306226 C45.1665464,45.306226 46.335115,47.4096494 46.6856856,49.279359 L46.6856856,66.0483178 C46.9193993,66.0483178 47.2699698,66.0483178 47.6205404,66.1067463 L46.6856856,66.1067463 L46.6856856,89.5949742 C46.5104003,90.7635428 45.8092591,92.574824 43.2968367,92.574824 C43.2968367,92.574824 43.4136936,92.6916809 36.8112813,92.574824 L35,103.267226 L46.6856856,103.267226 C48.8475374,103.267226 50.9509608,103.325655 53.0543842,103.325655 L53.0543842,118.224904 L62.0523621,118.224904 L62.0523621,103.50094 C64.506356,103.559368 66.9019216,103.559368 69.1806303,103.559368 L69.1806303,118.224904 L78.1786081,118.224904 L78.1786081,103.325655 C93.2531425,102.507657 103.77026,98.709809 105.114113,84.511701 C106.165825,73.1181576 100.79041,68.0348844 92.2598592,65.9898894 C97.4015609,63.3606101 100.673553,58.6863359 99.9139833,50.915355 Z M87.3518713,82.7588482 C87.3518713,93.9186779 68.3042038,92.6332525 62.2276473,92.6332525 L62.2276473,72.8844439 C68.3042038,72.8844439 87.3518713,71.1900195 87.3518713,82.7588482 Z M83.2034529,54.9469165 C83.2034529,65.0550346 67.3109206,63.886466 62.2276473,63.886466 L62.2276473,45.9489387 C67.3109206,45.9489387 83.2034529,44.3713711 83.2034529,54.9469165 Z" id="-copy" fill="#FFFFFF"></path>
        </g>
    </g>
</svg>