<?xml version="1.0" encoding="UTF-8" standalone="no"?>
<svg width="140px" height="140px" viewBox="0 0 140 140" version="1.1" xmlns="http://www.w3.org/2000/svg" xmlns:xlink="http://www.w3.org/1999/xlink">
    <!-- Generator: Sketch 48.2 (47327) - http://www.bohemiancoding.com/sketch -->
    <title>uxb_bell</title>
    <desc>Created with Sketch.</desc>
    <defs></defs>
    <g id="artwork-icons" stroke="none" stroke-width="1" fill="none" fill-rule="evenodd">
        <g id="uxb_bell">
            <g id="background-grey"></g>
            <path d="M71,104.333333 C71,104.708333 70.7083333,105 70.3333333,105 C66.2916667,105 63,101.708333 63,97.6666667 C63,97.2916667 63.2916667,97 63.6666667,97 C64.0416667,97 64.3333333,97.2916667 64.3333333,97.6666667 C64.3333333,100.958333 67.0416667,103.666667 70.3333333,103.666667 C70.7083333,103.666667 71,103.958333 71,104.333333 Z M107,92.2857143 C100.507212,86.8448661 92.9615385,77.0948661 92.9615385,56.0714286 C92.9615385,47.7142857 85.9861779,38.5736607 74.3605769,36.8761161 C74.5799279,36.3537946 74.7115385,35.7879464 74.7115385,35.1785714 C74.7115385,32.8716518 72.8251202,31 70.5,31 C68.1748798,31 66.2884615,32.8716518 66.2884615,35.1785714 C66.2884615,35.7879464 66.4200721,36.3537946 66.6394231,36.8761161 C55.0138221,38.5736607 48.0384615,47.7142857 48.0384615,56.0714286 C48.0384615,77.0948661 40.4927885,86.8448661 34,92.2857143 C34,95.3325893 36.5444712,97.8571429 39.6153846,97.8571429 L59.2692308,97.8571429 C59.2692308,103.99442 64.3143029,109 70.5,109 C76.6856971,109 81.7307692,103.99442 81.7307692,97.8571429 L101.384615,97.8571429 C104.455529,97.8571429 107,95.3325893 107,92.2857143 Z" id="" fill="#FFFFFF"></path>
        </g>
    </g>
</svg>