<?xml version="1.0" encoding="UTF-8" standalone="no"?>
<svg width="140px" height="140px" viewBox="0 0 140 140" version="1.1" xmlns="http://www.w3.org/2000/svg" xmlns:xlink="http://www.w3.org/1999/xlink">
    <!-- Generator: Sketch 48.2 (47327) - http://www.bohemiancoding.com/sketch -->
    <title>uxb_back</title>
    <desc>Created with Sketch.</desc>
    <defs></defs>
    <g id="artwork-icons" stroke="none" stroke-width="1" fill="none" fill-rule="evenodd">
        <g id="uxb_back">
            <g id="background-grey"></g>
            <path d="M118.733414,66.0722766 C118.733414,61.8807874 115.959635,58.1824145 111.521587,58.1824145 L62.1273456,58.1824145 L80.187733,40.122027 C81.6670822,38.6426779 82.5300358,36.6085728 82.5300358,34.5128282 C82.5300358,32.4170836 81.6670822,30.3829785 80.187733,28.9036293 L75.564767,24.3423028 C74.0854178,22.8629537 72.1129523,22 70.0172077,22 C67.921463,22 65.887358,22.8629537 64.4080088,24.3423028 L24.2806633,64.4080088 C22.8629537,65.887358 22,67.921463 22,70.0172077 C22,72.1129523 22.8629537,74.1470574 24.2806633,75.564767 L64.4080088,115.753752 C65.887358,117.171462 67.921463,118.034415 70.0172077,118.034415 C72.1129523,118.034415 74.1470574,117.171462 75.564767,115.753752 L80.187733,111.069146 C81.6670822,109.651437 82.5300358,107.617332 82.5300358,105.521587 C82.5300358,103.425843 81.6670822,101.391737 80.187733,99.9740279 L62.1273456,81.8520008 L111.521587,81.8520008 C115.959635,81.8520008 118.733414,78.153628 118.733414,73.9621387 L118.733414,66.0722766 Z" id="ï " fill="#FFFFFF"></path>
        </g>
    </g>
</svg>