<?xml version="1.0" encoding="UTF-8" standalone="no"?>
<svg width="140px" height="140px" viewBox="0 0 140 140" version="1.1" xmlns="http://www.w3.org/2000/svg" xmlns:xlink="http://www.w3.org/1999/xlink">
    <!-- Generator: Sketch 48.2 (47327) - http://www.bohemiancoding.com/sketch -->
    <title>uxb_bullseye</title>
    <desc>Created with Sketch.</desc>
    <defs></defs>
    <g id="artwork-icons" stroke="none" stroke-width="1" fill="none" fill-rule="evenodd">
        <g id="uxb_bullseye">
            <g id="background-grey"></g>
            <path d="M85.6666667,70 C85.6666667,61.3710938 78.6289062,54.3333333 70,54.3333333 C61.3710938,54.3333333 54.3333333,61.3710938 54.3333333,70 C54.3333333,78.6289062 61.3710938,85.6666667 70,85.6666667 C78.6289062,85.6666667 85.6666667,78.6289062 85.6666667,70 Z M70,36.7083333 C88.359375,36.7083333 103.291667,51.640625 103.291667,70 C103.291667,88.359375 88.359375,103.291667 70,103.291667 C51.640625,103.291667 36.7083333,88.359375 36.7083333,70 C36.7083333,51.640625 51.640625,36.7083333 70,36.7083333 Z M117,70 C117,44.0520833 95.9479167,23 70,23 C44.0520833,23 23,44.0520833 23,70 C23,95.9479167 44.0520833,117 70,117 C95.9479167,117 117,95.9479167 117,70 Z" id="" fill="#FFFFFF"></path>
        </g>
    </g>
</svg>