<?xml version="1.0" encoding="UTF-8" standalone="no"?>
<svg width="140px" height="140px" viewBox="0 0 140 140" version="1.1" xmlns="http://www.w3.org/2000/svg" xmlns:xlink="http://www.w3.org/1999/xlink">
    <!-- Generator: Sketch 48.2 (47327) - http://www.bohemiancoding.com/sketch -->
    <title>uxb_bubble</title>
    <desc>Created with Sketch.</desc>
    <defs></defs>
    <g id="artwork-icons" stroke="none" stroke-width="1" fill="none" fill-rule="evenodd">
        <g id="uxb_bubble">
            <g id="background-grey"></g>
            <path d="M117.499702,63.1070365 C117.499702,81.972491 96.1295121,97.2140729 69.749851,97.2140729 C67.1385311,97.2140729 64.5272111,97.0541962 62.0224756,96.787735 C55.0411916,102.969635 46.7276014,107.339599 37.5080431,109.684458 C35.5895223,110.217381 33.5111248,110.590426 31.4327273,110.856888 C30.2602979,110.963472 29.1411608,110.110796 28.8746995,108.831782 L28.8746995,108.77849 C28.6082383,107.446184 29.5142065,106.6468 30.3135901,105.68754 C33.6710015,101.90379 37.5080431,98.7062558 40.0127786,89.8064509 C29.0345763,83.5712583 22,73.9253621 22,63.1070365 C22,44.2948742 43.37019,29 69.749851,29 C96.1295121,29 117.499702,44.2415819 117.499702,63.1070365 Z M72.25,51 C72.3611117,50.4444417 72.4166667,49.9722242 72.4166667,49.5833333 C72.4166667,47.1944325 71.5000092,46 69.6666667,46 C67.8333242,46 66.9166667,47.1944325 66.9166667,49.5833333 C66.9166667,50.02778 66.9722217,50.4999975 67.0833333,51 L68.4166667,57.3333333 C68.5277783,57.8888917 68.5833333,58.3055542 68.5833333,58.5833333 C68.5833333,58.9166683 68.4444458,59.0833333 68.1666667,59.0833333 C67.9999992,59.0833333 67.5833367,58.7777808 66.9166667,58.1666667 L62.0833333,53.6666667 C61.0833283,52.7222175 59.9722283,52.25 58.75,52.25 C56.9166575,52.25 56,53.0555475 56,54.6666667 C56,56.22223 57.0833225,57.4166625 59.25,58.25 L65.4166667,60.5833333 C66.3611158,60.9166683 66.8333333,61.2499983 66.8333333,61.5833333 C66.8333333,61.8055567 66.3611158,62.1111092 65.4166667,62.5 L59.25,64.8333333 C57.0833225,65.6666708 56,66.8888808 56,68.5 C56,70.1111192 56.88888,70.9166667 58.6666667,70.9166667 C59.888895,70.9166667 61.0277725,70.4166717 62.0833333,69.4166667 L66.9166667,64.9166667 C67.5833367,64.3055525 67.9999992,64 68.1666667,64 C68.4444458,64 68.5833333,64.166665 68.5833333,64.5 C68.5833333,64.7777792 68.5277783,65.1944417 68.4166667,65.75 L67.0833333,72.0833333 C66.9722217,72.5833358 66.9166667,73.0555533 66.9166667,73.5 C66.9166667,75.833345 67.8333242,77 69.6666667,77 C71.5000092,77 72.4166667,75.833345 72.4166667,73.5 C72.4166667,73.1111092 72.3611117,72.6388917 72.25,72.0833333 L71,65.75 L70.8333333,64.75 L70.8333333,64.4166667 C70.8333333,64.1388875 70.9722208,64 71.25,64 C71.4166675,64 71.83333,64.3055525 72.5,64.9166667 L77.3333333,69.4166667 C78.3888942,70.4166717 79.4999942,70.9166667 80.6666667,70.9166667 C82.5000092,70.9166667 83.4166667,70.0833417 83.4166667,68.4166667 C83.4166667,66.8611033 82.3333442,65.6666708 80.1666667,64.8333333 L73.9166667,62.5 C72.9722175,62.1111092 72.5,61.8055567 72.5,61.5833333 C72.5,61.3055542 72.9722175,60.9722242 73.9166667,60.5833333 L80.1666667,58.25 C82.3333442,57.4166625 83.4166667,56.1944525 83.4166667,54.5833333 C83.4166667,52.9722142 82.5000092,52.1666667 80.6666667,52.1666667 C79.4999942,52.1666667 78.3888942,52.6666617 77.3333333,53.6666667 L72.5,58.1666667 C71.83333,58.7777808 71.4166675,59.0833333 71.25,59.0833333 C70.9722208,59.0833333 70.8333333,58.9444458 70.8333333,58.6666667 L72.25,51 Z" id="Combined-Shape" fill="#FFFFFF"></path>
        </g>
    </g>
</svg>