<?xml version="1.0" encoding="UTF-8" standalone="no"?>
<svg width="140px" height="140px" viewBox="0 0 140 140" version="1.1" xmlns="http://www.w3.org/2000/svg" xmlns:xlink="http://www.w3.org/1999/xlink">
    <!-- Generator: Sketch 48.2 (47327) - http://www.bohemiancoding.com/sketch -->
    <title>uxb_binoculars</title>
    <desc>Created with Sketch.</desc>
    <defs></defs>
    <g id="artwork-icons" stroke="none" stroke-width="1" fill="none" fill-rule="evenodd">
        <g id="uxb_binoculars">
            <g id="background-grey"></g>
            <path d="M58.2857143,104 L29,104 L29,84.6428571 L40.3939732,44.6953125 C40.5770089,44.0546875 41.171875,43.6428571 41.8125,43.6428571 L61.2142857,43.6428571 L61.2142857,78.7857143 C61.2142857,80.3872768 59.8872768,81.7142857 58.2857143,81.7142857 L58.2857143,104 Z M58.2857143,107 L58.2857143,108.071429 C58.2857143,109.672991 56.9587054,111 55.3571429,111 L31.9285714,111 C30.3270089,111 29,109.672991 29,108.071429 L29,107 L58.2857143,107 Z" id="Combined-Shape" fill="#FFFFFF"></path>
            <polygon id="Path" fill="#FFFFFF" points="75.8571429 43.6428571 75.8571429 75.8571429 64.1428571 75.8571429 64.1428571 43.6428571"></polygon>
            <path d="M111,104 L81.7142857,104 L81.7142857,81.7142857 C80.1127232,81.7142857 78.7857143,80.3872768 78.7857143,78.7857143 L78.7857143,43.6428571 L98.1875,43.6428571 C98.828125,43.6428571 99.4229911,44.0546875 99.6060268,44.6953125 L111,84.6428571 L111,104 Z M111,107 L111,108.071429 C111,109.672991 109.672991,111 108.071429,111 L84.6428571,111 C83.0412946,111 81.7142857,109.672991 81.7142857,108.071429 L81.7142857,107 L111,107 Z" id="Combined-Shape" fill="#FFFFFF"></path>
            <path d="M62.6785714,30.4642857 L62.6785714,40.7142857 L46.5714286,40.7142857 L46.5714286,30.4642857 C46.5714286,29.640625 47.2120536,29 48.0357143,29 L61.2142857,29 C62.0379464,29 62.6785714,29.640625 62.6785714,30.4642857 Z" id="Path" fill="#FFFFFF"></path>
            <path d="M93.4285714,30.4642857 L93.4285714,40.7142857 L77.3214286,40.7142857 L77.3214286,30.4642857 C77.3214286,29.640625 77.9620536,29 78.7857143,29 L91.9642857,29 C92.7879464,29 93.4285714,29.640625 93.4285714,30.4642857 Z" id="Path" fill="#FFFFFF"></path>
        </g>
    </g>
</svg>