<?xml version="1.0" encoding="UTF-8" standalone="no"?>
<svg width="140px" height="140px" viewBox="0 0 140 140" version="1.1" xmlns="http://www.w3.org/2000/svg" xmlns:xlink="http://www.w3.org/1999/xlink">
    <!-- Generator: Sketch 48.2 (47327) - http://www.bohemiancoding.com/sketch -->
    <title>uxb_bug</title>
    <desc>Created with Sketch.</desc>
    <defs></defs>
    <g id="artwork-icons" stroke="none" stroke-width="1" fill="none" fill-rule="evenodd">
        <g id="uxb_bug">
            <g id="background-grey"></g>
            <path d="M67,49.5701026 L67,72 L74,72 L74,49.5701026 L95.5511184,49.5701026 L107.827375,37.3051321 C109.311446,35.8224255 111.68596,35.8224255 113.170031,37.3051321 C114.654102,38.7878387 114.654102,41.1601693 113.170031,42.6428759 L100.893774,54.9078465 L100.893774,72.3444763 L117.200778,72.3444763 C119.278478,72.3444763 121,74.064416 121,76.1402053 C121,78.2159946 119.278478,79.9359342 117.200778,79.9359342 L100.893774,79.9359342 C100.893774,87.3494673 99.2909773,92.9244442 96.9164637,97.135331 L111.27042,111.535399 C112.754491,113.018106 112.754491,115.390436 111.27042,116.873143 C110.558066,117.64415 109.548897,118 108.599092,118 C107.649287,118 106.640118,117.64415 105.927764,116.873143 L92.1674366,103.184774 C92.1674366,103.184774 84.3909045,110.301766 74.2992218,110.301766 L74.2992218,79.9359342 L66.7007782,79.9359342 L66.7007782,110.301766 C55.9561042,110.301766 48.1202094,102.473075 48.1202094,102.473075 L35.2503243,116.754526 C34.4786074,117.584842 33.4694391,118 32.400908,118 C31.5104654,118 30.6200228,117.703459 29.8483058,117.051068 C28.304872,115.627669 28.1861463,113.255339 29.5514916,111.654016 L43.5492707,96.1863988 C41.4715713,92.0941285 40.106226,86.815693 40.106226,79.9359342 L23.7992218,79.9359342 C21.7215224,79.9359342 20,78.2159946 20,76.1402053 C20,74.064416 21.7215224,72.3444763 23.7992218,72.3444763 L40.106226,72.3444763 L40.106226,54.9078465 L27.8299693,42.6428759 C26.3458983,41.1601693 26.3458983,38.7878387 27.8299693,37.3051321 C29.3140403,35.8224255 31.6885539,35.8224255 33.1726249,37.3051321 L45.4488816,49.5701026 L67,49.5701026 Z M64.1329506,35.0139222 C62.4760964,35.0139222 61.1329506,33.6707765 61.1329506,32.0139222 C61.1329506,30.357068 62.4760964,29.0139222 64.1329506,29.0139222 C65.7898049,29.0139222 67.1329506,30.357068 67.1329506,32.0139222 C67.1329506,33.6707765 65.7898049,35.0139222 64.1329506,35.0139222 Z M77.1329506,35.0139222 C75.4760964,35.0139222 74.1329506,33.6707765 74.1329506,32.0139222 C74.1329506,30.357068 75.4760964,29.0139222 77.1329506,29.0139222 C78.7898049,29.0139222 80.1329506,30.357068 80.1329506,32.0139222 C80.1329506,33.6707765 78.7898049,35.0139222 77.1329506,35.0139222 Z M89.4961088,41.9786447 C89.4961088,31.4810819 81.0072227,23 70.5,23 C59.9927773,23 51.5038912,31.4810819 51.5038912,41.9786447 L89.4961088,41.9786447 Z" id="-copy" fill="#FFFFFF"></path>
        </g>
    </g>
</svg>