<?xml version="1.0" encoding="UTF-8" standalone="no"?>
<svg width="140px" height="140px" viewBox="0 0 140 140" version="1.1" xmlns="http://www.w3.org/2000/svg" xmlns:xlink="http://www.w3.org/1999/xlink">
    <!-- Generator: Sketch 48.2 (47327) - http://www.bohemiancoding.com/sketch -->
    <title>uxb_batman</title>
    <desc>Created with Sketch.</desc>
    <defs></defs>
    <g id="artwork-icons" stroke="none" stroke-width="1" fill="none" fill-rule="evenodd">
        <g id="uxb_batman">
            <g id="background-grey"></g>
            <path d="M70.4648824,97.4018895 C70.3378823,97.0037153 70.1834799,96.5770347 70,96.1198067 C67.2414978,89.2456769 62.1606558,80 57.5,80 C53.9400473,80 50.8253921,81.8654379 49.5786642,86.0009767 C49.0100629,85.4251389 48.4067655,84.8761468 47.775119,84.3646496 C42.4100457,80.0200989 36.1566423,78.7436073 33.5418245,81.9726384 C31.4175612,84.5958851 33.8351987,89.9234676 37.6936684,94.1595172 C24.5166959,88.8661678 16,80.4623155 16,71 C16,59.3395465 28.9332351,49.2864481 47.5830112,44.6807804 C47.5390049,44.7691251 47.494985,44.8581668 47.4509527,44.9479104 C42.6298979,54.7738609 45.6542645,60.1432035 50.4554595,61.4296798 C55.2566544,62.7161561 63.0121173,61.7749417 63.7917589,51.2340862 C63.9516408,49.0724619 64.0135856,47.1338303 63.9848299,45.4101108 C64.1775744,44.2632857 64.4468562,43.2651275 64.6769915,43.0348355 C64.9514448,42.7601954 65.9236896,44.1094826 67.5937261,47.0826969 L69.8976398,47.0826969 L72.4277977,47.0826969 C74.0978343,44.1094826 75.0700791,42.7601954 75.3445324,43.0348355 C75.5746677,43.2651275 75.8439495,44.2632857 76.036694,45.4101108 C76.0079383,47.1338303 76.0698831,49.0724619 76.229765,51.2340862 C77.0094066,61.7749417 84.7648695,62.7161561 89.5660644,61.4296798 C94.3672594,60.1432035 97.391626,54.7738609 92.5705712,44.9479104 C92.4818829,44.767152 92.393245,44.5892407 92.3046666,44.4141384 C111.550536,48.8897337 125,59.1091106 125,71 C125,80.4887959 116.435569,88.9131961 103.195594,94.2038845 C107.077614,89.9607342 109.519627,84.6050519 107.38794,81.9726384 C104.773122,78.7436073 98.519719,80.0200989 93.1546457,84.3646496 C92.5229993,84.8761468 91.9197018,85.4251389 91.3511005,86.0009767 C90.1043726,81.8654379 86.9897175,80 83.4297647,80 C78.769109,80 73.688267,89.2456769 70.9297647,96.1198067 C70.7462849,96.5770347 70.5918824,97.0037153 70.4648824,97.4018895 Z" id="Combined-Shape" fill="#FFFFFF"></path>
        </g>
    </g>
</svg>