<?xml version="1.0" encoding="UTF-8" standalone="no"?>
<svg width="140px" height="140px" viewBox="0 0 140 140" version="1.1" xmlns="http://www.w3.org/2000/svg" xmlns:xlink="http://www.w3.org/1999/xlink">
    <!-- Generator: Sketch 48.2 (47327) - http://www.bohemiancoding.com/sketch -->
    <title>uxb_balloon</title>
    <desc>Created with Sketch.</desc>
    <defs></defs>
    <g id="artwork-icons" stroke="none" stroke-width="1" fill="none" fill-rule="evenodd">
        <g id="uxb_balloon">
            <g id="background-grey"></g>
            <path d="M82.1602182,98.8850188 C85.1790633,92.9363364 91.4328825,77.3911894 92.0417724,75.2198886 C92.7345268,72.7495271 94.6467283,62.7895886 93.716378,55.5537231 C92.7860277,48.3178575 90.7931329,42.2377866 89.9300342,39.7346211 C89.0669355,37.2314555 81.4763676,25.8047599 79.4124047,24.0485931 C77.3484417,22.2924263 87.5281798,34.8319223 88.572617,50.4516473 C89.6170542,66.0713722 85.346118,75.4114704 84.4732933,77.4046955 C83.8914101,78.7335123 80.8300651,85.0031407 75.289258,96.2135807 C74.3856784,75.2834266 73.7693497,62.4238992 73.440272,57.6349984 C73.1111944,52.8460977 72.2854247,41.9404469 70.962963,24.9180462 L70.962963,25.0367042 C69.5442233,41.9799996 68.6703147,52.8460977 68.341237,57.6349984 C68.0121593,62.4238992 67.3958306,75.2834266 66.492251,96.2135807 C60.951444,85.0031407 57.8900989,78.7335123 57.3082157,77.4046955 C56.435391,75.4114704 52.1644548,66.0713722 53.208892,50.4516473 C54.2533292,34.8319223 64.4330673,22.2924263 62.3691044,24.0485931 C60.3051415,25.8047599 52.7145735,37.2314555 51.8514748,39.7346211 C50.9883761,42.2377866 48.9954813,48.3178575 48.065131,55.5537231 C47.1347807,62.7895886 49.0469822,72.7495271 49.7397366,75.2198886 C50.391915,77.5455559 57.5201955,95.2142665 60.2129133,100 C48.5817897,90.8146075 33,71.7807417 33,56.8988704 C33,36.520187 49.7893219,20 70.5,20 C91.2106781,20 108,36.520187 108,56.8988704 C108,71.2022557 93.6060521,89.3411178 82.1602182,98.8850188 Z" id="Combined-Shape" fill="#FFFFFF"></path>
            <path d="M62,107 L80,107 L80,116 C80,118.209139 78.209139,120 76,120 L66,120 C63.790861,120 62,118.209139 62,116 L62,107 Z" id="Rectangle" fill="#FFFFFF"></path>
        </g>
    </g>
</svg>