<?xml version="1.0" encoding="UTF-8" standalone="no"?>
<svg width="140px" height="140px" viewBox="0 0 140 140" version="1.1" xmlns="http://www.w3.org/2000/svg" xmlns:xlink="http://www.w3.org/1999/xlink">
    <!-- Generator: Sketch 48.2 (47327) - http://www.bohemiancoding.com/sketch -->
    <title>uxb_bus</title>
    <desc>Created with Sketch.</desc>
    <defs></defs>
    <g id="artwork-icons" stroke="none" stroke-width="1" fill="none" fill-rule="evenodd">
        <g id="uxb_bus">
            <g id="background-grey"></g>
            <path d="M50.5,86.75 C50.5,83.1445313 47.6054687,80.25 44,80.25 C40.3945312,80.25 37.5,83.1445313 37.5,86.75 C37.5,90.3554688 40.3945312,93.25 44,93.25 C47.6054687,93.25 50.5,90.3554688 50.5,86.75 Z M102.5,86.75 C102.5,83.1445313 99.6054687,80.25 96,80.25 C92.3945312,80.25 89.5,83.1445313 89.5,86.75 C89.5,90.3554688 92.3945312,93.25 96,93.25 C99.6054687,93.25 102.5,90.3554688 102.5,86.75 Z M100.164062,66.640625 L96.5078125,47.140625 C96.203125,45.6171875 94.8828125,44.5 93.3085937,44.5 L46.6914062,44.5 C45.1171875,44.5 43.796875,45.6171875 43.4921875,47.140625 L39.8359375,66.640625 C39.4804688,68.671875 41.0039062,70.5 43.0351562,70.5 L96.9648437,70.5 C98.9960937,70.5 100.519531,68.671875 100.164062,66.640625 Z M88.6875,35.5625 C88.6875,34.1914063 87.6210938,33.125 86.25,33.125 L53.75,33.125 C52.4296875,33.125 51.3125,34.1914063 51.3125,35.5625 C51.3125,36.9335938 52.4296875,38 53.75,38 L86.25,38 C87.6210938,38 88.6875,36.9335938 88.6875,35.5625 Z M109,72.3789062 L109,103 L102.5,103 L102.5,109.5 C102.5,113.105469 99.6054688,116 96,116 C92.3945312,116 89.5,113.105469 89.5,109.5 L89.5,103 L50.5,103 L50.5,109.5 C50.5,113.105469 47.6054688,116 44,116 C40.3945312,116 37.5,113.105469 37.5,109.5 L37.5,103 L31,103 L31,72.3789062 C31,68.2148438 31.3554688,65.1171875 32.2695312,61.0546875 L37.5,38 C38.4648438,29.875 52.6835938,25 70,25 C87.3164062,25 101.535156,29.875 102.5,38 L107.832031,61.0546875 C108.746094,65.1171875 109,68.2148438 109,72.3789062 Z" id="" fill="#FFFFFF"></path>
        </g>
    </g>
</svg>