<?xml version="1.0" encoding="UTF-8" standalone="no"?>
<svg width="140px" height="140px" viewBox="0 0 140 140" version="1.1" xmlns="http://www.w3.org/2000/svg" xmlns:xlink="http://www.w3.org/1999/xlink">
    <!-- Generator: Sketch 48.2 (47327) - http://www.bohemiancoding.com/sketch -->
    <title>uxb_b1</title>
    <desc>Created with Sketch.</desc>
    <defs></defs>
    <g id="artwork-icons" stroke="none" stroke-width="1" fill="none" fill-rule="evenodd">
        <g id="uxb_b1">
            <g id="background-grey"></g>
            <path d="M82.4297567,68.4791193 C92.3994807,69.4946972 100.18406,75.3624808 100.18406,86.759522 C100.18406,99.623509 90.8971935,109.102236 68.0897427,109.102236 L39,109.102236 L39,30 L68.2263142,30 C82.9760429,30 95.404055,35.3035736 95.404055,50.1987166 C95.404055,59.7902859 90.0777641,66.4479634 82.4297567,68.0277513 L82.4297567,68.4791193 Z M69.1979591,100.733952 C83.1282584,100.733952 89.4105503,96.5587984 89.4105503,86.8543871 C89.4105503,75.6830299 79.8505409,72.7491381 68.6516729,72.7491381 L49.9413689,72.7491381 L49.9413689,100.733952 L69.1979591,100.733952 Z M84.9036887,50.9750836 C84.9036887,41.4963563 77.8019675,37.7725706 66.4665279,37.7725706 L49.9413689,37.7725706 L49.9413689,65.1931746 L67.0128141,65.1931746 C79.1676831,65.1931746 84.9036887,60.9051789 84.9036887,50.9750836 Z" id="Combined-Shape-Copy-2" fill="#FFFFFF"></path>
        </g>
    </g>
</svg>