<?xml version="1.0" encoding="UTF-8" standalone="no"?>
<svg width="140px" height="140px" viewBox="0 0 140 140" version="1.1" xmlns="http://www.w3.org/2000/svg" xmlns:xlink="http://www.w3.org/1999/xlink">
    <!-- Generator: Sketch 48.2 (47327) - http://www.bohemiancoding.com/sketch -->
    <title>uxb_birthday</title>
    <desc>Created with Sketch.</desc>
    <defs></defs>
    <g id="artwork-icons" stroke="none" stroke-width="1" fill="none" fill-rule="evenodd">
        <g id="uxb_birthday">
            <g id="background-grey"></g>
            <path d="M111,93 C106.515625,93 104.136161,90.9375 102.260045,89.296875 C100.704241,87.890625 99.6517857,87 97.3638393,87 C95.0301339,87 93.9776786,87.890625 92.421875,89.296875 C90.5457589,90.9375 88.1662946,93 83.6819196,93 C79.1975446,93 76.8180804,90.9375 74.9419643,89.296875 C73.3861607,87.890625 72.3337054,87 70,87 C67.6662946,87 66.6595982,87.890625 65.1037946,89.296875 C63.1819196,90.9375 60.8482143,93 56.3638393,93 C51.8337054,93 49.5,90.9375 47.6238839,89.296875 C46.0223214,87.890625 45.015625,87 42.6819196,87 C40.3482143,87 39.2957589,87.890625 37.7399554,89.296875 C35.8638393,90.9375 33.484375,93 29,93 L29,111 L111,111 L111,93 Z M111,79.2307692 C111,74.3894231 107.064732,70.4615385 102.214286,70.4615385 L99.2857143,70.4615385 L99.2857143,50 L87.5714286,50 L87.5714286,70.4615385 L75.8571429,70.4615385 L75.8571429,50 L64.1428571,50 L64.1428571,70.4615385 L52.4285714,70.4615385 L52.4285714,50 L40.7142857,50 L40.7142857,70.4615385 L37.7857143,70.4615385 C32.9352679,70.4615385 29,74.3894231 29,79.2307692 L29,88 C31.3337054,88 32.3861607,87.1322115 33.9419643,85.7620192 C35.8180804,84.1634615 38.1517857,82.1538462 42.6819196,82.1538462 C47.1662946,82.1538462 49.5457589,84.1634615 51.421875,85.7620192 C52.9776786,87.1322115 54.0301339,88 56.3638393,88 C58.6975446,88 59.7042411,87.1322115 61.2600446,85.7620192 C63.1819196,84.1634615 65.515625,82.1538462 70,82.1538462 C74.5301339,82.1538462 76.8638393,84.1634615 78.7399554,85.7620192 C80.2957589,87.1322115 81.3482143,88 83.6819196,88 C86.015625,88 87.0223214,87.1322115 88.6238839,85.7620192 C90.5,84.1634615 92.8337054,82.1538462 97.3638393,82.1538462 C101.848214,82.1538462 104.18192,84.1634615 106.058036,85.7620192 C107.659598,87.1322115 108.666295,88 111,88 L111,79.2307692 Z M51,39.5 C51,34.53125 47.5625,29 45.5,29 C45.5,36.6875 40,35.1875 40,41 C40,44.328125 42.4492188,47 45.5,47 C48.5507812,47 51,44.46875 51,39.5 Z M75,39.5 C75,34.53125 71.5625,29 69.5,29 C69.5,36.6875 64,35.1875 64,41 C64,44.328125 66.4492188,47 69.5,47 C72.5507812,47 75,44.46875 75,39.5 Z M98,39.5 C98,34.53125 94.5625,29 92.5,29 C92.5,36.6875 87,35.1875 87,41 C87,44.328125 89.4492188,47 92.5,47 C95.5507812,47 98,44.46875 98,39.5 Z" id="-copy" fill="#FFFFFF"></path>
        </g>
    </g>
</svg>