<?xml version="1.0" encoding="UTF-8" standalone="no"?>
<svg width="140px" height="140px" viewBox="0 0 140 140" version="1.1" xmlns="http://www.w3.org/2000/svg" xmlns:xlink="http://www.w3.org/1999/xlink">
    <!-- Generator: Sketch 48.2 (47327) - http://www.bohemiancoding.com/sketch -->
    <title>uxb_bomb</title>
    <desc>Created with Sketch.</desc>
    <defs></defs>
    <g id="artwork-icons" stroke="none" stroke-width="1" fill="none" fill-rule="evenodd">
        <g id="uxb_bomb">
            <g id="background-grey"></g>
            <path d="M54.7403188,56.0281188 C55.456101,57.7156446 54.6380642,59.607719 52.9508634,60.323639 C47.2246062,62.6248106 42.6231494,67.2271538 40.3224211,72.9545142 C39.7600208,74.2329428 38.584093,75 37.2547833,75 C36.8457649,75 36.4367465,74.8977257 36.0277281,74.7443143 C34.3405273,74.0795314 33.5736179,72.187457 34.2382727,70.4999311 C37.203656,63.1361821 43.1344224,57.2042731 50.4967532,54.2383186 C52.183954,53.5735357 54.075664,54.3405929 54.7403188,56.0281188 Z M100.728031,38 L88.7261065,50.0513149 L85.3675433,46.6927518 C84.1327774,45.4579859 82.1077614,45.4579859 80.8729955,46.6927518 L77.7119949,49.8537524 C72.7235407,47.0878768 66.9448364,45.4579859 60.7710071,45.4579859 C41.55805,45.4579859 26,61.0160359 26,80.2289929 C26,99.44195 41.55805,115 60.7710071,115 C79.9839641,115 95.5420141,99.44195 95.5420141,80.2289929 C95.5420141,74.0551636 93.9121232,68.2764593 91.1462476,63.2880051 L94.3072482,60.1270045 C95.5420141,58.8922386 95.5420141,56.8672226 94.3072482,55.6324567 L90.9486851,52.2738935 L103,40.2719692 L100.728031,38 Z M101.495961,34.483871 C102.168013,33.8645161 102.168013,32.7806452 101.495961,32.1612903 L96.8432956,27.4645161 C96.1712439,26.8451613 95.1373183,26.8451613 94.4652666,27.4645161 C93.8449111,28.1354839 93.8449111,29.1677419 94.4652666,29.8387097 L99.1696284,34.483871 C99.4798061,34.7935484 99.8933764,35 100.358643,35 C100.772213,35 101.185784,34.7935484 101.495961,34.483871 Z M113.534733,46.5347334 C114.155089,45.8626817 114.155089,44.8287561 113.534733,44.1567044 L108.830372,39.5040388 C108.210016,38.8319871 107.124394,38.8319871 106.504039,39.5040388 C105.831987,40.1243942 105.831987,41.2100162 106.504039,41.8303716 L111.156704,46.5347334 C111.518578,46.8449111 111.932149,47 112.345719,47 C112.759289,47 113.172859,46.8449111 113.534733,46.5347334 Z M115,36.5 C115,35.65625 114.3,35 113.4,35 L108.6,35 C107.7,35 107,35.65625 107,36.5 C107,37.34375 107.7,38 108.6,38 L113.4,38 C114.3,38 115,37.34375 115,36.5 Z M105,27.6 C105,26.7 104.34375,26 103.5,26 C102.65625,26 102,26.7 102,27.6 L102,32.4 C102,33.3 102.65625,34 103.5,34 C104.34375,34 105,33.3 105,32.4 L105,27.6 Z M113.534733,29.8387097 C114.155089,29.1677419 114.155089,28.1354839 113.534733,27.4645161 C112.862682,26.8451613 111.828756,26.8451613 111.156704,27.4645161 L106.504039,32.1612903 C105.831987,32.7806452 105.831987,33.8645161 106.504039,34.483871 C106.814216,34.7935484 107.227787,35 107.693053,35 C108.106624,35 108.520194,34.7935484 108.830372,34.483871 L113.534733,29.8387097 Z" id="" fill="#FFFFFF"></path>
        </g>
    </g>
</svg>