<?xml version="1.0" encoding="UTF-8" standalone="no"?>
<svg width="140px" height="140px" viewBox="0 0 140 140" version="1.1" xmlns="http://www.w3.org/2000/svg" xmlns:xlink="http://www.w3.org/1999/xlink">
    <!-- Generator: Sketch 48.2 (47327) - http://www.bohemiancoding.com/sketch -->
    <title>uxb_bed</title>
    <desc>Created with Sketch.</desc>
    <defs></defs>
    <g id="artwork-icons" stroke="none" stroke-width="1" fill="none" fill-rule="evenodd">
        <g id="uxb_bed">
            <g id="background-grey"></g>
            <path d="M111.25,76 C112.753906,76 114,77.2460938 114,78.75 L114,98 L103,98 L103,87 L37,87 L37,98 L26,98 L26,45.75 C26,44.2460938 27.2460938,43 28.75,43 L34.25,43 C35.7539062,43 37,44.2460938 37,45.75 L37,76 L111.25,76 Z M61,62 C61,68.0585938 56.0585938,73 50,73 C43.9414062,73 39,68.0585938 39,62 C39,55.9414062 43.9414062,51 50,51 C56.0585938,51 61,55.9414062 61,62 Z M114,74 L64,74 L64,56.8571429 C64,55.2946429 65.2586806,54 66.7777778,54 L97.3333333,54 C106.534722,54 114,61.6785714 114,71.1428571 L114,74 Z" id="-copy" fill="#FFFFFF"></path>
        </g>
    </g>
</svg>