<?xml version="1.0" encoding="UTF-8" standalone="no"?>
<svg width="140px" height="140px" viewBox="0 0 140 140" version="1.1" xmlns="http://www.w3.org/2000/svg" xmlns:xlink="http://www.w3.org/1999/xlink">
    <!-- Generator: Sketch 48.2 (47327) - http://www.bohemiancoding.com/sketch -->
    <title>uxb_butterfly</title>
    <desc>Created with Sketch.</desc>
    <defs></defs>
    <g id="artwork-icons" stroke="none" stroke-width="1" fill="none" fill-rule="evenodd">
        <g id="uxb_butterfly">
            <g id="background-grey"></g>
            <path d="M69.7820943,54.0357362 C69.8542383,54.0120136 69.9268901,54 70,54 C70.075229,54 70.1499729,54.0127201 70.2241776,54.0378285 C71.1020505,50.399943 71.8354851,48.2840354 72.6214901,46.8589552 C73.2070402,45.7973134 73.8223801,45.4656444 74.5194088,45.5034011 C74.5551024,45.505328 74.5551024,45.505328 74.5543354,45.5053383 C74.8903295,45.5053383 75.7618715,45.9167912 76.0944529,46.2270324 C76.6114694,46.7093199 76.677725,48.1301804 76.0875076,48.6603217 C75.5659605,49.1287825 74.5673116,49.061876 73.724733,48.7588402 L74.0631633,47.8178487 C74.5793676,48.0035031 75.2707012,48.0498204 75.4192774,47.9163672 C75.5523583,47.7968321 75.5178454,47.0566976 75.4123321,46.9582719 C75.2511556,46.807922 74.610221,46.5053383 74.5543354,46.5053383 C74.4996796,46.504014 74.4996796,46.504014 74.4653201,46.5019372 C74.1469028,46.4846892 73.8950703,46.6204272 73.4971317,47.3419167 C72.7209638,48.7491614 71.9780328,50.9386718 71.0557773,54.8624404 C71.7105772,55.9571072 72.2984433,58.0452297 72.7735267,60.8459835 C75.7069039,53.6874582 80.3626011,48.0138878 81.5900892,46.4776304 C83.0342857,44.6701527 94.2904241,33.2898514 98.5019196,30.5939809 C102.713415,27.8981103 104.813304,26.4349407 107.502757,25.9009005 C110.19221,25.3668603 117.208393,22.9039697 118.820279,29.4075969 C120.432165,35.9112242 119.422679,39.6330434 119.304654,44.5680322 C119.186629,49.503021 118.633895,56.9887911 117.695837,60.6193715 C116.757779,64.2499519 115.015312,69.3562577 112.381663,71.8096617 C109.748013,74.2630657 106.837299,75.4991148 104.2349,76.1048626 C101.6325,76.7106103 99.3426004,76.971771 96.6871875,77.2418603 C94.9169122,77.4219199 91.7946093,77.5119496 87.320279,77.5119496 C90.2235528,77.4767934 92.7611272,77.7408373 94.9330022,78.3040813 C98.1908147,79.1489474 101.607388,80.1084898 103.520614,82.0839362 C105.433839,84.0593827 105.816652,83.9120612 107.502757,86.9062019 C109.188862,89.9003425 108.822511,90.2265144 109.188862,93.0217152 C109.555212,95.8169161 108.838694,96.8565367 107.502757,99.4653536 C106.166819,102.074171 103.576417,105.714238 101.862132,107.580867 C100.147846,109.447496 99.8886384,109.863791 96.6871875,112.009996 C93.4857366,114.156202 94.1690513,113.665409 92.4391406,114.156202 C90.7092299,114.646994 90.1213392,115.737117 87.320279,114.156202 C84.5192187,112.575287 82.2145312,110.764461 80.3013058,108.699171 C78.7090158,106.980324 74.3501958,101.976429 72.3150194,98.4821905 C71.6616332,101.327166 70.8627114,103 70,103 C69.1027405,103 68.2744819,101.190502 67.6071895,98.134794 C65.671119,101.635983 61.0694242,106.922491 59.4235593,108.699171 C57.5103339,110.764461 55.2056464,112.575287 52.4045861,114.156202 C49.6035258,115.737117 49.0156352,114.646994 47.2857245,114.156202 C45.5558138,113.665409 46.2391285,114.156202 43.0376776,112.009996 C39.8362267,109.863791 39.5770191,109.447496 37.8627334,107.580867 C36.1484477,105.714238 33.5580459,102.074171 32.2221084,99.4653536 C30.8861709,96.8565367 30.1696531,95.8169161 30.5360035,93.0217152 C30.902354,90.2265144 30.5360035,89.9003425 32.2221084,86.9062019 C33.9082133,83.9120612 34.2910258,84.0593827 36.2042513,82.0839362 C38.1174767,80.1084898 41.5340504,79.1489474 44.7918629,78.3040813 C46.9637379,77.7408373 49.5013123,77.4767934 52.4045861,77.5119496 C47.9302557,77.5119496 44.8079529,77.4219199 43.0376776,77.2418603 C40.3822647,76.971771 38.0923651,76.7106103 35.4899656,76.1048626 C32.887566,75.4991148 29.9768517,74.2630657 27.3432022,71.8096617 C24.7095526,69.3562577 22.9670861,64.2499519 22.0290281,60.6193715 C21.09097,56.9887911 20.5382357,49.503021 20.4202111,44.5680322 C20.3021865,39.6330434 19.2926999,35.9112242 20.9045861,29.4075969 C22.5164723,22.9039697 29.5326553,25.3668603 32.2221084,25.9009005 C34.9115615,26.4349407 37.0114499,27.8981103 41.2229455,30.5939809 C45.434441,33.2898514 56.6905794,44.6701527 58.1347758,46.4776304 C59.3898558,48.0484202 64.2289976,53.9446129 67.146481,61.3309385 C67.6360196,58.2789347 68.2550598,56.0087702 68.949091,54.8543221 C68.0277189,50.9356512 67.2852775,48.7481906 66.5096451,47.3419167 C66.1117065,46.6204272 65.8598741,46.4846892 65.5414567,46.5019372 C65.5070972,46.504014 65.5070972,46.504014 65.4524415,46.5053383 C65.3965558,46.5053383 64.7556212,46.807922 64.5944447,46.9582719 C64.4889315,47.0566976 64.4544186,47.7968321 64.5874994,47.9163672 C64.7360757,48.0498204 65.4274093,48.0035031 65.9436135,47.8178487 L66.2820438,48.7588402 C65.4394652,49.061876 64.4408164,49.1287825 63.9192692,48.6603217 C63.3290518,48.1301804 63.3953074,46.7093199 63.912324,46.2270324 C64.2449053,45.9167912 65.1164473,45.5053383 65.4524415,45.5053383 C65.4516744,45.505328 65.4516744,45.505328 65.487368,45.5034011 C66.1843967,45.4656444 66.7997366,45.7973134 67.3852867,46.8589552 C68.1711411,48.2837622 68.904445,50.3991317 69.7820943,54.0357362 Z M42.057342,54.057342 C37.3697975,58.7448864 38.1607171,65.3397669 43.8239103,68.7874198 C49.4871035,72.2350727 56.081984,73.0259922 58.5539881,70.5539881 C61.0259922,68.081984 60.2350727,61.4871035 56.7874198,55.8239103 C53.3397669,50.1607171 46.7448864,49.3697975 42.057342,54.057342 Z M97.9360681,54.057342 C93.2485237,49.3697975 86.6536432,50.1607171 83.2059903,55.8239103 C79.7583375,61.4871035 78.9674179,68.081984 81.439422,70.5539881 C83.9114261,73.0259922 90.5063066,72.2350727 96.1694998,68.7874198 C101.832693,65.3397669 102.623613,58.7448864 97.9360681,54.057342 Z" id="Combined-Shape" fill="#FFFFFF"></path>
            <g id="Group" transform="translate(63.000000, 45.000000)"></g>
            <path d="M49.2446169,61.2446169 C51.1888573,59.3003765 54.312748,59.6750226 56.2220222,62.0814124 C58.1312963,64.4878022 58.5059424,67.611693 57.0588177,69.0588177 C55.611693,70.5059424 52.4878022,70.1312963 50.0814124,68.2220222 C47.6750226,66.312748 47.3003765,63.1888573 49.2446169,61.2446169 Z" id="Path" fill="#FFFFFF"></path>
            <path d="M90.6952364,61.2446169 C92.6394768,63.1888573 92.2648307,66.312748 89.8584408,68.2220222 C87.452051,70.1312963 84.3281603,70.5059424 82.8810356,69.0588177 C81.4339109,67.611693 81.808557,64.4878022 83.7178311,62.0814124 C85.6271052,59.6750226 88.750996,59.3003765 90.6952364,61.2446169 Z" id="Path-Copy-2" fill="#FFFFFF"></path>
        </g>
    </g>
</svg>