<?xml version="1.0" encoding="UTF-8" standalone="no"?>
<svg width="140px" height="140px" viewBox="0 0 140 140" version="1.1" xmlns="http://www.w3.org/2000/svg" xmlns:xlink="http://www.w3.org/1999/xlink">
    <!-- Generator: Sketch 48.2 (47327) - http://www.bohemiancoding.com/sketch -->
    <title>uxb_beer</title>
    <desc>Created with Sketch.</desc>
    <defs></defs>
    <g id="artwork-icons" stroke="none" stroke-width="1" fill="none" fill-rule="evenodd">
        <g id="uxb_beer">
            <g id="background-grey"></g>
            <path d="M47.3154139,47.4627455 C56.9808822,48.7994096 64.2214219,49.4677417 69.0370329,49.4677417 C73.7706606,49.4677417 80.3046024,48.8219719 88.6388586,47.5304325 C90.2761686,47.2767048 91.809159,48.3983178 92.062889,50.0356275 C92.0795604,50.1432075 92.0903636,50.2516151 92.0952508,50.3603694 L94.8432236,111.511141 C94.933365,113.517065 93.5223956,115.278955 91.5452547,115.629343 C81.2537416,117.453201 73.4053233,118.36513 68,118.36513 C62.5946782,118.36513 54.7462628,117.453201 44.4547539,115.629344 C42.4776098,115.278964 41.0666392,113.517073 41.1567807,111.511147 L43.9074755,50.2997829 C43.9818554,48.644601 45.3839422,47.3631078 47.0391241,47.4374877 C47.1315609,47.4416416 47.2237561,47.4500699 47.3154139,47.4627455 Z M54,63.6053713 C51.790861,63.6053713 50,65.3962323 50,67.6053713 L50,99.6053713 C50,101.81451 51.790861,103.605371 54,103.605371 C56.209139,103.605371 58,101.81451 58,99.6053713 L58,67.6053713 C58,65.3962323 56.209139,63.6053713 54,63.6053713 Z M68,63.6053713 C65.790861,63.6053713 64,65.3962323 64,67.6053713 L64,99.6053713 C64,101.81451 65.790861,103.605371 68,103.605371 C70.209139,103.605371 72,101.81451 72,99.6053713 L72,67.6053713 C72,65.3962323 70.209139,63.6053713 68,63.6053713 Z M81,63.6053713 C78.790861,63.6053713 77,65.3962323 77,67.6053713 L77,99.6053713 C77,101.81451 78.790861,103.605371 81,103.605371 C83.209139,103.605371 85,101.81451 85,99.6053713 L85,67.6053713 C85,65.3962323 83.209139,63.6053713 81,63.6053713 Z" id="Combined-Shape" fill="#FFFFFF"></path>
            <circle id="Oval" fill="#FFFFFF" cx="85" cy="36" r="10"></circle>
            <circle id="Oval-Copy" fill="#FFFFFF" cx="47" cy="39" r="11"></circle>
            <path d="M91,60 L103,60 C107.418278,60 111,63.2485386 111,67.255814 L111,91.744186 C111,95.7514614 107.418278,99 103,99 L91,99 L91,94 L103,94 C104.656854,94 106,92.7789584 106,91.2727273 L106,66.7272727 C106,65.2210416 104.656854,64 103,64 L91,64 L91,60 Z" id="Combined-Shape" fill="#FFFFFF"></path>
            <circle id="Oval-Copy-2" fill="#FFFFFF" cx="65.5" cy="33.5" r="13.5"></circle>
        </g>
    </g>
</svg>