<?xml version="1.0" encoding="UTF-8" standalone="no"?>
<svg width="140px" height="140px" viewBox="0 0 140 140" version="1.1" xmlns="http://www.w3.org/2000/svg" xmlns:xlink="http://www.w3.org/1999/xlink">
    <!-- Generator: Sketch 48.2 (47327) - http://www.bohemiancoding.com/sketch -->
    <title>uxb_beatles</title>
    <desc>Created with Sketch.</desc>
    <defs></defs>
    <g id="artwork-icons" stroke="none" stroke-width="1" fill="none" fill-rule="evenodd">
        <g id="uxb_beatles">
            <g id="background-grey"></g>
            <path d="M82.0279244,36.3934897 C81.283234,36.7258166 80.3478908,37.4275411 79.1893271,38.5019925 L79.1893271,38.1329668 C79.1893271,37.078289 78.0575019,34.5025374 76.8615716,32.5857145 C76.8913331,32.5867853 76.9161985,32.5873678 76.9358271,32.5873678 C77.2996769,32.5873678 76.875125,31.8890322 77.0116563,30.8374432 C77.1481876,29.7858542 78.7327864,29.23553 79.494343,29.0918861 C80.9439584,28.9124149 81.7777467,29.0277658 82.4192283,29.1665366 C82.989051,29.273006 84.8610453,29.9659975 84.9084488,31.1773622 C85.091951,32.9897758 84.3740663,34.1472247 83.6228813,34.6774008 C83.0470651,35.3216179 82.1954444,35.8860208 82.0279244,36.3934897 Z M82.2535021,37.391072 C82.3979055,37.5663641 82.6146211,37.6817905 82.9302347,37.6817905 C83.6228813,37.6817905 85.2877851,37.7181881 85.7821439,38.5232369 C86.4395623,39.6645614 86.7655549,40.1921086 86.7792255,41.1607973 C86.7928962,42.129486 86.7736171,42.9826751 86.2741123,43.392269 C85.7746075,43.8018629 84.3983976,44.8163529 84.0948267,44.8318943 C84.1197584,44.8826343 84.1197584,46.5767441 84.0948267,49.9142238 C84.7697416,49.9441356 85.185893,50.1314353 85.3432808,50.4761228 C85.5793625,50.993154 85.4666974,51.5160809 85.2479367,51.6700268 C84.8642236,51.8892247 84.5787172,51.9988236 84.3914175,51.9988236 L84.3878802,53 L79.1893271,53 L79.1893271,39.8027358 L79.2298415,39.8442688 C80.5284104,38.577549 81.5526388,37.7581463 82.2535021,37.391072 Z M75.6297073,32.5236329 C76.8359728,34.2833216 78.1893271,37.1828968 78.1893271,38.1329668 L78.1893271,53 L76.2011186,53 L76.2011186,46.6882107 C76.2011186,44.597112 75.0393096,42.2304289 73.6629994,40.7830055 C74.2047964,40.4434452 71.5270503,39.2330003 70.6575028,38.2637847 C70.065283,37.8760989 69.8354624,36.6269526 69.8354624,35.2779392 C69.8354624,33.9289258 71.5321508,32.5113829 72.6166007,32.5873678 C73.6336697,32.4737743 74.770304,32.4891173 75.6297073,32.5236329 Z M86.074201,54 C84.594802,54.5259143 83.8059193,55.7386862 83.8059193,57.4291454 L83.8059193,63.604039 L83.8648352,63.7679931 C84.7716521,66.2915308 86.5688797,67.6352671 89.0931568,67.6352671 L98.9907782,67.6352671 C101.426844,67.6352671 102.702952,66.2534828 102.742352,63.3875575 C104.499527,63.6539918 106.219725,65.0111423 107.062449,65.5308456 C107.998889,66.1083432 110.453122,66.687944 112.212956,66.5805066 C113.290419,66.5147279 114.950879,66.5294955 116.467726,66.5508375 C116.152484,68.1323206 114.573393,69.0191799 111.967575,69.0191799 L90.8841183,69.0191799 C87.3133342,69.0191799 85.573312,70.1883184 82.6726285,73.8162082 C80.8173037,76.136666 79.8579158,76.4933143 76.0304153,76.4933143 L61.7242261,76.4933143 L61.7224526,76.4766445 C59.3621618,76.7277454 57.5213514,72.893414 57.5213514,70.1541956 L57.5213514,67.41777 C59.1194929,67.3256891 60.5641633,67.215767 61.1667248,67.1159407 C62.5441311,66.8877459 65.503653,66.3297027 65.503653,62.6698226 L65.503653,58.4895359 C65.503653,56.5079877 65.8507341,54.5489869 67.1112684,54 L76.2011186,54 L86.074201,54 Z M67.9380479,53 C68.0338076,52.5227832 68.1386298,51.9870981 68.4221126,51.7673201 C68.5184404,51.1890058 70.4180644,50.0045008 72.6166007,50.0642405 C72.6521956,50.0786687 72.6166007,47.9738252 72.6166007,47.343769 C72.6166007,46.7137128 71.4616055,45.7303018 70.4042328,45.2875829 C69.3468601,44.8448639 68.976876,42.5341725 69.7058025,41.7265521 C70.3777589,40.9820522 70.192718,40.8839493 72.282605,40.8731623 C73.6868411,41.9127105 75.2011186,44.5110338 75.2011186,46.6882107 L75.2011186,53 L67.9380479,53 Z M97.8244766,95.5514172 C95.4758243,95.733291 93.0397812,95.9308803 91.8049444,95.9308803 L69.3780402,95.9308803 C67.9389577,95.9308803 63.7431178,95.9308803 60.8105867,95.5524835 C57.8780556,95.1740868 55.0161563,93.9595015 54.2402589,93.5432476 C53.4643615,93.1269936 51.2682932,90.9870101 50.4529613,89.4439785 C50.4259326,89.3928262 50.3990195,89.3421905 50.3721196,89.2920933 C50.3892766,81.9595081 53.6074596,78.4933143 60.1877049,78.4933143 L76.0304153,78.4933143 C80.4139121,78.4933143 81.9504307,77.9221203 84.234708,75.0651707 C86.7937335,71.8645932 88.0519573,71.0191799 90.8841183,71.0191799 L101.328955,71.0191799 L111.967575,71.0191799 C115.609363,71.0191799 118.16121,69.4381712 118.49018,66.5780876 C118.669258,66.5796197 118.837413,66.5805066 118.992271,66.5805066 C120.69665,66.5805066 123.361902,66.7608542 124.643964,67.1159407 C125.926027,67.4710272 128.875909,68.733635 129.541214,70.1051374 C130.20652,71.4766397 130.25314,71.7504685 130.407198,73.077048 C130.561256,74.4036274 130.028626,76.2822911 129.328267,76.9612671 C128.627909,77.640243 125.757948,79.5676303 125.258618,79.9032624 C124.759289,80.2388946 123.272517,81.4569851 122.843294,82.5026151 C122.41407,83.548245 122.41407,84.145197 122.41407,85.8366779 C122.41407,87.5281587 121.588676,89.4422259 120.064996,90.2771875 C119.060365,90.827715 117.112849,91.8736548 115.147041,92.6532481 L115.147041,85.3314711 C115.147041,81.2546428 112.848995,79.1690218 109.908559,79.1690218 L104.543661,79.1690218 C103.866736,79.1690218 103.552524,79.1726144 103.15499,79.1905993 C99.7657209,79.3439344 97.8244766,80.7036909 97.8244766,84.2114609 L97.8244766,95.5514172 Z M99.8244766,95.401637 L99.8244766,84.2114609 C99.8244766,81.9815273 100.798517,81.2992551 103.24538,81.1885557 C103.602899,81.1723811 103.896705,81.1690218 104.543661,81.1690218 L109.908559,81.1690218 C111.785376,81.1690218 113.147041,82.4048184 113.147041,85.3314711 L113.147041,93.3328815 C112.825201,93.4199832 112.512266,93.4914023 112.212956,93.5432476 C109.577148,93.9998124 105.008871,95.1875822 102.377094,95.2597913 C101.697725,95.2784314 100.807865,95.3321671 99.8244766,95.401637 Z M67,67 L67,68 L83,68 L83,67 C82.918312,61.9820159 79.447222,57 74.7586878,57 C70.105376,57 67.0691457,61.8231957 67.0011657,67 L67,67 Z M80.9982564,67 L69.0013823,67 C69.0669353,62.7904895 71.457474,59 74.7586878,59 C78.1527574,59 80.9190693,62.9624833 80.9982564,67 Z M88.0688492,55.8997343 C88.2181872,56.5202015 88.2788172,57.1200737 88.3587121,57.4323838 C88.555184,58.2003942 89.5052946,60.3777092 90.1320417,61.1157494 C90.7587887,61.8537895 91.9738997,62.9085333 94.4964864,63.1251606 C96.4758464,63.2951383 98.8640684,63.3317421 100.742988,63.3396246 C100.730788,65.1108407 100.349424,65.6352671 98.9907782,65.6352671 L89.0931568,65.6352671 C87.4875699,65.6352671 86.4414337,64.8898078 85.8059193,63.2495374 L85.8059193,57.4291454 C85.8059193,56.5826663 86.0746114,56.1368178 86.7022241,55.8997343 L88.0688492,55.8997343 Z M55.5213514,67.5203036 L55.5213514,70.1541956 C55.5213514,72.3511157 56.3242842,74.9445078 57.7875548,76.6486399 C52.16482,77.4182684 49.0293434,81.0383367 48.4678095,87.293422 C47.7900717,86.9955258 46.8636187,86.8279757 45.5152253,86.8279757 C42.1029944,86.8279757 35.8965164,87.0328603 35.4595812,86.8279757 C35.0226459,86.6230911 32.3340835,86.3850815 31.7995258,85.2554997 C31.6470999,84.9334063 31.5160921,84.5327939 31.4077216,84.1051374 L30.0743528,84.1051374 C30.2626595,84.5229677 30.3742429,85.0423344 30.3742429,85.6051374 C30.3742429,86.9858493 29.70267,88.1051374 28.8742429,88.1051374 C28.0458158,88.1051374 27.3742429,86.9858493 27.3742429,85.6051374 C27.3742429,85.0423344 27.4858264,84.5229677 27.6741331,84.1051374 L27.3742429,84.1051374 C26.8219582,84.1051374 26.3742429,83.6574221 26.3742429,83.1051374 C26.3742429,82.5528526 26.8219582,82.1051374 27.3742429,82.1051374 L27.6741331,82.1051374 C27.4858264,81.6873071 27.3742429,81.1679404 27.3742429,80.6051374 C27.3742429,79.643532 27.6999902,78.8087305 28.1776041,78.3905341 C25.2952767,78.4764337 19.3106359,78.6889773 18.0438965,78.6889773 C16.4563541,78.6889773 15.242127,78.6924182 14.5502911,78.5513047 C13.8651724,78.4115614 13.1612966,78.1743783 12.4733243,77.3646966 L17.7759722,77.3646966 C20.4779923,77.3646966 21.9419581,75.6936252 21.9050417,72.7801997 C21.905122,69.9357666 21.905122,69.9357666 21.905122,65.9820894 C21.905122,62.7064533 20.4107262,60.646891 17.5468882,60.1215494 L17.3664591,60.1051374 L12.1123161,60.1051374 L12.1132547,60.0615314 C14.008218,59.114634 15.5214545,58.5950322 16.6529642,58.5027261 C18.3502288,58.3642668 20.3247623,58.3386782 20.9118995,58.6411853 C21.4990367,58.9436924 23.1728158,59.4644042 24.5425104,60.4262575 C25.912205,61.3881109 29.8022078,64.5954572 30.2587727,65.0031232 C30.694212,65.3919262 33.4862093,67.4240386 36.388919,67.611261 L36.3889365,67.6068341 C36.6154025,67.6147879 36.7790887,67.6191814 36.8799949,67.6200144 C36.9809011,67.6208473 37.4819299,67.6219412 38.3830811,67.623296 L38.3742429,71.0364903 C38.6908351,72.1467966 39.2439028,72.5974265 40.1894356,72.5974265 L45.7828472,72.5974265 C47.0139977,72.5974265 48.2553625,71.7632775 48.2553625,70.3569498 L48.2553625,67.623296 L50.2553625,67.623296 L50.2553625,70.3569498 C50.2553625,73.0961778 47.9874934,74.620098 45.7828472,74.620098 L40.1894356,74.620098 C38.2570099,74.620098 36.9384709,73.4791544 36.406949,71.4292843 L36.3742429,71.30315 L36.388919,67.611261 C36.5297457,67.6203442 36.6708331,67.625085 36.8119246,67.625085 L52.0590829,67.625085 C52.8064543,67.625085 54.1143301,67.583919 55.5213514,67.5203036 Z M12.0721309,62.1051374 L17.2714428,62.1051374 C19.0669755,62.4660716 19.905122,63.6571894 19.905122,65.9820894 L19.905122,72.7928698 C19.9286313,74.6545501 19.3064974,75.3646966 17.7759722,75.3646966 L13.9278746,75.3646966 C14.2069856,75.0208443 14.3742429,74.5825234 14.3742429,74.1051374 C14.3742429,73.0005679 13.4788124,72.1051374 12.3742429,72.1051374 C12.2507858,72.1051374 12.1299414,72.1163235 12.0126678,72.1377374 C12.0073396,71.7983499 12.003117,71.4424981 12,71.0701819 C12.1212328,71.0931303 12.2463357,71.1051374 12.3742429,71.1051374 C13.4788124,71.1051374 14.3742429,70.2097069 14.3742429,69.1051374 C14.3742429,68.0005679 13.4788124,67.1051374 12.3742429,67.1051374 C12.247332,67.1051374 12.1231819,67.1169581 12.0028337,67.1395586 C12.0055599,66.7926995 12.0088774,66.437033 12.0127864,66.0725591 C12.1300229,66.0939589 12.2508274,66.1051374 12.3742429,66.1051374 C13.4788124,66.1051374 14.3742429,65.2097069 14.3742429,64.1051374 C14.3742429,63.0005679 13.4788124,62.1051374 12.3742429,62.1051374 C12.2714005,62.1051374 12.170371,62.1128997 12.0717084,62.1278704 L12.0721309,62.1051374 Z M31.0707559,82.1051374 C31.0375806,81.7374184 31.0265474,81.417623 31.0387012,81.1898815 C31.083569,80.3491362 30.6579634,78.3551482 29.6435306,78.3551482 C29.6128443,78.3551482 29.5748531,78.3554537 29.5299829,78.3560461 C30.0298027,78.7615954 30.3742429,79.6163261 30.3742429,80.6051374 C30.3742429,81.1679404 30.2626595,81.6873071 30.0743528,82.1051374 L31.0707559,82.1051374 Z M90.4223687,95.9305033 L90.4223687,92.9077425 C90.4223687,91.5622438 89.632851,90.7129804 88.3090907,90.3624531 C87.4741378,90.1413604 86.7111611,90.1036215 84.6795302,90.1036215 L75.1314095,90.1036215 C74.4447251,90.1036215 74.1000929,90.1123528 73.6629939,90.1552223 C71.4942654,90.3679249 70.1001463,91.4119862 70.1001463,93.6451214 L70.1473734,95.9305033 L72.1001463,95.9305033 L72.1001463,93.6451214 C72.1001463,92.640016 72.5947756,92.2695861 73.8582115,92.145672 C74.2096997,92.111199 74.5087899,92.1036215 75.1314095,92.1036215 L84.6795302,92.1036215 C86.5060534,92.1036215 87.2011466,92.1380027 87.7971416,92.2958202 C88.3070875,92.4308521 88.4223687,92.5548571 88.4223687,92.9077425 L88.4223687,95.9305033 L90.4223687,95.9305033 Z M64.5,85 C65.8807119,85 67,83.8807119 67,82.5 C67,81.1192881 65.8807119,80 64.5,80 C63.1192881,80 62,81.1192881 62,82.5 C62,83.8807119 63.1192881,85 64.5,85 Z M74.5,85 C75.8807119,85 77,83.8807119 77,82.5 C77,81.1192881 75.8807119,80 74.5,80 C73.1192881,80 72,81.1192881 72,82.5 C72,83.8807119 73.1192881,85 74.5,85 Z M69.5,85 C70.8807119,85 72,83.8807119 72,82.5 C72,81.1192881 70.8807119,80 69.5,80 C68.1192881,80 67,81.1192881 67,82.5 C67,83.8807119 68.1192881,85 69.5,85 Z M79.5,85 C80.8807119,85 82,83.8807119 82,82.5 C82,81.1192881 80.8807119,80 79.5,80 C78.1192881,80 77,81.1192881 77,82.5 C77,83.8807119 78.1192881,85 79.5,85 Z M91.5,77 C92.8807119,77 94,75.8807119 94,74.5 C94,73.1192881 92.8807119,72 91.5,72 C90.1192881,72 89,73.1192881 89,74.5 C89,75.8807119 90.1192881,77 91.5,77 Z M101.5,77 C102.880712,77 104,75.8807119 104,74.5 C104,73.1192881 102.880712,72 101.5,72 C100.119288,72 99,73.1192881 99,74.5 C99,75.8807119 100.119288,77 101.5,77 Z M96.5,77 C97.8807119,77 99,75.8807119 99,74.5 C99,73.1192881 97.8807119,72 96.5,72 C95.1192881,72 94,73.1192881 94,74.5 C94,75.8807119 95.1192881,77 96.5,77 Z M106.5,77 C107.880712,77 109,75.8807119 109,74.5 C109,73.1192881 107.880712,72 106.5,72 C105.119288,72 104,73.1192881 104,74.5 C104,75.8807119 105.119288,77 106.5,77 Z" id="Combined-Shape" fill="#FFFFFF"></path>
            <path d="M64.5,84 C65.3284271,84 66,83.3284271 66,82.5 C66,81.6715729 65.3284271,81 64.5,81 C63.6715729,81 63,81.6715729 63,82.5 C63,83.3284271 63.6715729,84 64.5,84 Z" id="Path" fill="#FFFFFF"></path>
            <path d="M91.5,76 C92.3284271,76 93,75.3284271 93,74.5 C93,73.6715729 92.3284271,73 91.5,73 C90.6715729,73 90,73.6715729 90,74.5 C90,75.3284271 90.6715729,76 91.5,76 Z" id="Path-Copy-11" fill="#FFFFFF"></path>
            <path d="M74.5,84 C75.3284271,84 76,83.3284271 76,82.5 C76,81.6715729 75.3284271,81 74.5,81 C73.6715729,81 73,81.6715729 73,82.5 C73,83.3284271 73.6715729,84 74.5,84 Z" id="Path-Copy-5" fill="#FFFFFF"></path>
            <path d="M101.5,76 C102.328427,76 103,75.3284271 103,74.5 C103,73.6715729 102.328427,73 101.5,73 C100.671573,73 100,73.6715729 100,74.5 C100,75.3284271 100.671573,76 101.5,76 Z" id="Path-Copy-12" fill="#FFFFFF"></path>
            <path d="M69.5,84 C70.3284271,84 71,83.3284271 71,82.5 C71,81.6715729 70.3284271,81 69.5,81 C68.6715729,81 68,81.6715729 68,82.5 C68,83.3284271 68.6715729,84 69.5,84 Z" id="Path-Copy-2" fill="#FFFFFF"></path>
            <path d="M96.5,76 C97.3284271,76 98,75.3284271 98,74.5 C98,73.6715729 97.3284271,73 96.5,73 C95.6715729,73 95,73.6715729 95,74.5 C95,75.3284271 95.6715729,76 96.5,76 Z" id="Path-Copy-13" fill="#FFFFFF"></path>
            <path d="M79.5,84 C80.3284271,84 81,83.3284271 81,82.5 C81,81.6715729 80.3284271,81 79.5,81 C78.6715729,81 78,81.6715729 78,82.5 C78,83.3284271 78.6715729,84 79.5,84 Z" id="Path-Copy-6" fill="#FFFFFF"></path>
            <path d="M106.5,76 C107.328427,76 108,75.3284271 108,74.5 C108,73.6715729 107.328427,73 106.5,73 C105.671573,73 105,73.6715729 105,74.5 C105,75.3284271 105.671573,76 106.5,76 Z" id="Path-Copy-14" fill="#FFFFFF"></path>
        </g>
    </g>
</svg>