<?xml version="1.0" encoding="UTF-8" standalone="no"?>
<svg width="140px" height="140px" viewBox="0 0 140 140" version="1.1" xmlns="http://www.w3.org/2000/svg" xmlns:xlink="http://www.w3.org/1999/xlink">
    <!-- Generator: Sketch 48.2 (47327) - http://www.bohemiancoding.com/sketch -->
    <title>uxb_bars</title>
    <desc>Created with Sketch.</desc>
    <defs></defs>
    <g id="artwork-icons" stroke="none" stroke-width="1" fill="none" fill-rule="evenodd">
        <g id="uxb_bars">
            <g id="background-grey"></g>
            <path d="M109,93.25 L109,99.75 C109,101.527344 107.527344,103 105.75,103 L34.25,103 C32.4726562,103 31,101.527344 31,99.75 L31,93.25 C31,91.4726563 32.4726562,90 34.25,90 L105.75,90 C107.527344,90 109,91.4726563 109,93.25 Z M109,67.25 L109,73.75 C109,75.5273437 107.527344,77 105.75,77 L34.25,77 C32.4726562,77 31,75.5273437 31,73.75 L31,67.25 C31,65.4726562 32.4726562,64 34.25,64 L105.75,64 C107.527344,64 109,65.4726562 109,67.25 Z M109,41.25 L109,47.75 C109,49.5273438 107.527344,51 105.75,51 L34.25,51 C32.4726562,51 31,49.5273438 31,47.75 L31,41.25 C31,39.4726562 32.4726562,38 34.25,38 L105.75,38 C107.527344,38 109,39.4726562 109,41.25 Z" id="" fill="#FFFFFF"></path>
        </g>
    </g>
</svg>