<?xml version="1.0" encoding="UTF-8" standalone="no"?>
<svg width="140px" height="140px" viewBox="0 0 140 140" version="1.1" xmlns="http://www.w3.org/2000/svg" xmlns:xlink="http://www.w3.org/1999/xlink">
    <!-- Generator: Sketch 48.2 (47327) - http://www.bohemiancoding.com/sketch -->
    <title>uxb_b5 copy</title>
    <desc>Created with Sketch.</desc>
    <defs></defs>
    <g id="artwork-icons" stroke="none" stroke-width="1" fill="none" fill-rule="evenodd">
        <g id="uxb_b5-copy">
            <g id="background-grey"></g>
            <path d="M46.475,102.83 L46.475,38.89 L39,38.89 L39,29 L73.73,29 C87.415,29 97.305,36.59 97.305,49.7 C97.305,58.555 92.59,64.535 87.185,67.18 L87.185,67.41 C95.81,69.94 100.525,77.99 100.525,87.075 C100.525,102.37 88.795,110.19 74.42,110.19 L53.835,110.19 C48.66,110.19 46.475,108.005 46.475,102.83 Z M57.975,63.155 L73.845,63.155 C80.975,63.155 85.575,57.98 85.575,50.85 C85.575,43.72 81.205,38.89 73.615,38.89 L57.975,38.89 L57.975,63.155 Z M57.975,97.77 C57.975,99.38 58.895,100.3 60.505,100.3 L74.995,100.3 C83.62,100.3 88.68,94.78 88.68,86.5 C88.68,78.22 83.275,72.585 74.995,72.585 L57.975,72.585 L57.975,97.77 Z" id="UXB" fill="#FFFFFF"></path>
        </g>
    </g>
</svg>