<?xml version="1.0" encoding="UTF-8" standalone="no"?>
<svg width="140px" height="140px" viewBox="0 0 140 140" version="1.1" xmlns="http://www.w3.org/2000/svg" xmlns:xlink="http://www.w3.org/1999/xlink">
    <!-- Generator: Sketch 48.2 (47327) - http://www.bohemiancoding.com/sketch -->
    <title>uxb_b3</title>
    <desc>Created with Sketch.</desc>
    <defs></defs>
    <g id="artwork-icons" stroke="none" stroke-width="1" fill="none" fill-rule="evenodd">
        <g id="uxb_b3">
            <g id="background-grey"></g>
            <path d="M40,110.624 L40,105.836 L51.4,105.836 L51.4,33.788 L40,33.788 L40,29 L77.05,29 C95.404,29 98.71,40.742 98.71,48.494 C98.71,59.324 93.238,67.076 83.32,67.988 L83.32,68.216 C97,68.444 100.648,81.326 100.648,87.824 C100.648,100.934 90.616,110.624 78.418,110.624 L40,110.624 Z M57.556,33.788 L57.556,66.392 L76.024,66.392 C85.372,66.392 91.87,59.438 91.87,49.976 C91.87,41.084 87.31,33.788 77.62,33.788 L57.556,33.788 Z M57.556,71.18 L57.556,105.836 L74.77,105.836 C86.398,105.836 93.808,99.338 93.808,87.938 C93.808,78.476 88.108,71.18 76.708,71.18 L57.556,71.18 Z" id="B" fill="#FFFFFF"></path>
        </g>
    </g>
</svg>