<?xml version="1.0" encoding="UTF-8" standalone="no"?>
<svg width="140px" height="140px" viewBox="0 0 140 140" version="1.1" xmlns="http://www.w3.org/2000/svg" xmlns:xlink="http://www.w3.org/1999/xlink">
    <!-- Generator: Sketch 48.2 (47327) - http://www.bohemiancoding.com/sketch -->
    <title>uxb_building</title>
    <desc>Created with Sketch.</desc>
    <defs></defs>
    <g id="artwork-icons" stroke="none" stroke-width="1" fill="none" fill-rule="evenodd">
        <g id="uxb_building">
            <g id="background-grey"></g>
            <path d="M54,92 C54,90.9375 53.0625,90 52,90 L48,90 C46.9375,90 46,90.9375 46,92 L46,96 C46,97.0625 46.9375,98 48,98 L52,98 C53.0625,98 54,97.0625 54,96 L54,92 Z M54,79 C54,77.9375 53.0625,77 52,77 L48,77 C46.9375,77 46,77.9375 46,79 L46,83 C46,84.0625 46.9375,85 48,85 L52,85 C53.0625,85 54,84.0625 54,83 L54,79 Z M69,79 C69,77.9375 68.0625,77 67,77 L63,77 C61.9375,77 61,77.9375 61,79 L61,83 C61,84.0625 61.9375,85 63,85 L67,85 C68.0625,85 69,84.0625 69,83 L69,79 Z M54,65 C54,63.9375 53.0625,63 52,63 L48,63 C46.9375,63 46,63.9375 46,65 L46,69 C46,70.0625 46.9375,71 48,71 L52,71 C53.0625,71 54,70.0625 54,69 L54,65 Z M94,92 C94,90.9375 93.0625,90 92,90 L88,90 C86.9375,90 86,90.9375 86,92 L86,96 C86,97.0625 86.9375,98 88,98 L92,98 C93.0625,98 94,97.0625 94,96 L94,92 Z M81,79 C81,77.9375 80.0625,77 79,77 L75,77 C73.9375,77 73,77.9375 73,79 L73,83 C73,84.0625 73.9375,85 75,85 L79,85 C80.0625,85 81,84.0625 81,83 L81,79 Z M69,65 C69,63.9375 68.0625,63 67,63 L63,63 C61.9375,63 61,63.9375 61,65 L61,69 C61,70.0625 61.9375,71 63,71 L67,71 C68.0625,71 69,70.0625 69,69 L69,65 Z M54,52 C54,50.9375 53.0625,50 52,50 L48,50 C46.9375,50 46,50.9375 46,52 L46,56 C46,57.0625 46.9375,58 48,58 L52,58 C53.0625,58 54,57.0625 54,56 L54,52 Z M94,79 C94,77.9375 93.0625,77 92,77 L88,77 C86.9375,77 86,77.9375 86,79 L86,83 C86,84.0625 86.9375,85 88,85 L92,85 C93.0625,85 94,84.0625 94,83 L94,79 Z M81,65 C81,63.9375 80.0625,63 79,63 L75,63 C73.9375,63 73,63.9375 73,65 L73,69 C73,70.0625 73.9375,71 75,71 L79,71 C80.0625,71 81,70.0625 81,69 L81,65 Z M69,52 C69,50.9375 68.0625,50 67,50 L63,50 C61.9375,50 61,50.9375 61,52 L61,56 C61,57.0625 61.9375,58 63,58 L67,58 C68.0625,58 69,57.0625 69,56 L69,52 Z M54,38 C54,36.9375 53.0625,36 52,36 L48,36 C46.9375,36 46,36.9375 46,38 L46,42 C46,43.0625 46.9375,44 48,44 L52,44 C53.0625,44 54,43.0625 54,42 L54,38 Z M94,65 C94,63.9375 93.0625,63 92,63 L88,63 C86.9375,63 86,63.9375 86,65 L86,69 C86,70.0625 86.9375,71 88,71 L92,71 C93.0625,71 94,70.0625 94,69 L94,65 Z M69,38 C69,36.9375 68.0625,36 67,36 L63,36 C61.9375,36 61,36.9375 61,38 L61,42 C61,43.0625 61.9375,44 63,44 L67,44 C68.0625,44 69,43.0625 69,42 L69,38 Z M94,52 C94,50.9375 93.0625,50 92,50 L88,50 C86.9375,50 86,50.9375 86,52 L86,56 C86,57.0625 86.9375,58 88,58 L92,58 C93.0625,58 94,57.0625 94,56 L94,52 Z M81,38 C81,36.9375 80.0625,36 79,36 L75,36 C73.9375,36 73,36.9375 73,38 L73,42 C73,43.0625 73.9375,44 75,44 L79,44 C80.0625,44 81,43.0625 81,42 L81,38 Z M94,38 C94,36.9375 93.0625,36 92,36 L88,36 C86.9375,36 86,36.9375 86,38 L86,42 C86,43.0625 86.9375,44 88,44 L92,44 C93.0625,44 94,43.0625 94,42 L94,38 Z M81.6666667,112 L81.6666667,100.1875 C81.6666667,99.2910156 80.8723958,98.5 79.9722222,98.5 L63.0277778,98.5 C62.1276042,98.5 61.3333333,99.2910156 61.3333333,100.1875 L61.3333333,112 L41,112 L41,31 L102,31 L102,112 L81.6666667,112 Z M107,26.3571429 C107,24.5212054 105.475852,23 103.636364,23 L36.3636364,23 C34.5241477,23 33,24.5212054 33,26.3571429 L33,113.642857 C33,115.478795 34.5241477,117 36.3636364,117 L103.636364,117 C105.475852,117 107,115.478795 107,113.642857 L107,26.3571429 Z" id="" fill="#FFFFFF"></path>
        </g>
    </g>
</svg>