<?xml version="1.0" encoding="UTF-8" standalone="no"?>
<svg width="140px" height="140px" viewBox="0 0 140 140" version="1.1" xmlns="http://www.w3.org/2000/svg" xmlns:xlink="http://www.w3.org/1999/xlink">
    <!-- Generator: Sketch 48.2 (47327) - http://www.bohemiancoding.com/sketch -->
    <title>uxb_bitbucket</title>
    <desc>Created with Sketch.</desc>
    <defs></defs>
    <g id="artwork-icons" stroke="none" stroke-width="1" fill="none" fill-rule="evenodd">
        <g id="uxb_bitbucket">
            <g id="background-grey"></g>
            <path d="M76.6478718,67.4758784 C77.277475,72.2837572 71.4393364,76.0613762 67.3755341,73.6002002 C62.7966019,71.5969173 62.7966019,64.3278625 67.2610608,62.267343 C71.0959165,59.9206402 76.6478718,63.0114195 76.6478718,67.4758784 Z M83.0011403,66.2739087 C81.9708805,58.146304 72.7557794,52.7660587 65.257778,56.1430212 C60.5071358,58.2607773 57.3018833,63.2976027 57.5308299,68.6206114 C57.8170131,75.603483 64.4564648,81.3271483 71.4393364,80.6975451 C78.4222081,80.0679419 83.85969,73.2567803 83.0011403,66.2739087 Z M96.6807002,35.251643 C94.1622875,31.9319171 89.8695386,31.3595506 86.0919195,30.7299474 C75.3886655,29.0128479 64.3992282,28.9556112 53.6959742,30.8444207 C50.1473017,31.4167873 46.140736,32.0463904 43.9085066,35.251643 C47.5716523,38.6858421 52.7801877,39.200972 57.4735932,39.7733385 C65.9446178,40.8608349 74.644589,40.9180716 83.1156136,39.8305752 C87.8662557,39.2582087 93.1320278,38.8003154 96.6807002,35.251643 Z M99.9431894,94.4915784 C98.3405631,100.10077 99.2563496,107.656008 93.3037377,110.918498 C83.0583769,116.584926 70.6380233,117.214529 59.3624028,115.211247 C53.4097909,114.12375 46.4269193,112.234941 43.1644301,106.625749 C41.7335138,101.13103 40.8177273,95.5218381 39.9019409,89.9126462 L40.2453608,88.9968597 L41.2756206,88.4817298 C58.332143,99.7573504 82.1998271,99.7573504 99.3135862,88.4817298 C102.003709,89.283043 100.000426,92.5455322 99.9431894,94.4915784 Z M110.303024,39.4871553 C108.356977,52.0219822 106.124748,64.4995724 103.949755,76.9771627 C103.320152,80.6403084 99.7714794,82.7008279 96.7951735,84.2462176 C86.0919195,89.6264629 73.6143292,90.5422493 61.8808155,89.283043 C53.9249208,88.4244932 45.7973161,86.3067371 39.3295744,81.3271483 C36.2960318,78.9804455 36.2960318,74.9738798 35.7236653,71.5969173 C33.7203824,59.8634036 31.4309163,48.1298898 30,36.2819027 C30.6868398,31.130604 36.4677417,28.8983746 40.7604907,27.2957483 C46.4841559,25.1779921 52.6084778,24.204969 58.6755629,23.6326025 C71.6110464,22.3733962 84.8327131,22.8312894 97.36754,26.4944351 C101.831999,27.8108782 106.639878,29.642451 109.67342,33.4773068 C111.0471,35.251643 110.589207,37.4838724 110.303024,39.4871553 Z" id="" fill="#FFFFFF"></path>
        </g>
    </g>
</svg>