<?xml version="1.0" encoding="UTF-8" standalone="no"?>
<svg width="140px" height="140px" viewBox="0 0 140 140" version="1.1" xmlns="http://www.w3.org/2000/svg" xmlns:xlink="http://www.w3.org/1999/xlink">
    <!-- Generator: Sketch 48.2 (47327) - http://www.bohemiancoding.com/sketch -->
    <title>uxb_book</title>
    <desc>Created with Sketch.</desc>
    <defs></defs>
    <g id="artwork-icons" stroke="none" stroke-width="1" fill="none" fill-rule="evenodd">
        <g id="uxb_book">
            <g id="background-grey"></g>
            <path d="M112.919044,47.5581413 C112.123695,46.4976761 111.010206,45.7553505 109.790671,45.2781411 C109.843695,46.2325598 109.843695,47.293025 109.525555,48.300467 L93.6185769,100.634426 C93.035321,102.543263 90.7553208,103.656751 88.7934601,103.656751 L39.8529902,103.656751 C36.9367109,103.656751 33.2781059,103.020472 32.2176406,99.9451232 C31.7934545,98.7786115 31.8464778,98.3014021 32.2706639,97.665123 C32.7478732,97.0288438 33.5962454,96.8697741 34.2855478,96.8697741 L80.3627616,96.8697741 C87.0967157,96.8697741 88.4753205,95.0669832 90.9674138,86.901401 L105.495787,38.8623265 C106.238113,36.3702333 105.919973,33.87814 104.541369,31.9693026 C103.215787,30.1134885 100.98881,29 98.4967169,29 L58.1460153,29 C57.2446198,29 56.3432244,29.2651163 55.4418289,29.4772093 L55.4948522,29.3181396 C48.7608981,27.4093022 48.336712,34.6734889 46.109735,37.9609311 C45.2613628,39.1804661 43.9888046,40.2409313 43.7767115,41.2483733 C43.6176417,42.202792 44.1478744,43.1041874 44.0418278,44.0055829 C43.7236883,46.8158157 41.6027578,51.8530255 40.3301996,53.6027931 C39.5348506,54.6632583 38.3683389,55.1934909 37.9971761,56.4130259 C37.6790365,57.2613981 38.2092691,58.4809331 38.1032226,59.5944216 C37.8381063,62.0865149 35.9822922,66.8055851 34.5506641,69.2446551 C34.0204315,70.1990738 33.0129895,70.9413994 32.7478732,71.9488414 C32.4827569,72.8502368 33.0129895,74.0167486 32.7478732,75.0241905 C32.1646174,77.7814001 30.3618265,82.0762842 28.7711287,84.7274473 C27.9227565,86.1590753 26.809268,87.0604708 26.597175,88.333029 C26.4911284,88.9693082 26.9683378,89.6586106 26.9153145,90.5069827 C26.8622913,91.779541 26.6501982,92.8400062 26.5441517,93.9004714 C25.8018261,95.9153554 25.8018261,98.2483788 26.6501982,100.634426 C28.6120589,106.148845 34.3915943,110.443729 39.799967,110.443729 L88.7404368,110.443729 C93.3004373,110.443729 97.9664843,106.944194 99.2920658,102.437216 L113.873463,54.398142 C114.615788,51.959072 114.244625,49.4669787 112.919044,47.5581413 Z M56.5022942,47.6641879 L57.6157826,44.2706992 C57.9339222,43.3162805 58.9413642,42.5739548 59.8427596,42.5739548 L92.0809023,42.5739548 C93.035321,42.5739548 93.5655536,43.3162805 93.247414,44.2706992 L92.1339255,47.6641879 C91.815786,48.6186066 90.808344,49.3609322 89.9069486,49.3609322 L57.6688059,49.3609322 C56.7143872,49.3609322 56.1841546,48.6186066 56.5022942,47.6641879 Z M52.1013635,61.2381427 L53.214852,57.844654 C53.5329915,56.8902353 54.5404335,56.1479096 55.4418289,56.1479096 L87.6799716,56.1479096 C88.6343903,56.1479096 89.1646229,56.8902353 88.8464834,57.844654 L87.7329949,61.2381427 C87.4148553,62.1925614 86.4074134,62.934887 85.5060179,62.934887 L53.2678752,62.934887 C52.3134565,62.934887 51.7832239,62.1925614 52.1013635,61.2381427 Z" id="-copy" fill="#FFFFFF"></path>
        </g>
    </g>
</svg>