<?xml version="1.0" encoding="UTF-8" standalone="no"?>
<svg width="140px" height="140px" viewBox="0 0 140 140" version="1.1" xmlns="http://www.w3.org/2000/svg" xmlns:xlink="http://www.w3.org/1999/xlink">
    <!-- Generator: Sketch 48.2 (47327) - http://www.bohemiancoding.com/sketch -->
    <title>uxb_book 2</title>
    <desc>Created with Sketch.</desc>
    <defs></defs>
    <g id="artwork-icons" stroke="none" stroke-width="1" fill="none" fill-rule="evenodd">
        <g id="uxb_book-2">
            <g id="background-grey"></g>
            <path d="M109.961426,43.7670898 C103.467773,40.0888672 95.5664062,38 88.0737305,38 C81.9433594,38 75.6313477,39.2714844 70.5,42.8134766 C65.3686523,39.2714844 59.0566406,38 52.9262695,38 C45.4335938,38 37.5322266,40.0888672 31.0385742,43.7670898 L24,101.528809 L24.2270508,101.528809 C28.2685547,101.528809 31.9921875,100.575195 35.6704102,98.9404297 C41.3466797,96.3520508 47.25,94.8081055 53.5166016,94.8081055 C59.9648438,94.8081055 65.9135742,96.9423828 70.5,101.528809 C75.0864258,96.9423828 81.0351562,94.8081055 87.4833984,94.8081055 C93.75,94.8081055 99.6533203,96.3520508 105.32959,98.9404297 C109.144043,100.666016 112.776855,101.528809 117,101.528809 L109.961426,43.7670898 Z M87.4833984,88.5869141 C81.262207,88.5869141 75.7675781,90.1762695 70.5,93.4912109 C65.2324219,90.1762695 59.737793,88.5869141 53.5166016,88.5869141 C44.8886719,88.5869141 38.9853516,90.902832 31.1748047,94.1269531 L36.8056641,47.7631836 C41.8916016,45.4472656 47.9311523,44.2211914 53.5166016,44.2211914 C59.8740234,44.2211914 65.8227539,46.2192383 70.5,50.6240234 C75.1772461,46.2192383 81.1259766,44.2211914 87.4833984,44.2211914 C93.0688477,44.2211914 99.1083984,45.4472656 104.194336,47.7631836 L109.825195,94.1269531 C102.014648,90.902832 96.1113281,88.5869141 87.4833984,88.5869141 Z M86.8022461,45.855957 C80.2631836,45.9921875 75.0864258,48.2172852 70.5,52.8945313 C65.7319336,48.0356445 60.328125,45.855957 53.5166016,45.855957 C48.4306641,45.855957 42.9814453,46.9003906 38.2587891,48.8530273 L33.0820312,91.5839844 C39.9389648,88.7685547 45.9785156,86.9975586 53.5166016,86.9975586 C59.5107422,86.9975586 65.3686523,88.4506836 70.5,91.6293945 C75.6313477,88.4506836 81.4892578,86.8613281 87.4833984,86.9975586 L89.2998047,87.0429688 L86.8022461,45.855957 Z" id="" fill="#FFFFFF"></path>
        </g>
    </g>
</svg>