<?xml version="1.0" encoding="UTF-8" standalone="no"?>
<svg width="140px" height="140px" viewBox="0 0 140 140" version="1.1" xmlns="http://www.w3.org/2000/svg" xmlns:xlink="http://www.w3.org/1999/xlink">
    <!-- Generator: Sketch 48.2 (47327) - http://www.bohemiancoding.com/sketch -->
    <title>uxb_b5</title>
    <desc>Created with Sketch.</desc>
    <defs></defs>
    <g id="artwork-icons" stroke="none" stroke-width="1" fill="none" fill-rule="evenodd">
        <g id="uxb_b5">
            <g id="background-grey"></g>
            <polygon id="Path" fill="#FFFFFF" points="86.4433375 65 91.5691158 69.7272727 86.4433375 74.4545455 53.1257783 74.4545455 48 69.7272727 53.1257783 65"></polygon>
            <polygon id="Path" fill="#FFFFFF" points="43 104.090909 43 73.3636364 45.5628892 71 53.2515567 78.0909091 53.2515567 100.545455"></polygon>
            <polygon id="Path" fill="#FFFFFF" points="84.0062267 36.4545455 53.2515567 36.4545455 43 32.9090909 43 27 84.0062267 27 89.132005 31.7272727"></polygon>
            <polygon id="Path" fill="#FFFFFF" points="53.2515567 38.5454545 53.2515567 61 45.5628892 68.0909091 43 65.7272727 43 35"></polygon>
            <polygon id="Path" fill="#FFFFFF" points="87 61.3636364 87 36.5454545 90.8443337 33 97.2515567 38.9090909 97.2515567 66.0909091 94.6886675 68.4545455"></polygon>
            <polygon id="Path" fill="#FFFFFF" points="94.6886675 71 97.2515567 73.3636364 97.2515567 100.545455 90.8443337 106.454545 87 102.909091 87 78.0909091"></polygon>
            <polygon id="Path" fill="#FFFFFF" points="89.0038605 107.727273 83.8780822 112.454545 43 112.454545 43 106.545455 53.2515567 103 83.8780822 103"></polygon>
        </g>
    </g>
</svg>