<?xml version="1.0" encoding="UTF-8" standalone="no"?>
<svg width="140px" height="140px" viewBox="0 0 140 140" version="1.1" xmlns="http://www.w3.org/2000/svg" xmlns:xlink="http://www.w3.org/1999/xlink">
    <!-- Generator: Sketch 48.2 (47327) - http://www.bohemiancoding.com/sketch -->
    <title>uxb_bookmark</title>
    <desc>Created with Sketch.</desc>
    <defs></defs>
    <g id="artwork-icons" stroke="none" stroke-width="1" fill="none" fill-rule="evenodd">
        <g id="uxb_bookmark">
            <g id="background-grey"></g>
            <path d="M70,25 L70,74.0245881 L82.2935919,64.1169462 L94.1569459,75 L94.9675748,25 L105,25 L105,116 L36,116 L36,105 L41,105 L41,100 L36,100 L36,92 L41,92 L41,87 L36,87 L36,79 L41,79 L41,74 L36,74 L36,65 L41,65 L41,60 L36,60 L36,53 L41,53 L41,48 L36,48 L36,38 L41,38 L41,33 L36,33 L36,25 L70,25 Z" id="Combined-Shape" fill="#FFFFFF"></path>
        </g>
    </g>
</svg>