<?xml version="1.0" encoding="UTF-8" standalone="no"?>
<svg width="140px" height="140px" viewBox="0 0 140 140" version="1.1" xmlns="http://www.w3.org/2000/svg" xmlns:xlink="http://www.w3.org/1999/xlink">
    <!-- Generator: Sketch 48.2 (47327) - http://www.bohemiancoding.com/sketch -->
    <title>uxb_bicycle</title>
    <desc>Created with Sketch.</desc>
    <defs></defs>
    <g id="artwork-icons" stroke="none" stroke-width="1" fill="none" fill-rule="evenodd">
        <g id="uxb_bicycle">
            <g id="background-grey"></g>
            <path d="M54.0572917,82.2222222 C52.6770833,88.9392361 46.7421875,94 39.6111111,94 C31.5138889,94 24.8888889,87.375 24.8888889,79.2777778 C24.8888889,71.1805556 31.5138889,64.5555556 39.6111111,64.5555556 C41.8654514,64.5555556 43.9817708,65.0616319 45.9140625,65.9817708 L37.2647569,77.5295139 C35.7925347,79.4618056 37.1727431,82.2222222 39.6111111,82.2222222 L54.0572917,82.2222222 Z M45.5,76.3333333 L50.6067708,69.5243056 C52.3090278,71.4105903 53.5052083,73.7569444 54.0572917,76.3333333 L45.5,76.3333333 Z M67.5833333,76.3333333 L59.9921875,76.3333333 C59.3480903,71.8246528 57.2777778,67.7760417 54.1953125,64.7395833 L58.75,58.6666667 L80.8333333,58.6666667 L67.5833333,76.3333333 Z M119.111111,79.2777778 C119.111111,87.375 112.486111,94 104.388889,94 C96.2916667,94 89.6666667,87.375 89.6666667,79.2777778 C89.6666667,75.2291667 91.3229167,71.5946181 93.9453125,68.9262153 L101.950521,80.8880208 C102.502604,81.7621528 103.422743,82.2222222 104.388889,82.2222222 C104.940972,82.2222222 105.539062,82.0842014 106.045139,81.7161458 C107.37934,80.8420139 107.747396,79.0017361 106.827257,77.6215278 L98.8220486,65.6597222 C100.570312,64.9696181 102.41059,64.5555556 104.388889,64.5555556 C112.486111,64.5555556 119.111111,71.1805556 119.111111,79.2777778 Z M125,79.2777778 C125,67.9140625 115.752604,58.6666667 104.388889,58.6666667 C101.21441,58.6666667 98.2239583,59.4027778 95.5555556,60.6909722 L80.2717014,37.2881944 C79.7196181,36.5060764 78.7994792,36 77.8333333,36 L70.0555556,36 C68.4453125,36 67.1111111,37.3342014 67.1111111,38.9444444 C67.1111111,40.5546875 68.4453125,41.8888889 70.0555556,41.8888889 L76.2690972,41.8888889 L83.1796875,52.7777778 L60.1666667,52.7777778 L60.1666667,46.8888889 L45.5,46.8888889 C43.8897569,46.8888889 42.5555556,48.2230903 42.5555556,49.8333333 C42.5555556,51.4435764 43.8897569,52.7777778 45.5,52.7777778 L55.8055556,52.7777778 L49.5026042,61.1970486 C46.5581597,59.5868056 43.1996528,58.6666667 39.6111111,58.6666667 C28.2473958,58.6666667 19,67.9140625 19,79.2777778 C19,90.6414931 28.2473958,99.8888889 39.6111111,99.8888889 C50.0086806,99.8888889 58.5659722,92.2057292 59.9921875,82.2222222 L69.0555556,82.2222222 C69.9756944,82.2222222 70.8498264,81.8081597 71.4019097,81.0260417 L87.6423611,59.4487847 L90.6328125,63.9574653 C86.4461806,67.7300347 83.7777778,73.2048611 83.7777778,79.2777778 C83.7777778,90.6414931 93.0251736,99.8888889 104.388889,99.8888889 C115.752604,99.8888889 125,90.6414931 125,79.2777778 Z" id="" fill="#FFFFFF"></path>
        </g>
    </g>
</svg>