<?xml version="1.0" encoding="UTF-8" standalone="no"?>
<svg width="140px" height="140px" viewBox="0 0 140 140" version="1.1" xmlns="http://www.w3.org/2000/svg" xmlns:xlink="http://www.w3.org/1999/xlink">
    <!-- Generator: Sketch 48.2 (47327) - http://www.bohemiancoding.com/sketch -->
    <title>uxb_b4</title>
    <desc>Created with Sketch.</desc>
    <defs></defs>
    <g id="artwork-icons" stroke="none" stroke-width="1" fill="none" fill-rule="evenodd">
        <g id="uxb_b4">
            <g id="background-grey"></g>
            <path d="M68.75,28 C76.8333321,28 83,29.5833359 87.25,32.75 C91.5,35.9166641 93.625,41.2916641 93.625,48.875 C93.625,51.7916679 93.2916679,54.2708321 92.625,56.3125 C91.9583321,58.3541679 91.1041679,60.0833321 90.0625,61.5 C89.0208321,62.9166679 87.875,64.0833321 86.625,65 C85.375,65.9166679 84.1666679,66.7083321 83,67.375 C82.3333321,67.7083321 81.9166679,67.9583321 81.75,68.125 C81.5833321,68.2916679 81.5,68.5416679 81.5,68.875 C81.5,69.375 81.875,69.75 82.625,70 C84.125,70.6666679 85.6458321,71.5 87.1875,72.5 C88.7291679,73.5 90.1041679,74.7708321 91.3125,76.3125 C92.5208321,77.8541679 93.5,79.7708321 94.25,82.0625 C95,84.354166 95.375,87.125 95.375,90.375 C95.375,94.5416679 94.7083321,98.0416679 93.375,100.875 C92.0416679,103.708332 90.25,106.041666 88,107.875 C85.75,109.708334 83.1875,111.020834 80.3125,111.8125 C77.4375,112.604166 74.5,113 71.5,113 L46.25,113 C45.4166679,113 45,112.583334 45,111.75 L45,29.25 C45,28.4166641 45.4166679,28 46.25,28 L68.75,28 Z M63.75,66.375 C66.6666679,66.375 69.375,66.1458321 71.875,65.6875 C74.375,65.2291679 76.5625,64.3958321 78.4375,63.1875 C80.3125,61.9791679 81.7708321,60.2708321 82.8125,58.0625 C83.8541679,55.8541679 84.375,53 84.375,49.5 C84.375,44.0833359 82.9375,40.3541641 80.0625,38.3125 C77.1875,36.2708359 72.75,35.25 66.75,35.25 L55.125,35.25 C54.458334,35.25 54.125,35.5416641 54.125,36.125 L54.125,65.375 C54.125,66.0416679 54.5,66.375 55.25,66.375 L63.75,66.375 Z M66.875,105.75 C70.0416679,105.75 72.8125,105.520834 75.1875,105.0625 C77.5625,104.604168 79.5625,103.75 81.1875,102.5 C82.8125,101.25 84.0208321,99.5833321 84.8125,97.5 C85.6041679,95.416666 86,92.75 86,89.5 C86,86.166666 85.4583321,83.416666 84.375,81.25 C83.2915726,79.0833321 81.8332405,77.3958321 80,76.1875 C78.1666679,74.9791679 76.0416679,74.1458321 73.625,73.6875 C71.2083321,73.2291679 68.625,73 65.875,73 L55.25,73 C54.5,73 54.125,73.375 54.125,74.125 L54.125,104.75 C54.125,105.416666 54.458334,105.75 55.125,105.75 L66.875,105.75 Z" id="Combined-Shape" fill="#FFFFFF"></path>
        </g>
    </g>
</svg>