<?xml version="1.0" encoding="UTF-8" standalone="no"?>
<svg width="140px" height="140px" viewBox="0 0 140 140" version="1.1" xmlns="http://www.w3.org/2000/svg" xmlns:xlink="http://www.w3.org/1999/xlink">
    <!-- Generator: Sketch 48.2 (47327) - http://www.bohemiancoding.com/sketch -->
    <title>uxb_umpire</title>
    <desc>Created with Sketch.</desc>
    <defs></defs>
    <g id="artwork-icons" stroke="none" stroke-width="1" fill="none" fill-rule="evenodd">
        <g id="uxb_umpire">
            <g id="background-grey"></g>
            <path d="M50.5062948,52.5 L50,52.5 C46.9624339,52.5 44.5,54.9624339 44.5,58 C44.5,61.0375661 46.9624339,63.5 50,63.5 L50.5,63.5 L50.5,53 C50.5,52.8330819 50.5021007,52.6664062 50.5062949,52.5 Z M89.4937051,52.5 C89.4978993,52.6664062 89.5,52.8330819 89.5,53 L89.5,63.5 L91,63.5 C94.0375661,63.5 96.5,61.0375661 96.5,58 C96.5,54.9624339 94.0375661,52.5 91,52.5 L89.4937051,52.5 Z" id="Combined-Shape" stroke="#FFFFFF" stroke-width="3"></path>
            <path d="M67,120 L31,120 L31,117.5 C31,104.916728 36.8839082,93.7077156 46.0505106,86.4741779 C46.3495658,83.3176611 47.9667096,80.6062126 50.6387277,79.4899057 C51.7723537,79.0163031 53.8535899,77.9250357 56.7585748,76.2738791 L58,75.5682688 L58,79.5 C58,85.8512746 63.1487254,91 69.5,91 C75.8512746,91 81,85.8512746 81,79.5 L81,76.4414166 L81.4684972,76.2026906 L81.4684972,75 L83.7097139,76.2738791 C86.6146988,77.9250357 88.6959351,79.0163031 89.8295611,79.4899057 C92.3731162,80.5525438 93.9607895,83.060631 94.3655344,86.0221234 C103.865452,93.2358285 110,104.651514 110,117.5 L110,120 L72,120 L72,106.854102 L72.7328189,106.854102 L74.7308108,100.145898 L69.5,96 L64.2691892,100.145898 L66.2671811,106.854102 L67,106.854102 L67,120 Z M56.0018304,80.2269535 L56.0018304,80 C54.1383301,81.0216241 52.7311817,81.7326763 51.7972303,82.1228594 C49.3650114,83.1389838 48.2547525,86.8425151 49.5400851,90.5181658 C50.4029387,92.9856581 52.1427184,97.3922131 54.7702927,103.763536 L55.0176234,104.363262 L67.6208725,94.8088048 L66.6671927,93.0177662 C60.5552925,91.9105633 56.0018304,86.561305 56.0018304,80.2269535 Z M83.6190422,80.2269535 C83.6190422,86.561305 79.06558,91.9105633 72.9536799,93.0177662 L72,94.8088048 L84.6032491,104.363262 L84.8505799,103.763536 C87.4781542,97.3922131 89.2179338,92.9856581 90.0807874,90.5181658 C91.3661201,86.8425151 90.2558612,83.1389838 87.8236422,82.1228594 C86.8896908,81.7326763 85.4825424,81.0216241 83.6190422,80 L83.6190422,80.2269535 Z" id="Combined-Shape" fill="#FFFFFF"></path>
            <rect id="Rectangle-3-Copy-4" stroke="#FFFFFF" stroke-width="3" x="51.5" y="32.5" width="38" height="46" rx="18"></rect>
            <path d="M92,36 L95.5,36 C97.9852814,36 100,38.0147186 100,40.5 L100,41.5 C100,43.9852814 97.9852814,46 95.5,46 L45.5,46 C43.0147186,46 41,43.9852814 41,41.5 L41,40.5 C41,38.0147186 43.0147186,36 45.5,36 L50,36 L50,27 C50,23.1340068 53.1340068,20 57,20 L85,20 C88.8659932,20 92,23.1340068 92,27 L92,36 Z" id="Combined-Shape" fill="#FFFFFF"></path>
            <path d="M106.421328,64.6805434 C104.91395,68.1096894 104.564869,72.9372119 105.556607,77.7005456 C106.524237,82.3480863 108.596837,86.2916322 111.587359,88.9533614 C111.229014,88.9842401 110.866347,89 110.5,89 C103.596441,89 98,83.4035594 98,76.5 C98,71.0245957 101.52045,66.3714366 106.421328,64.6805434 Z M109.003296,64.0886813 C109.494032,64.0301251 109.993498,64 110.5,64 C117.403559,64 123,69.5964406 123,76.5 C123,82.1209125 119.289953,86.875297 114.185066,88.4479462 C110.855049,86.1556569 108.533504,82.1866022 107.514619,77.2928826 C106.44094,72.1359849 107.097058,66.9476188 109.003296,64.0886813 Z" id="Combined-Shape" fill="#FFFFFF" transform="translate(110.500000, 76.500000) rotate(-14.000000) translate(-110.500000, -76.500000) "></path>
        </g>
    </g>
</svg>