<?xml version="1.0" encoding="UTF-8" standalone="no"?>
<svg width="140px" height="140px" viewBox="0 0 140 140" version="1.1" xmlns="http://www.w3.org/2000/svg" xmlns:xlink="http://www.w3.org/1999/xlink">
    <!-- Generator: Sketch 48.2 (47327) - http://www.bohemiancoding.com/sketch -->
    <title>uxb_unlock 2</title>
    <desc>Created with Sketch.</desc>
    <defs></defs>
    <g id="artwork-icons" stroke="none" stroke-width="1" fill="none" fill-rule="evenodd">
        <g id="uxb_unlock-2">
            <g id="background-grey"></g>
            <path d="M104,102 L36,102 L36,76.1875 C36,73.047526 38.5381944,70.5 41.6666667,70.5 L43.5555556,70.5 L43.5555556,51.5416667 C43.5555556,36.9082031 55.4201389,25 70,25 C84.5798611,25 96.4444444,36.9082031 96.4444444,51.5416667 C96.4444444,53.6152344 94.7326389,55.3333333 92.6666667,55.3333333 L88.8888889,55.3333333 C86.8229167,55.3333333 85.1111111,53.6152344 85.1111111,51.5416667 C85.1111111,43.188151 78.3229167,36.375 70,36.375 C61.6770833,36.375 54.8888889,43.188151 54.8888889,51.5416667 L54.8888889,70.5 L98.3333333,70.5 C101.461806,70.5 104,73.047526 104,76.1875 L104,102 Z M104,108 L104,110.3125 C104,113.452474 101.461806,116 98.3333333,116 L41.6666667,116 C38.5381944,116 36,113.452474 36,110.3125 L36,108 L104,108 Z" id="Combined-Shape" fill="#FFFFFF"></path>
        </g>
    </g>
</svg>