<?xml version="1.0" encoding="UTF-8" standalone="no"?>
<svg width="140px" height="140px" viewBox="0 0 140 140" version="1.1" xmlns="http://www.w3.org/2000/svg" xmlns:xlink="http://www.w3.org/1999/xlink">
    <!-- Generator: Sketch 48.2 (47327) - http://www.bohemiancoding.com/sketch -->
    <title>uxb_underwear</title>
    <desc>Created with Sketch.</desc>
    <defs></defs>
    <g id="artwork-icons" stroke="none" stroke-width="1" fill="none" fill-rule="evenodd">
        <g id="uxb_underwear">
            <g id="background-grey"></g>
            <path d="M60.1156942,105 C60.0672451,97.7118458 57.2587336,90.8617983 52.4943043,84.8367551 C58.2535031,77.6465096 61.050921,67.3425975 60.9841667,54 L78.1931245,54 C78.1216177,68.2925068 81.3366224,79.0982557 87.9581145,86.3250839 C83.8097337,91.9065477 81.277719,98.2062457 80.9549401,104.973308 C80.7976148,104.980091 80.6504325,104.988988 80.5133932,105 L60.1156942,105 Z M55.0651846,104.451981 C44.9092944,102.438093 25.1263338,88.9983297 23.2504821,72.515465 C27.693885,72.7831863 36.4261904,76.503543 42.6730002,81.8557176 C50.3186266,88.4063778 54.9935563,96.1705144 55.0651846,104.451981 Z M23.0564784,67.5038673 C23.041151,67.1771924 23.0223249,66.8747946 23.0000001,66.5966741 L23,54 L55.9841806,54 C56.0477628,65.8547031 53.7297466,74.8416449 49.1181165,81.028413 C48.1106795,80.0081022 47.0451186,79.0174588 45.9261743,78.0587638 C38.7434858,71.9047421 28.7643782,67.649662 23.0564784,67.5038673 Z M85.8807234,104.262211 C86.2240989,96.7397953 90.6716952,89.1939432 97.8644581,82.8557176 C104.004046,77.4455441 111.468728,73.7027466 115.683018,73.5079802 C113.305533,88.6780711 96.1431638,101.236476 85.8807234,104.262211 Z M115.975722,68.5000935 C110.476907,68.523158 101.789283,72.8129568 94.7013986,79.0587638 C93.4651688,80.1481232 92.2962859,81.2793606 91.2014163,82.4496553 C85.8307997,76.2511801 83.1244782,66.796297 83.1931106,54 L116,54 L116,67.7370718 C115.990097,67.9790402 115.982004,68.2333808 115.975722,68.5000935 Z M23,49 L23,40 L116,40 L116,49 L23,49 Z" id="Combined-Shape" fill="#FFFFFF"></path>
        </g>
    </g>
</svg>