<?xml version="1.0" encoding="UTF-8" standalone="no"?>
<svg width="140px" height="140px" viewBox="0 0 140 140" version="1.1" xmlns="http://www.w3.org/2000/svg" xmlns:xlink="http://www.w3.org/1999/xlink">
    <!-- Generator: Sketch 48.2 (47327) - http://www.bohemiancoding.com/sketch -->
    <title>uxb_urchin</title>
    <desc>Created with Sketch.</desc>
    <defs></defs>
    <g id="artwork-icons" stroke="none" stroke-width="1" fill="none" fill-rule="evenodd">
        <g id="uxb_urchin">
            <g id="background-grey"></g>
            <path d="M86.3102601,58.5474627 L122.329354,30.5786937 L90.15518,60.8809923 L133.154996,60.7788007 L90.4343991,69.7532824 C90.4383261,69.9104327 90.4403013,70.0680676 90.4403013,70.2261639 C90.4403013,70.6249047 90.4277369,71.0207108 90.4029824,71.4132081 L135.823305,77.1275473 L91.7647532,75.8074965 L132.977605,88.7642296 L90.0561662,77.1494297 L119.795085,115.44818 L87.1489974,80.7854333 C86.765819,81.3389837 86.3533412,81.8707078 85.9138067,82.3783631 L107.960836,120.356212 L78.5672805,87.5549297 C78.0356267,87.7606717 77.4921392,87.9426519 76.9381208,88.0995674 L91.3704807,124.649181 L75.3699834,88.4705441 C75.1456781,88.5133672 74.9199414,88.5521563 74.6928517,88.586833 L69.3568434,131 L70.6224192,88.7596261 C69.1503201,88.6623237 67.7250953,88.3935182 66.3665413,87.973006 L46.7202803,122.188862 L59.2693583,83.8768206 C59.0015537,83.629573 58.7410416,83.3745454 58.4881803,83.1120954 L57.9137943,83.5581051 L36.4309334,120.098142 L54.5991765,86.1319005 L24.0837172,109.827106 L55.9529012,79.8120532 C55.7172642,79.4217246 55.4955828,79.0220238 55.2885482,78.6136417 L12.7654357,85.0048808 L54.5606625,76.9881077 C54.4148076,76.6151166 54.2806639,76.2362567 54.1586833,75.8519802 L13.7943704,75.9479084 L53.4739355,67.6122681 C53.5341498,67.1847325 53.6089196,66.7618712 53.6977276,66.3442015 L6.59182756,60.4177996 L51.6900738,61.7690009 L22.0258478,33.6654978 L54.2828603,61.8466841 L55.2492589,61.8756387 L33.3441294,33.6654978 L57.1284201,58.9190244 C57.6881405,58.1905897 58.3006541,57.5048346 58.9602381,56.8674825 L39.5177375,23.3761509 L65.7721933,52.6744043 C66.1276786,52.551002 66.4880713,52.4380945 66.8530007,52.3360529 L71.6615055,14.1157387 L70.5354731,51.6986519 C70.9748952,51.6675532 71.4185393,51.6517395 71.8658769,51.6517395 C72.193795,51.6517395 72.5197284,51.660237 72.8434688,51.6770238 L76.0886885,10 L74.5490732,51.1648413 L92.2194618,21.093062 L81.6648385,54.4437815 C82.0539336,54.6858751 82.4334209,54.941957 82.8025973,55.2113238 L123.062936,27.4918896 L84.3750167,56.4953486 C85.0705021,57.1293185 85.7176427,57.8154158 86.3102606,58.5474623 Z" id="Combined-Shape" fill="#FFFFFF"></path>
        </g>
    </g>
</svg>