<?xml version="1.0" encoding="UTF-8" standalone="no"?>
<svg width="140px" height="140px" viewBox="0 0 140 140" version="1.1" xmlns="http://www.w3.org/2000/svg" xmlns:xlink="http://www.w3.org/1999/xlink">
    <!-- Generator: Sketch 48.2 (47327) - http://www.bohemiancoding.com/sketch -->
    <title>uxb_u5 copy</title>
    <desc>Created with Sketch.</desc>
    <defs></defs>
    <g id="artwork-icons" stroke="none" stroke-width="1" fill="none" fill-rule="evenodd">
        <g id="uxb_u5-copy">
            <g id="background-grey"></g>
            <path d="M39.475,81.5 L39.475,41.135 C39.475,39.41 38.555,38.605 36.945,38.605 L32,38.605 L32,28.715 L43.615,28.715 C48.79,28.715 50.975,30.9 50.975,36.075 L50.975,81.04 C50.975,93.23 58.68,100.475 70.41,100.475 C82.14,100.475 89.845,93.23 89.845,80.925 L89.845,36.075 C89.845,30.9 92.145,28.715 97.32,28.715 L108.82,28.715 L108.82,38.605 L103.875,38.605 C102.265,38.605 101.345,39.41 101.345,41.135 L101.345,81.5 C101.345,99.21 89.04,111.285 70.525,111.285 C51.895,111.285 39.475,99.21 39.475,81.5 Z" id="Path" fill="#FFFFFF"></path>
        </g>
    </g>
</svg>