<?xml version="1.0" encoding="UTF-8" standalone="no"?>
<svg width="140px" height="140px" viewBox="0 0 140 140" version="1.1" xmlns="http://www.w3.org/2000/svg" xmlns:xlink="http://www.w3.org/1999/xlink">
    <!-- Generator: Sketch 48.2 (47327) - http://www.bohemiancoding.com/sketch -->
    <title>uxb_ukulele</title>
    <desc>Created with Sketch.</desc>
    <defs></defs>
    <g id="artwork-icons" stroke="none" stroke-width="1" fill="none" fill-rule="evenodd">
        <g id="uxb_ukulele">
            <g id="background-grey"></g>
            <path d="M72.0749826,63.4100903 L98.9116238,36.5734491 L97.767767,35.4295922 C96.7914562,34.4532815 96.7914562,32.8703691 97.767767,31.8940583 L98.9466454,30.7151799 C99.9229561,29.7388692 101.505869,29.7388692 102.482179,30.7151799 L103.626036,31.8590367 L105.911624,29.5734491 L104.767767,28.4295922 C103.791456,27.4532815 103.791456,25.8703691 104.767767,24.8940583 L105.946645,23.7151799 C106.922956,22.7388692 108.505869,22.7388692 109.482179,23.7151799 L117.681749,31.9147492 C118.658059,32.8910599 118.658059,34.4739724 117.681749,35.4502831 L116.50287,36.6291615 C115.526559,37.6054723 113.943647,37.6054723 112.967336,36.6291615 L111.568478,35.2303033 L109.28289,37.515891 L110.681749,38.9147492 C111.658059,39.8910599 111.658059,41.4739724 110.681749,42.4502831 L109.50287,43.6291615 C108.526559,44.6054723 106.943647,44.6054723 105.967336,43.6291615 L104.568478,42.2303033 L77.6546084,69.1441729 C80.172884,72.0487455 82,74.722049 82,76 C82.9853106,81.4883886 77.0105444,89.0303814 69.9998114,92.3464591 C69.9516654,98.2673605 60.6924994,118.086589 47.8977865,118.086589 C38.5507812,118.824219 22.1113281,96.5833333 22.9433594,90.6979167 C22.9433594,78.1120459 41.2562927,70.0134883 47.477565,70.0000168 C50.4069261,63.6915685 57.2472139,57.2598616 64,58 C65.5249925,58 68.7612892,60.3614849 72.0749826,63.4100903 Z M46.5,102 C51.1944204,102 55,98.1944204 55,93.5 C55,88.8055796 51.1944204,85 46.5,85 C41.8055796,85 38,88.8055796 38,93.5 C38,98.1944204 41.8055796,102 46.5,102 Z M63.7281024,73.7281024 C63.0377465,73.0377465 61.9184584,73.0377465 61.2281024,73.7281024 C60.5377465,74.4184584 60.5377465,75.5377465 61.2281024,76.2281024 L65.5138167,80.5138167 C66.2041727,81.2041727 67.3234608,81.2041727 68.0138167,80.5138167 C68.7041727,79.8234608 68.7041727,78.7041727 68.0138167,78.0138167 L63.7281024,73.7281024 Z" id="Combined-Shape" fill="#FFFFFF"></path>
        </g>
    </g>
</svg>