<?xml version="1.0" encoding="UTF-8" standalone="no"?>
<svg width="140px" height="140px" viewBox="0 0 140 140" version="1.1" xmlns="http://www.w3.org/2000/svg" xmlns:xlink="http://www.w3.org/1999/xlink">
    <!-- Generator: Sketch 48.2 (47327) - http://www.bohemiancoding.com/sketch -->
    <title>uxb_upload</title>
    <desc>Created with Sketch.</desc>
    <defs></defs>
    <g id="artwork-icons" stroke="none" stroke-width="1" fill="none" fill-rule="evenodd">
        <g id="uxb_upload">
            <g id="background-grey"></g>
            <path d="M100.307692,97.1384615 C100.307692,95.2706731 98.7600962,93.7230769 96.8923077,93.7230769 C95.0245192,93.7230769 93.4769231,95.2706731 93.4769231,97.1384615 C93.4769231,99.00625 95.0245192,100.553846 96.8923077,100.553846 C98.7600962,100.553846 100.307692,99.00625 100.307692,97.1384615 Z M109.969231,97.1384615 C109.969231,95.2706731 108.421635,93.7230769 106.553846,93.7230769 C104.686058,93.7230769 103.138462,95.2706731 103.138462,97.1384615 C103.138462,99.00625 104.686058,100.553846 106.553846,100.553846 C108.421635,100.553846 109.969231,99.00625 109.969231,97.1384615 Z M114.8,90.1846154 L114.8,103.261538 C114.8,106.089904 112.505288,108.384615 109.676923,108.384615 L31.1230769,108.384615 C28.2947115,108.384615 26,106.089904 26,103.261538 L26,90.1846154 C26,87.35625 28.2947115,85.0615385 31.1230769,85.0615385 L53.9100962,85.0615385 C55.3509615,89.0105769 59.1399038,91.8923077 63.5692308,91.8923077 L77.2307692,91.8923077 C81.6600962,91.8923077 85.4490385,89.0105769 86.8899038,85.0615385 L109.676923,85.0615385 C112.505288,85.0615385 114.8,87.35625 114.8,90.1846154 Z M94.4903161,55.6038462 C94.0242851,56.8846154 92.9524138,57.7384615 91.7407331,57.7384615 L79.8103391,57.7384615 L79.8103391,81.6461538 C79.8103391,83.5139423 78.4588491,85.0615385 76.8277406,85.0615385 L64.8973465,85.0615385 C63.266238,85.0615385 61.914748,83.5139423 61.914748,81.6461538 L61.914748,57.7384615 L49.984354,57.7384615 C48.7726733,57.7384615 47.700802,56.8846154 47.234771,55.6038462 C46.76874,54.3764423 47.0017555,52.8822115 47.8872144,51.9216346 L68.765404,28.0139423 C69.3246412,27.3201923 70.1168939,27 70.8625436,27 C71.6081932,27 72.4004459,27.3201923 72.9596831,28.0139423 L93.8378727,51.9216346 C94.7233316,52.8822115 94.9563472,54.3764423 94.4903161,55.6038462 Z" id="" fill="#FFFFFF"></path>
        </g>
    </g>
</svg>