<?xml version="1.0" encoding="UTF-8" standalone="no"?>
<svg width="140px" height="140px" viewBox="0 0 140 140" version="1.1" xmlns="http://www.w3.org/2000/svg" xmlns:xlink="http://www.w3.org/1999/xlink">
    <!-- Generator: Sketch 48.2 (47327) - http://www.bohemiancoding.com/sketch -->
    <title>uxb_unisex 2</title>
    <desc>Created with Sketch.</desc>
    <defs></defs>
    <g id="artwork-icons" stroke="none" stroke-width="1" fill="none" fill-rule="evenodd">
        <g id="uxb_unisex-2">
            <g id="background-grey"></g>
            <path d="M110.821142,19 L92.2195148,19 C91.4146367,19 90.7886204,19.6260163 90.7886204,20.4308944 L90.7886204,23.2926832 C90.7886204,24.0975613 91.4146367,24.7235775 92.2195148,24.7235775 L103.890247,24.7235775 L86.8089454,41.8048793 C82.4268313,38.2723588 76.8374001,36.1707326 70.756099,36.1707326 C56.536586,36.1707326 45,47.7073186 45,61.9268316 C45,76.1463446 56.536586,87.6829306 70.756099,87.6829306 C84.9756119,87.6829306 96.5121979,76.1463446 96.5121979,61.9268316 C96.5121979,55.8455305 94.4105718,50.2560993 90.8780513,45.8739852 L107.959353,28.747968 L107.959353,40.4634158 C107.959353,41.2682939 108.585369,41.8943102 109.390247,41.8943102 L112.252036,41.8943102 C113.056914,41.8943102 113.682931,41.2682939 113.682931,40.4634158 L113.682931,21.8617888 C113.682931,20.296748 112.386183,19 110.821142,19 Z M70.756099,81.959353 C59.7113829,81.959353 50.7235775,72.9715477 50.7235775,61.9268316 C50.7235775,50.8821156 59.7113829,41.8943102 70.756099,41.8943102 C81.800815,41.8943102 90.7886204,50.8821156 90.7886204,61.9268316 C90.7886204,72.9715477 81.800815,81.959353 70.756099,81.959353 Z" id="" fill="#FFFFFF"></path>
            <path d="M82.1138232,39 C75.6188565,39 63.601627,39 59.3983748,39 C50.9024393,43.2032523 45,51.9674804 45,62.073172 C45,75.3089451 55.0162607,86.2195148 67.8943102,87.6504092 L67.8943102,107.264615 L60.601627,107.264615 C59.7967489,107.264615 59.1707326,107.890631 59.1707326,108.695509 L59.1707326,111.557298 C59.1707326,112.362176 59.7967489,112.988192 60.601627,112.988192 L67.8943102,112.988192 L67.8943102,120.280875 C67.8943102,121.085753 68.5203265,121.71177 69.3252046,121.71177 L72.1869934,121.71177 C72.9918715,121.71177 73.6178877,121.085753 73.6178877,120.280875 L73.6178877,112.988192 L80.9105709,112.988192 C81.715449,112.988192 82.3414653,112.362176 82.3414653,111.557298 L82.3414653,108.695509 C82.3414653,107.890631 81.715449,107.264615 80.9105709,107.264615 L73.6178877,107.264615 L73.6178877,87.6504092 C86.4959372,86.2195148 96.5121979,75.3089451 96.5121979,62.073172 C96.5121979,51.9674804 90.6097586,43.2032523 82.1138232,39 Z M70.8414635,79 C61.556103,79 54,71.443897 54,62.1585365 C54,52.8731761 61.556103,45.317073 70.8414635,45.317073 C80.1268239,45.317073 87.682927,52.8731761 87.682927,62.1585365 C87.682927,71.443897 80.1268239,79 70.8414635,79 Z" id="" fill="#FFFFFF"></path>
        </g>
    </g>
</svg>