<?xml version="1.0" encoding="UTF-8" standalone="no"?>
<svg width="140px" height="140px" viewBox="0 0 140 140" version="1.1" xmlns="http://www.w3.org/2000/svg" xmlns:xlink="http://www.w3.org/1999/xlink">
    <!-- Generator: Sketch 48.2 (47327) - http://www.bohemiancoding.com/sketch -->
    <title>uxb_users</title>
    <desc>Created with Sketch.</desc>
    <defs></defs>
    <g id="artwork-icons" stroke="none" stroke-width="1" fill="none" fill-rule="evenodd">
        <g id="uxb_users">
            <g id="background-grey"></g>
            <path d="M51.789917,70.5 C46.7408098,70.6456473 42.1771937,72.8303571 38.9244036,76.7142857 L32.4188232,76.7142857 C27.5639125,76.7142857 23.0002964,74.3839286 23.0002964,68.9949777 C23.0002964,65.0625 22.8546491,51.8571429 29.0203857,51.8571429 C30.039917,51.8571429 35.0890241,55.983817 41.6431536,55.983817 C43.8764125,55.983817 46.0125732,55.5954241 48.1001848,54.8671875 C47.9545375,55.9352679 47.8574393,57.0033482 47.8574393,58.0714286 C47.8574393,62.4893973 49.2653634,66.858817 51.789917,70.5 Z M103.786011,101.425781 C103.786011,109.290737 98.5912562,114 90.8233991,114 L48.3914795,114 C40.6236223,114 35.4288678,109.290737 35.4288678,101.425781 C35.4288678,90.453683 38.0019705,73.6071429 52.2268589,73.6071429 C53.8775286,73.6071429 59.8976178,80.3554687 69.6074393,80.3554687 C79.3172607,80.3554687 85.33735,73.6071429 86.9880196,73.6071429 C101.212908,73.6071429 103.786011,90.453683 103.786011,101.425781 Z M54.071725,39.4285714 C54.071725,46.2739955 48.4885777,51.8571429 41.6431536,51.8571429 C34.7977295,51.8571429 29.2145821,46.2739955 29.2145821,39.4285714 C29.2145821,32.5831473 34.7977295,27 41.6431536,27 C48.4885777,27 54.071725,32.5831473 54.071725,39.4285714 Z M88.2502964,58.0714286 C88.2502964,68.3638393 79.89985,76.7142857 69.6074393,76.7142857 C59.3150286,76.7142857 50.9645821,68.3638393 50.9645821,58.0714286 C50.9645821,47.7790179 59.3150286,39.4285714 69.6074393,39.4285714 C79.89985,39.4285714 88.2502964,47.7790179 88.2502964,58.0714286 Z M116.214582,68.9949777 C116.214582,74.3839286 111.650966,76.7142857 106.796055,76.7142857 L100.290475,76.7142857 C97.0376848,72.8303571 92.4740687,70.6456473 87.4249616,70.5 C89.9495152,66.858817 91.3574393,62.4893973 91.3574393,58.0714286 C91.3574393,57.0033482 91.2603411,55.9352679 91.1146937,54.8671875 C93.2023053,55.5954241 95.3384661,55.983817 97.571725,55.983817 C104.125854,55.983817 109.174962,51.8571429 110.194493,51.8571429 C116.360229,51.8571429 116.214582,65.0625 116.214582,68.9949777 Z M110.000296,39.4285714 C110.000296,46.2739955 104.417149,51.8571429 97.571725,51.8571429 C90.7263009,51.8571429 85.1431536,46.2739955 85.1431536,39.4285714 C85.1431536,32.5831473 90.7263009,27 97.571725,27 C104.417149,27 110.000296,32.5831473 110.000296,39.4285714 Z" id="" fill="#FFFFFF"></path>
        </g>
    </g>
</svg>