<?xml version="1.0" encoding="UTF-8" standalone="no"?>
<svg width="140px" height="140px" viewBox="0 0 140 140" version="1.1" xmlns="http://www.w3.org/2000/svg" xmlns:xlink="http://www.w3.org/1999/xlink">
    <!-- Generator: Sketch 48.2 (47327) - http://www.bohemiancoding.com/sketch -->
    <title>uxb_undo</title>
    <desc>Created with Sketch.</desc>
    <defs></defs>
    <g id="artwork-icons" stroke="none" stroke-width="1" fill="none" fill-rule="evenodd">
        <g id="uxb_undo">
            <g id="background-grey"></g>
            <path d="M113,34.1666667 C113,32.7109375 112.104167,31.4231771 110.816406,30.8632812 C109.472656,30.3033854 107.904948,30.5833333 106.897135,31.6471354 L99.6184896,38.8697917 C91.7239583,31.4231771 81.0299479,27 70,27 C46.3164062,27 27,46.3164062 27,70 C27,93.6835938 46.3164062,113 70,113 C82.8216146,113 94.9153646,107.345052 103.089844,97.4908854 C103.64974,96.7630208 103.64974,95.6992188 102.977865,95.0833333 L95.3072917,87.3567708 C94.9153646,87.0208333 94.4114583,86.8528646 93.9075521,86.8528646 C93.4036458,86.9088542 92.8997396,87.1328125 92.6197917,87.5247396 C87.1328125,94.6354167 78.9023438,98.6666667 70,98.6666667 C54.2109375,98.6666667 41.3333333,85.7890625 41.3333333,70 C41.3333333,54.2109375 54.2109375,41.3333333 70,41.3333333 C77.3346354,41.3333333 84.2773438,44.1328125 89.5403646,49.0039062 L81.8138021,56.7304688 C80.75,57.7382812 80.4700521,59.3059896 81.0299479,60.59375 C81.5898438,61.9375 82.8776042,62.8333333 84.3333333,62.8333333 L109.416667,62.8333333 C111.376302,62.8333333 113,61.2096354 113,59.25 L113,34.1666667 Z" id="-copy" fill="#FFFFFF" transform="translate(70.000000, 70.000000) scale(-1, 1) translate(-70.000000, -70.000000) "></path>
        </g>
    </g>
</svg>