<?xml version="1.0" encoding="UTF-8" standalone="no"?>
<svg width="140px" height="140px" viewBox="0 0 140 140" version="1.1" xmlns="http://www.w3.org/2000/svg" xmlns:xlink="http://www.w3.org/1999/xlink">
    <!-- Generator: Sketch 48.2 (47327) - http://www.bohemiancoding.com/sketch -->
    <title>uxb_union 2</title>
    <desc>Created with Sketch.</desc>
    <defs></defs>
    <g id="artwork-icons" stroke="none" stroke-width="1" fill="none" fill-rule="evenodd">
        <g id="uxb_union-2">
            <g id="background-grey"></g>
            <path d="M38.1666797,75.9576545 C39.7053328,77.9463829 40.2791797,79.1923124 40.5493228,80.7760929 C40.5720574,80.9093805 40.591741,81.0349365 40.6216433,81.2334229 C40.8219857,82.5632662 40.9707285,83.1654037 41.4711786,84.2982378 C42.6419345,86.9483965 62.3991388,100.557224 66.8941065,102.670176 C70.6088976,104.416389 77.6109401,105.005864 80.8187199,102.756422 C81.591553,102.214476 82.8940638,100.99949 84.4798142,99.3365763 L84.8702541,98.9271373 L85.4223058,99.0509218 C88.3742798,99.7128317 90.8230423,96.5565867 89.4010335,95.279649 L88.6845264,94.6362389 L89.3004747,93.8959911 C89.4681292,93.6945036 89.6353323,93.4922826 89.8019135,93.2895255 L90.3173917,92.6621029 L91.0372664,93.0378118 C92.7909618,93.9478532 94.1527845,93.4905047 94.9822228,92.0863063 C95.7792039,90.7370564 95.74337,88.9955623 94.9024803,88.0986133 C94.8884839,88.0837286 94.6858426,87.8712311 94.2945566,87.4611209 L94.7637411,86.790109 C95.0819761,86.3349801 95.3867414,85.8889036 95.6770414,85.4531365 L96.1589461,84.729753 L96.9423933,85.1062187 C100.392994,86.7643174 101.865728,86.2970684 102.112242,84.4583214 C102.37106,82.5277954 101.236224,79.5608631 99.5744281,77.8863342 L99.3854711,77.6959295 L99.3171781,77.4365172 C99.2947832,77.3514498 99.2668098,77.2996773 99.2334979,77.2652821 C96.4812055,74.4234914 85.0460518,65.307448 80.8241608,62.3884271 C76.233681,59.2145636 68.2594434,54.7243571 63.755489,53.1173448 C62.7689639,52.7653523 61.7002813,52.4547553 60.5365505,52.1749217 C59.2540094,51.8665187 57.9121839,51.606539 56.2931698,51.338503 C55.6443124,51.2310813 53.110019,50.836164 52.527935,50.7377078 C51.0843492,50.4935336 50.1676349,50.2848434 49.4967632,50.0163093 C48.0669702,49.443997 46.4561238,48.2436813 44.6343272,46.4161461 L32.4952272,69.6602853 C34.3476804,71.3648807 36.2373533,73.4639762 38.1666797,75.9576545 Z M81.9670134,104.393927 C78.0400685,107.147681 70.3387203,106.499333 66.0432798,104.480174 C61.1005456,102.156741 41.0828041,88.3684541 39.641743,85.1064242 C39.0558037,83.780074 38.8685033,83.0218484 38.6439599,81.5313633 C38.6158465,81.3447511 38.5978208,81.2297704 38.5777965,81.1123732 C38.3650098,79.8648579 37.9297271,78.9197775 36.5848444,77.1814998 C34.5256811,74.5200055 32.5261688,72.3381295 30.5895958,70.6359838 L30,70.1177601 L44.1620732,43 L45.1256841,44.040058 C47.1703625,46.2469489 48.8912948,47.6196833 50.2399869,48.1595329 C50.7374226,48.3586447 51.5544379,48.5446384 52.8614857,48.765718 C53.4275085,48.8614575 55.9571451,49.2556491 56.6198336,49.3653606 C58.2822626,49.6405842 59.6682919,49.9091284 61.0041467,50.2303514 C62.2334421,50.5259507 63.3694918,50.8561271 64.4275895,51.2336567 C69.1267819,52.91033 77.2396172,57.4785793 81.9615725,60.7433452 C86.2819899,63.7304873 97.8093288,72.9200203 100.670153,75.8738722 C100.88605,76.0967892 101.049944,76.3590587 101.162784,76.6524594 C103.14699,78.7674516 104.937462,82.3041693 104.094507,84.724076 C103.112139,87.5441983 100.962439,88.9660772 96.867651,87.2639683 C97.8615482,88.9510502 97.7809809,91.2806177 96.7042451,93.1034784 C95.6211334,94.9371335 93.7958885,95.8412516 91.7515263,95.4198463 C92.4431415,98.1560657 89.2531785,101.534042 85.5589098,101.100374 C84.053456,102.657068 82.8085836,103.803779 81.9670134,104.393927 Z" id="Combined-Shape" fill="#FFFFFF" fill-rule="nonzero"></path>
            <path d="M41.7458385,92.884075 L52.7395633,76.800967 C54.0453724,74.8906527 56.6157309,74.4263894 58.4806196,75.7640059 L58.9935456,76.131909 C60.8584343,77.4695254 61.3116579,80.1024935 60.0058487,82.0128077 L49.012124,98.0959157 C47.7063148,100.00623 45.1359564,100.470493 43.2710677,99.1328768 L42.7581416,98.7649738 C40.8932529,97.4273573 40.4400294,94.7943892 41.7458385,92.884075 Z" id="Rectangle-13" fill="#FFFFFF"></path>
            <rect id="Rectangle-2" fill="#FFFFFF" transform="translate(35.245643, 55.241045) rotate(298.000000) translate(-35.245643, -55.241045) " x="15.245643" y="49.7410455" width="40" height="11" rx="2"></rect>
            <rect id="Rectangle-2-Copy" fill="#FFFFFF" transform="translate(108.980346, 56.317078) rotate(243.000000) translate(-108.980346, -56.317078) " x="88.9803459" y="50.8170782" width="40" height="11" rx="2"></rect>
            <path d="M37.7458385,83.855207 L41.2007008,78.800967 C42.5065099,76.8906527 45.0768684,76.4263894 46.9417571,77.7640059 L47.4546831,78.131909 C49.3195719,79.4695254 49.7727954,82.1024935 48.4669863,84.0128077 L45.012124,89.0670477 C43.7063148,90.977362 41.1359564,91.4416253 39.2710677,90.1040089 L38.7581416,89.7361058 C36.8932529,88.3984893 36.4400294,85.7655213 37.7458385,83.855207 Z" id="Rectangle-13-Copy-3" fill="#FFFFFF"></path>
            <path d="M49.7458385,95.3809047 L56.9778314,84.800967 C58.2836405,82.8906527 60.853999,82.4263894 62.7188877,83.7640059 L63.2318137,84.131909 C65.0967024,85.4695254 65.549926,88.1024935 64.2441169,90.0128077 L57.012124,100.592745 C55.7063148,102.50306 53.1359564,102.967323 51.2710677,101.629707 L50.7581416,101.261803 C48.8932529,99.924187 48.4400294,97.2912189 49.7458385,95.3809047 Z" id="Rectangle-13-Copy" fill="#FFFFFF"></path>
            <path d="M56.7458385,100.767892 L61.5081304,93.800967 C62.8139396,91.8906527 65.384298,91.4263894 67.2491868,92.7640059 L67.7621128,93.131909 C69.6270015,94.4695254 70.080225,97.1024935 68.7744159,99.0128077 L64.012124,105.979733 C62.7063148,107.890047 60.1359564,108.35431 58.2710677,107.016694 L57.7581416,106.648791 C55.8932529,105.311174 55.4400294,102.678206 56.7458385,100.767892 Z" id="Rectangle-13-Copy-2" fill="#FFFFFF"></path>
            <path d="M79.7340245,80.4141402 L97.3444968,79.8977128 L97.4206742,83.361058 L79.7344718,83.1209248 C78.9998819,83.110951 78.4096148,82.5126152 78.4096148,81.7779576 L78.4096148,81.7779576 C78.4096148,81.0399921 78.9963761,80.4357717 79.7340245,80.4141402 Z" id="Rectangle" fill="#FFFFFF" transform="translate(87.915144, 81.629385) rotate(33.000000) translate(-87.915144, -81.629385) "></path>
            <path d="M75.6903206,88.5972208 L91.4853374,88.4712308 L91.6069637,91.1305398 L75.6903266,91.247972 C74.9639597,91.2533311 74.3707785,90.6688388 74.3654194,89.9424718 C74.3653956,89.9392374 74.3653836,89.9360028 74.3653836,89.9327683 L74.3653836,89.9327683 C74.3653836,89.1992992 74.9568748,88.6030711 75.6903206,88.5972208 Z" id="Rectangle-Copy-2" fill="#FFFFFF" transform="translate(82.986174, 89.859620) rotate(33.000000) translate(-82.986174, -89.859620) "></path>
            <path d="M71.255658,95.5242024 L84.9725768,95.2341467 L84.8503083,98.5412347 L71.2556121,98.2322763 C70.5192167,98.2155407 69.930975,97.6137785 69.930975,96.877193 L69.930975,96.877193 C69.930975,96.1409394 70.5195689,95.5397676 71.255658,95.5242024 Z" id="Rectangle-Copy" fill="#FFFFFF" transform="translate(77.451776, 96.887691) rotate(27.000000) translate(-77.451776, -96.887691) "></path>
            <path d="" id="Path-39" stroke="#979797"></path>
            <path d="M52.6719951,61.5759079 C54.319456,58.4987595 59.2388896,50.8390915 59.9674052,49.365947 C60.6959208,47.8928025 64.1920146,46.2175095 66.197874,46.0925095 C68.566038,45.5401413 77.2926005,44.800029 78.7657451,45.050029 C80.8741435,44.8067429 88.4263896,46.9533493 89.8121318,47.2956345 C91.197874,47.6379197 95.5944804,47.5225632 95.8188456,47.5225632 C95.9684225,47.5225632 100.477822,56.190003 109.347044,73.5248826 C106.156614,76.6833298 104.353066,78.3476771 103.936399,78.5179245 C103.519733,78.6881719 102.400185,79.3495896 100.577757,80.5021775 C92.6324443,74.1597296 88.0292542,70.5226853 86.7681865,69.5910447 C84.8765849,68.1935837 75.6759013,61.5265915 73.7027568,60.5480759 C71.7296123,59.5695603 68.5118388,57.9637253 66.197874,58.3732712 C65.5029277,58.510112 63.5056132,61.5473065 62.8049296,62.4026902 C62.104246,63.2580738 61.2628154,64.8527634 58.6964091,65.3205368 C56.1300029,65.7883103 53.9738749,66.9394333 52.6807841,65.7883103 C51.6881083,64.744365 51.8648662,63.1512253 52.6719951,61.5759079 Z" id="Path-38" fill="#FFFFFF"></path>
        </g>
    </g>
</svg>