<?xml version="1.0" encoding="UTF-8" standalone="no"?>
<svg width="140px" height="140px" viewBox="0 0 140 140" version="1.1" xmlns="http://www.w3.org/2000/svg" xmlns:xlink="http://www.w3.org/1999/xlink">
    <!-- Generator: Sketch 48.2 (47327) - http://www.bohemiancoding.com/sketch -->
    <title>uxb_urn</title>
    <desc>Created with Sketch.</desc>
    <defs></defs>
    <g id="artwork-icons" stroke="none" stroke-width="1" fill="none" fill-rule="evenodd">
        <g id="uxb_urn">
            <g id="background-grey"></g>
            <path d="M59.9278933,103.646459 C50.2791979,94.8388257 40,76.9306427 40,63.5 C40,59.5147942 40.9050387,56.2488779 42.4300965,53.577283 C42.2159152,53.0983832 42.0120916,52.6078488 41.8196521,52.1065269 C38.5539531,43.5990901 39.8033146,35.206634 44.6101791,33.3614516 C48.0179375,32.0533357 52.298816,34.3869903 55.6657189,38.8875324 L55.3162039,32.9088633 C51.4099487,31.6454746 49,29.9122854 49,28 C49,27.8668189 49.0105025,27.7451874 49.0312807,27.6344677 C49.0105147,27.5899441 49,27.5451116 49,27.5 C49,26.1192881 58.8497355,25 71,25 C83.1502645,25 93,26.1192881 93,27.5 C93,27.5484289 92.9878821,27.5965362 92.963972,27.6442849 C92.9878717,27.7523664 93,27.8707438 93,28 C93,30.031198 90.2810145,31.8603336 85.9379443,33.1390293 L85.6202703,38.5730393 C88.9489293,34.2790423 93.1088556,32.0841571 96.4363214,33.3614516 C101.243186,35.206634 102.492547,43.5990901 99.2268483,52.1065269 C99.0130412,52.6635134 98.7851816,53.2071837 98.5446771,53.7363762 C100.0858,56.3782492 101,59.5935549 101,63.5 C101,76.7809754 90.4333415,94.4402541 80.5888196,103.348638 C82.7108319,104.585224 84,106.214549 84,108 C84,111.865993 77.9558441,115 70.5,115 C63.0441559,115 57,111.865993 57,108 C57,106.354458 58.0950433,104.841533 59.9278933,103.646459 Z M85.7494752,44.3393146 C89.3498271,45.5369748 92.7800758,47.3029939 95.4722759,49.8700715 C97.4910394,42.8989928 97.284921,37.0671727 94.7439325,36.0917786 C92.4038985,35.1935238 88.7794951,38.6810176 85.7494752,44.3393146 Z M55.192444,44.1453134 C52.1839621,38.6015264 48.6157396,35.2038352 46.302568,36.0917786 C43.7893265,37.0565216 43.560241,42.7722071 45.508887,49.6421152 C48.1934524,47.0582918 51.6121313,45.3096921 55.192444,44.1453134 Z M49.2643149,27.1113099 C49.4557855,26.9719283 49.7485904,26.8363613 50.1338977,26.7056126 C49.747739,26.7551976 49.4553797,26.8834076 49.2643149,27.1113099 Z M92.1433581,26.8068297 C92.2699321,26.8567749 92.3831722,26.9073621 92.4826124,26.9585381 C92.3831153,26.8972 92.2698584,26.8469117 92.1433581,26.8068297 Z" id="Combined-Shape" fill="#FFFFFF"></path>
        </g>
    </g>
</svg>