<?xml version="1.0" encoding="UTF-8" standalone="no"?>
<svg width="140px" height="140px" viewBox="0 0 140 140" version="1.1" xmlns="http://www.w3.org/2000/svg" xmlns:xlink="http://www.w3.org/1999/xlink">
    <!-- Generator: Sketch 48.2 (47327) - http://www.bohemiancoding.com/sketch -->
    <title>uxb_udder</title>
    <desc>Created with Sketch.</desc>
    <defs></defs>
    <g id="artwork-icons" stroke="none" stroke-width="1" fill="none" fill-rule="evenodd">
        <g id="uxb_udder">
            <g id="background-grey"></g>
            <g id="Group" transform="translate(27.000000, 39.000000)" fill="#FFFFFF">
                <path d="M61.9125391,46.6302489 C56.3261781,50.0388433 49.656512,52.1447413 41.7696514,52.1447413 C41.2670525,52.1447413 40.7702149,52.1356095 40.2790792,52.1175801 C41.6604156,44.0522418 41.1553406,36.319596 38.5298785,35.4665317 C35.6410306,34.5278881 30.896599,39.4734282 26.7278706,48.9260996 C5.97087958,39.1791121 0.474292029,10.0397701 0.474292029,0.0136995002 C0.799551606,-0.101023839 86.8244063,0.558320188 86.6504303,0.0136995002 C86.6504303,8.74759317 82.526544,25.5881992 72.1508386,37.7700565 C66.7523637,32.8597613 61.0722901,29.6577163 59.0774344,31.1609479 C56.991738,32.7326329 58.5027209,39.7148876 61.9125391,46.6302489 Z" id="Combined-Shape"></path>
                <path d="M18.5120447,50.9444288 C27.5996045,56.1911339 31.6076,55.5672168 33.4025255,52.4583148 C35.1974509,49.3494127 32.869148,45.2905833 23.7815882,40.0438782 C23.1179083,39.6607024 20.7659986,39.2012415 20.0768698,38.8382153 C11.329975,34.2304382 1.22278266,30.03686 -0.441056326,32.9187137 C-2.11400487,35.8163456 6.52100488,41.8120159 14.9454988,47.1066974 C15.5597398,47.4927396 17.8944857,50.5878809 18.5120447,50.9444288 Z" id="Path" transform="translate(16.656586, 43.407839) rotate(96.000000) translate(-16.656586, -43.407839) "></path>
                <path d="M28.7117056,68.9793209 C28.7354905,68.9139198 28.7583498,68.8475317 28.7802205,68.7802205 C29.2922167,67.2044585 29.0685678,65.7195236 28.2806867,65.4635255 C27.4928057,65.2075274 26.4390471,66.2774075 25.927051,67.8531695 C25.9114923,67.9010541 25.896613,67.9488548 25.8824082,67.9965397 C23.6439112,66.2715742 23.0399024,62.2617509 25.5842802,53.9394662 C25.7927692,53.2575294 28.2833787,50.2863676 28.5213525,49.601029 C31.7852329,40.20141 35.68478,30.4389827 38.8844773,31.4172283 C42.0667516,32.3901472 40.2542781,43.1816427 37.7322213,52.7408794 C37.5335197,53.4940091 37.6148993,55.8889956 37.3908398,56.6218613 C34.6963059,65.4352845 31.7217092,68.9623236 28.7117056,68.9793209 Z" id="Combined-Shape"></path>
                <path d="M56.0086777,52.2035777 C65.0962376,57.4502828 69.1042331,56.8263658 70.8991585,53.7174637 C72.694084,50.6085617 70.3657811,46.5497323 61.2782212,41.3030271 C60.6145413,40.9198513 58.2626317,40.4603904 57.5735028,40.0973642 C48.826608,35.4895871 38.7194157,31.296009 37.0555767,34.1778626 C35.3826282,37.0754945 44.0176379,43.0711648 52.4421319,48.3658464 C53.0563729,48.7518886 55.3911188,51.8470299 56.0086777,52.2035777 Z" id="Path-Copy-16" transform="translate(54.153219, 44.666988) rotate(38.000000) translate(-54.153219, -44.666988) "></path>
                <path d="M80.5427084,58.6789121 C79.6237828,57.3944439 78.3808391,56.7210376 77.7174036,57.1685305 C77.0306064,57.6317811 77.2249248,59.1208382 78.151426,60.4944326 C78.16853,60.5197903 78.1857639,60.5449314 78.2031215,60.5698524 C75.4040523,61.6220633 71.7608717,59.8216458 66.4895243,52.2933815 C66.0805094,51.7092477 65.2725743,47.9173908 64.8790314,47.3079283 C59.481476,38.9489721 54.1893792,29.8657367 56.9301776,27.9466089 C59.6560518,26.0379313 67.0439963,34.1100879 73.0240444,41.9827496 C73.4951857,42.6030015 75.4325631,44.0133744 75.8721244,44.6411329 C80.8696347,51.7783173 81.9898139,56.2038505 80.5427084,58.6789121 Z" id="Combined-Shape"></path>
            </g>
        </g>
    </g>
</svg>