<?xml version="1.0" encoding="UTF-8" standalone="no"?>
<svg width="140px" height="140px" viewBox="0 0 140 140" version="1.1" xmlns="http://www.w3.org/2000/svg" xmlns:xlink="http://www.w3.org/1999/xlink">
    <!-- Generator: Sketch 48.2 (47327) - http://www.bohemiancoding.com/sketch -->
    <title>uxb_union</title>
    <desc>Created with Sketch.</desc>
    <defs></defs>
    <g id="artwork-icons" stroke="none" stroke-width="1" fill="none" fill-rule="evenodd">
        <g id="uxb_union">
            <g id="background-grey"></g>
            <path d="M51.007254,47.1030538 C40.39221,48.1537111 32.1008564,57.1085809 32.1008564,68 C32.1008564,79.5979797 41.5028767,89 53.1008564,89 C55.515402,89 57.834771,88.5925003 59.9939417,87.8425224 C62.6917719,91.2863989 65.5490574,94.0412534 69.1008564,95.7189698 C64.3940826,98.4416914 58.9294507,100 53.1008564,100 C41.0236092,100 30.5090233,93.3094515 25.061335,83.4325909 C25.0428787,83.4630186 25.0244716,83.4934798 25.0061138,83.5239743 C22.3659514,78.7703993 20.9032511,73.2794035 21.0049741,67.4516969 C21.2924937,50.9797103 33.9768177,37.6322778 50.0094792,36.1474023 C51.0267847,36.0498861 52.0579948,36 53.1008564,36 C58.9294507,36 64.3940826,37.5583086 69.1008564,40.2810302 C69.0813029,40.2923414 69.0617625,40.3036725 69.0422351,40.3150238 C78.7542805,45.9524292 85.2051221,56.5437449 84.9952266,68.5686509 C84.8935036,74.3963575 83.2400614,79.8329608 80.4356099,84.4914998 C76.831356,82.6847629 73.9969019,81.1526623 72.0951421,76.9072957 C73.3872102,74.8237621 73.9547623,70.7908523 73.9969019,68.3766745 C74.1993146,56.7804611 64.9628142,47.215785 53.3666009,47.0133723 C52.5697667,46.9994635 51.7825249,47.030123 51.007254,47.1030538 Z" id="Combined-Shape" fill="#FFFFFF"></path>
            <path d="M86.007254,47.1030538 C75.39221,48.1537111 67.1008564,57.1085809 67.1008564,68 C67.1008564,79.5979797 76.5028767,89 88.1008564,89 C90.515402,89 92.834771,88.5925003 94.9939417,87.8425224 C97.6917719,91.2863989 100.549057,94.0412534 104.100856,95.7189698 C99.3940826,98.4416914 93.9294507,100 88.1008564,100 C76.0236092,100 65.5090233,93.3094515 60.061335,83.4325909 C60.0428787,83.4630186 60.0244716,83.4934798 60.0061138,83.5239743 C57.3659514,78.7703993 55.9032511,73.2794035 56.0049741,67.4516969 C56.2924937,50.9797103 68.9768177,37.6322778 85.0094792,36.1474023 C86.0267847,36.0498861 87.0579948,36 88.1008564,36 C93.9294507,36 99.3940826,37.5583086 104.100856,40.2810302 C104.081303,40.2923414 104.061762,40.3036725 104.042235,40.3150238 C113.75428,45.9524292 120.205122,56.5437449 119.995227,68.5686509 C119.893504,74.3963575 118.240061,79.8329608 115.43561,84.4914998 C111.831356,82.6847629 108.996902,81.1526623 107.095142,76.9072957 C108.38721,74.8237621 108.954762,70.7908523 108.996902,68.3766745 C109.199315,56.7804611 99.9628142,47.215785 88.3666009,47.0133723 C87.5697667,46.9994635 86.7825249,47.030123 86.007254,47.1030538 Z" id="Combined-Shape-Copy" fill="#FFFFFF" transform="translate(88.000100, 68.000000) rotate(-180.000000) translate(-88.000100, -68.000000) "></path>
        </g>
    </g>
</svg>