<?xml version="1.0" encoding="UTF-8" standalone="no"?>
<svg width="140px" height="140px" viewBox="0 0 140 140" version="1.1" xmlns="http://www.w3.org/2000/svg" xmlns:xlink="http://www.w3.org/1999/xlink">
    <!-- Generator: Sketch 48.2 (47327) - http://www.bohemiancoding.com/sketch -->
    <title>uxb_uboat</title>
    <desc>Created with Sketch.</desc>
    <defs></defs>
    <g id="artwork-icons" stroke="none" stroke-width="1" fill="none" fill-rule="evenodd">
        <g id="uxb_uboat">
            <g id="background-grey"></g>
            <g id="Group-2" transform="translate(67.000000, 57.000000)" fill="#FFFFFF" fill-rule="nonzero">
                <polygon id="Line-3" points="0 1 0 0 6 0 6 1"></polygon>
                <polygon id="Line-4" points="2 3 1 3 1 0 2 0"></polygon>
                <polygon id="Line-5" points="4 3 3 3 3 0 4 0"></polygon>
            </g>
            <g id="Group-2-Copy" transform="translate(73.000000, 60.000000)" fill="#FFFFFF" fill-rule="nonzero">
                <polygon id="Line-3" points="0 1 0 0 9 0 9 1"></polygon>
                <polygon id="Line-4" points="4 3 3 3 3 0 4 0"></polygon>
                <polygon id="Line-5" points="6 3 5 3 5 0 6 0"></polygon>
            </g>
            <polygon id="Line-6" fill="#FFFFFF" fill-rule="nonzero" points="65 53 64 53 64 44 65 44"></polygon>
            <rect id="Rectangle-5" fill="#FFFFFF" x="65" y="45" width="4" height="3"></rect>
            <path d="M66.2750823,53.999539 L66.2750823,58.9983865 L72.7440483,58.9983865 L72.7440483,61.9976949 L81.706285,61.9976949 L81.706285,65.5981709 L126.672608,65.5981709 C127.419078,68.1336817 127.857421,69.7964457 127.987636,70.5864628 C128.182958,71.7714886 126.009236,72.9565143 125.346209,71.7714886 C124.683182,70.5864628 119.551398,71.6864609 119.551398,75.1151455 C119.551398,78.5438302 118.607595,76.5299759 117.885819,76.9221757 C117.164043,77.3143756 102.36534,80.4021834 101.312431,80.0015574 C100.259523,79.6009314 100.725702,83.7718849 99.0784344,83.976411 C97.9802561,84.1127618 79.1276014,83.658004 42.5204703,82.6121377 L17.5451789,76.9221757 C14.5538002,72.425155 12.8373561,69.8498114 12.3958467,69.196145 C11.6827536,68.1403916 11.9605346,66.7064583 13.016288,65.9933651 C13.3976256,65.7357963 13.8472832,65.5981656 14.3074572,65.5981656 L61.2960619,65.5981709 L61.2960619,53.999539 L59.7985954,53.999539 L59.7985954,52 L66.7692239,52 L66.7692239,53.999539 L66.2750823,53.999539 Z M16.9832163,68.9963119 L16.9832163,69.9963119 L119.551036,69.9963119 L119.551036,68.9963119 L16.9832163,68.9963119 Z" id="Combined-Shape" fill="#FFFFFF"></path>
            <rect id="Rectangle" fill="#FFFFFF" x="118" y="74" width="7" height="1"></rect>
            <polygon id="Rectangle-2" fill="#FFFFFF" points="123 71 126 73.4302202 126 80 123 80"></polygon>
        </g>
    </g>
</svg>