<?xml version="1.0" encoding="UTF-8" standalone="no"?>
<svg width="140px" height="140px" viewBox="0 0 140 140" version="1.1" xmlns="http://www.w3.org/2000/svg" xmlns:xlink="http://www.w3.org/1999/xlink">
    <!-- Generator: Sketch 48.2 (47327) - http://www.bohemiancoding.com/sketch -->
    <title>uxb_underground</title>
    <desc>Created with Sketch.</desc>
    <defs></defs>
    <g id="artwork-icons" stroke="none" stroke-width="1" fill="none" fill-rule="evenodd">
        <g id="uxb_underground">
            <g id="background-grey"></g>
            <path d="M27.99993,76.5 L16,76.5 L16,63.5 L27.99993,63.5 C31.1241758,43.3905598 48.514759,28 69.5,28 C90.485241,28 107.875824,43.3905598 111.00007,63.5 L123,63.5 L123,76.5 L111.00007,76.5 C107.875824,96.6094402 90.485241,112 69.5,112 C48.514759,112 31.1241758,96.6094402 27.99993,76.5 Z M41.2312725,76.5 C44.1822244,89.3866773 55.7184563,99 69.5,99 C83.2815437,99 94.8177756,89.3866773 97.7687275,76.5 L41.2312725,76.5 Z M41.2312725,63.5 L97.7687275,63.5 C94.8177756,50.6133227 83.2815437,41 69.5,41 C55.7184563,41 44.1822244,50.6133227 41.2312725,63.5 Z" id="Combined-Shape" fill="#FFFFFF"></path>
        </g>
    </g>
</svg>