<?xml version="1.0" encoding="UTF-8" standalone="no"?>
<svg width="140px" height="140px" viewBox="0 0 140 140" version="1.1" xmlns="http://www.w3.org/2000/svg" xmlns:xlink="http://www.w3.org/1999/xlink">
    <!-- Generator: Sketch 48.2 (47327) - http://www.bohemiancoding.com/sketch -->
    <title>uxb_unicycle</title>
    <desc>Created with Sketch.</desc>
    <defs></defs>
    <g id="artwork-icons" stroke="none" stroke-width="1" fill="none" fill-rule="evenodd">
        <g id="uxb_unicycle">
            <g id="background-grey"></g>
            <g id="Group" transform="translate(40.000000, 16.000000)" fill="#FFFFFF">
                <path d="M33.4929408,14.2024823 L33.4929408,67.2907176 L36.5921915,63.8963001 L35.4929408,63.8963001 L35.4929408,59.8963001 L44.4929408,59.8963001 L44.4929408,63.8963001 L40.6545597,63.8963001 L34.5183004,70.6169651 C35.1346279,71.5595227 35.4929408,72.6860672 35.4929408,73.8963001 C35.4929408,77.2100086 32.8066493,79.8963001 29.4929408,79.8963001 C28.4775293,79.8963001 27.521031,79.6440632 26.6826854,79.1988291 L22.3936901,83.8963001 L23.4929408,83.8963001 L23.4929408,87.8963001 L14.4929408,87.8963001 L14.4929408,83.8963001 L18.3313219,83.8963001 L24.4675812,77.1756352 C23.8512537,76.2330776 23.4929408,75.1065331 23.4929408,73.8963001 C23.4929408,71.6754538 24.6995359,69.7364228 26.4929391,68.6989943 L26.4929408,15.0186755 C20.6104071,15.1466142 14.5603395,13.9122604 9,11.2398736 L12.4654567,4.02942212 C23.3470218,9.25927393 36.5410966,7.48060717 43.8080859,0 L49.5462773,5.57433036 C45.2778737,9.96820655 39.6427477,12.8769859 33.4929408,14.2024823 Z" id="Combined-Shape"></path>
                <path d="M32,44.0656091 L32,51.0857512 C31.3408865,51.0289764 30.6738272,51 30,51 C17.2974508,51 7,61.2974508 7,74 C7,86.7025492 17.2974508,97 30,97 C42.7025492,97 53,86.7025492 53,74 C53,64.4913184 47.2298307,56.3303321 39.0000005,52.8275496 L39,45.3734069 C51.1713209,49.1961978 60,60.5670746 60,74 C60,90.5685425 46.5685425,104 30,104 C13.4314575,104 0,90.5685425 0,74 C0,57.4314575 13.4314575,44 30,44 C30.6720571,44 31.3389528,44.0220987 32,44.0656091 Z" id="Combined-Shape"></path>
            </g>
        </g>
    </g>
</svg>