<?xml version="1.0" encoding="UTF-8" standalone="no"?>
<svg width="140px" height="140px" viewBox="0 0 140 140" version="1.1" xmlns="http://www.w3.org/2000/svg" xmlns:xlink="http://www.w3.org/1999/xlink">
    <!-- Generator: Sketch 48.2 (47327) - http://www.bohemiancoding.com/sketch -->
    <title>uxb_u4</title>
    <desc>Created with Sketch.</desc>
    <defs></defs>
    <g id="artwork-icons" stroke="none" stroke-width="1" fill="none" fill-rule="evenodd">
        <g id="uxb_u4">
            <g id="background-grey"></g>
            <path d="M97.625,92.875 C97.625,99.125 95.2708321,104.0625 90.5625,107.6875 C85.8541183,111.3125 78.9582863,113.125 69.875,113.125 C60.4583321,113.125 53.625,111.3125 49.375,107.6875 C45.125,104.0625 43,99.125 43,92.875 L43,28.125 C43,27.2916641 43.4166679,26.875 44.25,26.875 L50.875,26.875 C51.708334,26.875 52.125,27.2916641 52.125,28.125 L52.125,91.25 C52.125,94.166666 52.583334,96.5208321 53.5,98.3125 C54.416666,100.104168 55.666666,101.520832 57.25,102.5625 C58.833334,103.604168 60.708334,104.3125 62.875,104.6875 C65.0416679,105.0625 67.375,105.25 69.875,105.25 C72.375,105.25 74.7708321,105.0625 77.0625,104.6875 C79.3542595,104.312492 81.3334274,103.60416 83,102.5625 C84.6666679,101.520832 86,100.083332 87,98.25 C88,96.4166679 88.5,94.041666 88.5,91.125 L88.5,28.125 C88.5,27.2916641 88.9166679,26.875 89.75,26.875 L96.375,26.875 C97.2083359,26.875 97.625,27.2916641 97.625,28.125 L97.625,92.875 Z" id="Path" fill="#FFFFFF"></path>
        </g>
    </g>
</svg>