<?xml version="1.0" encoding="UTF-8" standalone="no"?>
<svg width="140px" height="140px" viewBox="0 0 140 140" version="1.1" xmlns="http://www.w3.org/2000/svg" xmlns:xlink="http://www.w3.org/1999/xlink">
    <!-- Generator: Sketch 48.2 (47327) - http://www.bohemiancoding.com/sketch -->
    <title>uxb_unicorn</title>
    <desc>Created with Sketch.</desc>
    <defs></defs>
    <g id="artwork-icons" stroke="none" stroke-width="1" fill="none" fill-rule="evenodd">
        <g id="uxb_unicorn">
            <g id="background-grey"></g>
            <g id="Group" transform="translate(27.000000, 27.000000)" fill="#FFFFFF">
                <path d="M41.8145799,24.9013318 C42.876552,25.3708184 50.5445627,29.2942846 53.7321271,30.837447 C56.9196915,32.3806094 64.5853496,38.7088051 66.9060561,41.1249781 C69.2267625,43.541151 73.2062044,47.5017577 75.9942275,51.5005959 C78.7822505,55.4994341 84.0467353,71 84.0467353,71 C84.0467353,71 84.7825717,62.4516218 84.7825717,58.4659827 C84.7825717,54.4803436 82.4744322,49.0130147 81.4308474,47.2877022 C80.7351242,46.1374939 79.7983589,43.9244637 78.6205515,40.6486116 C80.242777,40.9422405 81.5234216,41.5037172 82.4624854,42.3330418 C83.4015493,43.1623663 84.445451,45.1231508 85.5941906,48.2153952 C86.1352698,45.4460717 86.1352698,43.2871909 85.5941906,41.7387527 C84.7825717,39.4160955 83.33789,38.1826514 82.0314454,36.0302137 C80.7250008,33.8777761 79.6080741,33.1516984 79.6080741,30.837447 C79.6080741,28.5231957 79.9756933,27.347682 79.6080741,25.380481 C79.240455,23.4132799 74.1534453,20.8805887 73.3987445,20.516324 C73.323421,20.5043718 80.7113703,21.5218983 81.7944707,22.4911868 C82.0785554,22.8362669 78.0435085,16.3225906 76.2417227,14.7132357 C74.4399369,13.1038809 71.5019126,11.1048338 69.1782477,11.1048338 C67.6291377,11.1048338 65.2303937,11.4497913 61.9820156,12.1397061 C63.1171247,10.4878695 64.4601183,9.58581939 66.0109965,9.43355562 C67.5618748,9.28129185 69.2211145,9.17524894 70.9887157,9.1154269 C68.5473781,7.68397096 66.8235056,6.80047509 65.8170982,6.46493929 C64.307487,5.9616356 63.0594528,5.90437036 60.9238216,5.90437036 C59.5000675,5.90437036 57.3243294,6.45600802 54.3966073,7.55928333 C54.3924183,6.68997243 55.3485577,5.90226888 57.2650256,5.19617267 C60.1397274,4.13702837 62.6663412,4.33481221 62.9703841,4.13702837 C63.2744271,3.93924453 58.8752071,2.22935166 57.2650256,1.94820033 C55.6548441,1.66704901 55.1880585,2.21838005 53.7321271,2.63186327 C52.7615061,2.90751876 51.3492892,3.40924045 49.4954764,4.13702837 C49.4919158,3.33017209 49.7488821,2.69062265 50.2663753,2.21838005 C50.7838686,1.74613745 52.1606126,1.21427708 54.3966073,0.622798918 C52.2759257,0.207599639 50.6422154,0 49.4954764,0 C47.775368,0 45.7984657,0.984673223 44.5105655,2.21838005 C43.6519654,3.04085127 42.1556194,5.33986689 40.0215276,9.1154269 C37.4557646,7.72214779 35.6909735,6.83865192 34.7271542,6.46493929 C33.2814253,5.90437036 32.5404958,5.34380142 30.9727623,5.90437036 C29.4050287,6.46493929 29.0284953,8.124668 28.8510334,9.1154269 C28.6735715,10.1061858 29.5793959,11.4659287 28.3027979,13.3730189 C27.0261999,15.2801091 21.1740601,18.5211117 21.0034641,18.5211117 C20.832868,18.5211117 27.0070473,21.0957274 29.8537754,18.5211117 C32.7005035,15.946496 34.3587515,13.6316688 35.5925743,13.6316688 C36.826397,13.6316688 38.8632696,17.0348838 39.3743278,18.5211117 C39.885386,20.0073396 40.7526077,24.4318452 41.8145799,24.9013318 Z" id="Path-29"></path>
                <path d="M34.9552183,17 C35.6579171,17 36.6264232,19.606178 37.8607366,24.8185341 C38.3435585,26.3706912 39.0547279,27.3364925 39.9942449,27.715938 C41.4035204,28.2851062 46.5951196,30.6013693 48.7284025,31.8091515 C50.8616854,33.0169337 58.6272205,38.0479906 60.3469344,39.6771406 C62.0666484,41.3062907 70.6595978,50.5970483 72.3034035,52.6115831 C73.9472092,54.626118 78.6509017,65.9024022 79.7350806,69.3599134 C80.4578665,71.6649209 81.8795063,77.5449498 84,87 L38.5849694,87 C39.4313025,82.2349272 39.901061,79.362881 39.9942449,78.3838612 C40.1340208,76.9153316 42.1458505,72.884176 43.0551787,71.1773232 C43.9645069,69.4704704 45.2528527,65.9389069 45.2528527,65.2489691 C45.2528527,64.5590314 45.2183014,63.316309 44.2738984,61.4524862 C43.6442963,60.2099377 42.4144086,58.6052979 40.5842351,56.6385668 C39.8223608,58.1213506 39.1559389,59.209189 38.5849694,59.9020819 C38.014,60.5949748 36.4527335,61.7330505 33.9011701,63.316309 C30.2868916,65.673466 27.9845165,67.6880008 26.9940451,69.3599134 C25.5083379,71.8677824 26.30773,72.2135335 24.1655475,74.0945657 C22.023365,75.9755978 19.0707968,75.3179927 17.3913927,74.8126641 C15.7119886,74.3073356 15.5303324,75.080191 14.9727996,73.1287571 C14.601111,71.8278011 14.601111,70.8235758 14.9727996,70.116081 C13.1845065,70.2078641 12.0690918,69.9558083 11.6265556,69.3599134 C10.9627512,68.4660712 10.8224519,66.9615584 11.2245037,65.2489691 C11.6265556,63.5363799 12.9751045,60.303633 14.1173924,58.5847858 C15.2596803,56.8659386 18.412751,52.2966002 19.094878,49.8872938 C19.4978314,48.4640424 19.9616185,45.7061328 20.3578181,43.2753392 C20.6323126,41.59124 20.8743654,40.0641557 21.0412696,39.2467118 C21.44908,37.2493863 23.2607708,34.038238 24.4302156,31.8091515 C25.5996603,29.580065 27.711196,27.5517106 28.8765181,26.9186158 C30.0418403,26.2855209 31.2361733,24.8185341 32.421345,22.1421353 C33.6065168,19.4657365 33.9011701,17 34.9552183,17 Z M27.9254709,45.7219379 C29.5947003,45.0133921 32.086049,41.4534406 31.8613863,41.4654928 C31.6367236,41.4775451 28.1341179,41.5724755 26.4648885,42.2810213 C24.7956591,42.9895672 23.6011639,44.6164503 24.0044926,45.5666332 C24.4078213,46.5168161 26.2562415,46.4304838 27.9254709,45.7219379 Z M12.8044442,67.4343166 C13.1656045,68.2088272 14.828834,69.1680776 14.8274018,69.0587634 C14.8259696,68.9494493 14.5042674,68.1288161 14.6918423,66.9178715 C14.8794172,65.7069269 13.7930618,65.2866405 13.2453228,65.5420553 C12.6975839,65.7974702 12.443284,66.659806 12.8044442,67.4343166 Z" id="Combined-Shape"></path>
                <path d="M20.9573863,36 L0,18 C16.7936106,25.0081746 25.1264605,28.5751826 24.9985497,28.701024 C24.2063321,29.5129742 22.8592776,31.9459662 20.9573863,36 Z" id="Path-30"></path>
            </g>
        </g>
    </g>
</svg>