<?xml version="1.0" encoding="UTF-8" standalone="no"?>
<svg width="140px" height="140px" viewBox="0 0 140 140" version="1.1" xmlns="http://www.w3.org/2000/svg" xmlns:xlink="http://www.w3.org/1999/xlink">
    <!-- Generator: Sketch 48.2 (47327) - http://www.bohemiancoding.com/sketch -->
    <title>uxb_u2</title>
    <desc>Created with Sketch.</desc>
    <defs></defs>
    <g id="artwork-icons" stroke="none" stroke-width="1" fill="none" fill-rule="evenodd">
        <g id="uxb_u2">
            <g id="background-grey"></g>
            <path d="M97.6625072,49.5298387 L97.6625072,84.801911 C97.6625072,90.009894 97.2482421,93.9355496 96.4196993,96.5789955 C95.5911566,99.2224414 93.9932766,101.648852 91.6260116,103.858299 C86.1023933,109.066282 78.9217971,111.670234 70.0840078,111.670234 C61.4829449,111.670234 54.4207102,109.105736 48.8970919,103.976662 C44.3992883,99.7944935 42.1504203,93.2451585 42.1504203,84.3284603 L41.913695,40.7710019 C41.8347862,38.0091928 41.5191556,36.1154092 40.9667937,35.0895943 C40.1777054,33.5114176 38.5600986,32.7223411 36.1139247,32.7223411 C35.482654,32.7223411 34.2595855,32.8012488 32.4446823,32.9590665 C31.5766851,33.0379753 30.5903395,33.0774291 29.4856158,33.0774291 C27.8285303,33.0774291 27,32.5645294 27,31.5387146 C27,30.5128997 27.8285303,30 29.4856158,30 L29.8407038,30 L32.4446823,30.2367253 C33.549406,30.2367253 35.1670128,30.3550868 37.2975513,30.5918133 C39.4280898,30.8285398 41.0456966,30.9469013 42.1504203,30.9469013 L45.5829374,30.9469013 C46.6087522,30.9469013 48.2066322,30.8285398 50.3766251,30.5918133 C52.546618,30.3550868 54.1444979,30.2367253 55.1703128,30.2367253 L57.7742913,30 L58.1293792,30 C59.7864647,30 60.6149951,30.4734459 60.6149951,31.4203519 C60.6149951,32.5250756 59.7864647,33.0774291 58.1293792,33.0774291 C57.1035644,33.0774291 56.1172188,33.0379753 55.1703128,32.9590665 C53.2765008,32.8012488 52.0534322,32.7223411 51.5010703,32.7223411 C49.0548965,32.7223411 47.4372897,33.4719638 46.6482013,34.9712317 C46.0169307,35.9970465 45.7013001,37.9302839 45.7013001,40.7710019 L45.4645748,57.5784995 L45.4645748,82.3162951 C45.4645748,87.2086428 45.6223901,90.5227641 45.9380254,92.2587585 C46.5692961,95.4940206 48.0685414,98.4530575 50.4358064,101.135958 C55.1703364,106.42285 61.6407637,109.066256 69.8472824,109.066256 C74.5818125,109.066256 79.0006409,108.07991 83.1039002,106.10719 C87.9173391,103.897742 91.1525527,100.820344 92.8096382,96.8749021 C93.8354531,94.5076371 94.3483528,90.5622546 94.3483528,85.0386363 L94.3483528,57.5784995 C94.3483528,54.8166903 94.308899,52.1338302 94.2299901,49.5298387 L93.9932648,40.7710019 C93.9932648,37.7724663 93.5592727,35.6814135 92.6912756,34.497781 C91.8232784,33.3141485 90.2845792,32.7223411 88.0751319,32.7223411 C87.52277,32.7223411 86.3391553,32.8012488 84.5242521,32.9590665 C83.6562549,33.0379753 82.7093631,33.0774291 81.6835483,33.0774291 C80.0264628,33.0774291 79.1979325,32.5645294 79.1979325,31.5387146 C79.1979325,30.5128997 79.987009,30 81.5651856,30 L82.0386363,30 L84.6426148,30.2367253 C85.6684296,30.2367253 87.2465826,30.3550868 89.3771211,30.5918133 C91.5076596,30.8285398 93.0858126,30.9469013 94.1116275,30.9469013 L97.6625072,30.9469013 C98.6094132,30.9469013 101.805173,30.7101783 107.249883,30.2367253 L109.972224,30 L110.327312,30 C111.984397,30 112.812928,30.4734459 112.812928,31.4203519 C112.812928,32.5250756 111.984397,33.0774291 110.327312,33.0774291 C109.301497,33.0774291 108.315151,33.0379753 107.368245,32.9590665 C105.395524,32.8012488 104.133002,32.7223411 103.58064,32.7223411 C101.213375,32.7223411 99.5957683,33.5114176 98.7277712,35.0895943 C98.2543182,36.1154092 97.9781414,38.0091928 97.8992325,40.7710019 L97.6625072,49.5298387 Z" id="U" fill="#FFFFFF"></path>
        </g>
    </g>
</svg>