<?xml version="1.0" encoding="UTF-8" standalone="no"?>
<svg width="140px" height="140px" viewBox="0 0 140 140" version="1.1" xmlns="http://www.w3.org/2000/svg" xmlns:xlink="http://www.w3.org/1999/xlink">
    <!-- Generator: Sketch 48.2 (47327) - http://www.bohemiancoding.com/sketch -->
    <title>uxb_uber</title>
    <desc>Created with Sketch.</desc>
    <defs></defs>
    <g id="artwork-icons" stroke="none" stroke-width="1" fill="none" fill-rule="evenodd">
        <g id="uxb_uber">
            <g id="background-grey"></g>
            <path d="M61,68 L61,61 L79,61 L79,79 L61,79 L61,72 L37.0329823,72 C37.8175629,89.8054453 52.5011235,104 70.5,104 C89.0015391,104 104,89.0015391 104,70.5 C104,51.9984609 89.0015391,37 70.5,37 C52.8393909,37 38.3706539,50.6660288 37.0918754,68 L61,68 Z M70,114 C45.699471,114 26,94.300529 26,70 C26,45.699471 45.699471,26 70,26 C94.300529,26 114,45.699471 114,70 C114,94.300529 94.300529,114 70,114 Z" id="Combined-Shape" fill="#FFFFFF"></path>
        </g>
    </g>
</svg>