<?xml version="1.0" encoding="UTF-8" standalone="no"?>
<svg width="140px" height="140px" viewBox="0 0 140 140" version="1.1" xmlns="http://www.w3.org/2000/svg" xmlns:xlink="http://www.w3.org/1999/xlink">
    <!-- Generator: Sketch 48.2 (47327) - http://www.bohemiancoding.com/sketch -->
    <title>uxb_umbrella</title>
    <desc>Created with Sketch.</desc>
    <defs></defs>
    <g id="artwork-icons" stroke="none" stroke-width="1" fill="none" fill-rule="evenodd">
        <g id="uxb_umbrella">
            <g id="background-grey"></g>
            <g id="Group" transform="translate(22.000000, 22.000000)" fill="#FFFFFF">
                <path d="M50.000112,47.9599575 L50.000112,82.9412857 L45.000112,82.9412857 L45.000112,47.9599344 C39.5068209,48.5266775 34.6095511,50.9391761 31.0360131,54.5182337 C31.2292245,46.411649 32.2056744,37.2049523 34.0469664,29.6865583 C36.8125675,18.3940099 41.1606214,12.0488476 47.0689098,12 C52.9771981,12.0488476 57.325252,18.3940099 60.0908531,29.6865583 C61.8689729,36.9470067 62.8405757,45.7818983 63.0791509,53.6800846 C59.6012533,50.5641791 55.052812,48.4812925 50.000112,47.9599575 Z M55.1176654,12.2858607 C77.7298315,15.0100415 95,29.6635936 95,47.3317788 C95,47.8092241 94.9873887,48.284468 94.9624015,48.7573346 C91.6054048,46.898798 87.6862108,45.8317788 83.5,45.8317788 C76.4755079,45.8317788 70.2028573,48.8361937 66.0767109,53.5433381 C65.8303819,45.4401121 64.8330437,36.3972919 62.9952982,28.8933791 C61.1485994,21.3529077 58.5633928,15.6486664 55.1176654,12.2858607 Z M38.8910296,12.413375 C35.5097551,15.7919082 32.9660801,21.4473933 31.1425213,28.8933791 C29.2931659,36.4446976 28.2948698,45.5544288 28.05653,53.6968002 C23.9328582,48.9015916 17.6005326,45.8317788 10.5,45.8317788 C6.71395575,45.8317788 3.14631911,46.704552 0.0154543198,48.2462919 C0.00517204631,47.9423878 0,47.6375347 0,47.3317788 C0,29.9226889 16.7673653,15.4404641 38.8910296,12.413375 Z M28.2126151,79.7831745 C28.2286359,79.7641147 28.2446223,79.7450284 28.2605739,79.7259158 C28.2808972,79.7571144 28.3013051,79.7882597 28.3217973,79.8193514 C28.2853792,79.8073256 28.2489851,79.7952666 28.2126151,79.7831745 Z" id="Combined-Shape"></path>
                <path d="M44.9870679,82 L49.9915409,82 C49.9971652,82.1659743 50,82.3326561 50,82.5 C50,90.5081289 43.5081289,97 35.5,97 C27.4918711,97 21,90.5081289 21,82.5 C21,82.3326561 21.0028348,82.1659743 21.0084591,82 L26.0129321,82 C26.0043462,82.1655806 26,82.3322827 26,82.5 C26,87.7467051 30.2532949,92 35.5,92 C40.7467051,92 45,87.7467051 45,82.5 C45,82.3322827 44.9956538,82.1655806 44.9870679,82 Z" id="Combined-Shape"></path>
                <polygon id="Triangle-2" points="47.5 0 49 10 46 10"></polygon>
            </g>
        </g>
    </g>
</svg>