<?xml version="1.0" encoding="UTF-8" standalone="no"?>
<svg width="140px" height="140px" viewBox="0 0 140 140" version="1.1" xmlns="http://www.w3.org/2000/svg" xmlns:xlink="http://www.w3.org/1999/xlink">
    <!-- Generator: Sketch 48.2 (47327) - http://www.bohemiancoding.com/sketch -->
    <title>uxb_u5</title>
    <desc>Created with Sketch.</desc>
    <defs></defs>
    <g id="artwork-icons" stroke="none" stroke-width="1" fill="none" fill-rule="evenodd">
        <g id="uxb_u5">
            <g id="background-grey"></g>
            <path d="M94.6886675,71 L97.2515567,73.3636364 L97.2515567,106.454545 C96.397256,109.606076 94.2615364,111.575754 90.8443337,112.363636 L87,102.909091 L87,78.0909091 L94.6886675,71 Z" id="Path" fill="#FFFFFF"></path>
            <path d="M87.8505604,112.454545 L49.4072229,112.454545 C45.9900203,111.666663 43.8543007,109.696985 43,106.545455 L53.2515567,103 L84.0062267,103 L87.8505604,112.454545 Z" id="Path" fill="#FFFFFF"></path>
            <polygon id="Path" fill="#FFFFFF" points="43 104.090909 43 73.3636364 45.5628892 71 53.2515567 78.0909091 53.2515567 100.545455"></polygon>
            <path d="M87,61.2727273 L87,36.4545455 L90.8443337,27 C94.2615364,27.7878827 96.397256,29.75756 97.2515567,32.9090909 L97.2515567,66 L94.6886675,68.3636364 L87,61.2727273 Z" id="Path" fill="#FFFFFF"></path>
            <path d="M45.5628892,69.3636364 L43,67 L43,33.9090909 C43.8543007,30.75756 45.9900203,28.7878827 49.4072229,28 L53.2515567,37.4545455 L53.2515567,62.2727273 L45.5628892,69.3636364 Z" id="Path" fill="#FFFFFF"></path>
        </g>
    </g>
</svg>