<?xml version="1.0" encoding="UTF-8" standalone="no"?>
<svg width="140px" height="140px" viewBox="0 0 140 140" version="1.1" xmlns="http://www.w3.org/2000/svg" xmlns:xlink="http://www.w3.org/1999/xlink">
    <!-- Generator: Sketch 48.2 (47327) - http://www.bohemiancoding.com/sketch -->
    <title>uxb_uzzi</title>
    <desc>Created with Sketch.</desc>
    <defs></defs>
    <g id="artwork-icons" stroke="none" stroke-width="1" fill="none" fill-rule="evenodd">
        <g id="uxb_uzzi">
            <g id="background-grey"></g>
            <path d="M108,31.4810468 L108,53.1557831 L100.766116,56.5329908 L97.976401,56.5329908 L97.976401,58.7225203 L95.6257462,59.9819753 L96.9001764,60.9735132 L96.9001764,73.2700881 L95.6257462,74.5422959 C98.1031533,83.8403708 99.6656282,89.8044273 100.313171,92.4344657 C100.960714,95.064504 99.3982387,96.8847735 95.6257462,97.8952742 L89.0462016,97.8952742 L89.0462016,108.999633 L73.9393934,108.999633 L73.3572808,97.6767258 C72.4063899,97.2994873 71.9309445,96.824871 71.9309445,96.2528769 C71.9309445,95.6808827 72.2973698,95.1701038 73.0302203,94.7205401 L71.8823336,67.4912024 C69.5926087,69.0996806 66.0076139,70.7673489 64.2913691,70.7673489 C64.2619937,70.7673489 63.4728343,70.764265 63.2885037,70.7673489 C62.0711104,70.7857267 61.287577,70.7532058 58.9262224,70.6038342 C58.6945271,70.5891779 58.4452021,70.5785337 57.9946115,70.562616 C57.2675054,70.53693 57.1692547,70.5332221 56.8567026,70.5178636 C56.4671033,70.4987192 56.1263114,70.4758117 55.8114178,70.4460621 C51.6686798,70.0546774 49.4904134,68.0043494 49.7042547,64.555985 L49.7042547,55.9060755 L46.327493,49.6790729 C43.1987711,49.6790729 40.7385688,49.6790729 38.9468861,49.6790729 C37.228618,49.6790729 36.2463226,49.4794144 36,49.0800975 L36,30.9964543 L35.9590167,30.9964543 C35.9100068,28.5122863 35.9144871,26.6052734 35.9724575,25.2754155 C36.0666964,23.1135478 39.5083648,22.1510692 41.4090192,23.9198148 C42.6761222,25.0989785 43.8239614,26.1700128 44.8525369,27.1329175 L44.8525369,29.7415315 L52.6626221,29.7415315 L52.6626221,23.6295781 C53.8978674,23.6460544 54.5154901,23.6460544 54.5154901,23.6295781 C54.5154901,23.6048637 54.9017692,28.1717583 55.6908833,28.4318153 C56.4799974,28.6918723 57.0398949,29.112226 57.9149652,29.9240536 C58.4983454,30.465272 59.1756793,30.8282572 59.946967,31.0130091 C86.3309987,31.0130091 99.9373817,31.0130091 100.766116,31.0130091 C101.486275,31.0130091 103.897569,31.1690217 108,31.4810468 Z M109.970847,30.0006147 C109.970847,29.6248678 109.970847,29.1853255 109.970847,28.6819877 C109.970847,25.9903782 110.373316,25.0951726 112.707994,25.0951726 C115.042672,25.0951726 116.02223,25.0951726 118.916929,25.0951726 C120.846729,25.0951726 121.874419,27.4058239 122,32.0271266 C122,39.7136905 122,44.4052951 122,46.1019405 C122,47.7985858 121.781297,48.9909633 121.343892,49.6790729 L115.447015,49.6790729 L110,52.222064 L110,30.0002853 L109.970847,30.0002853 Z M34,36.336319 L34,49.0711201 C31.8683937,49.1092926 30.7018565,49.0948595 30.5003885,49.0278206 C30.2436447,48.9423885 29.7511024,47.6979509 29.0227617,45.2945077 C23.1473452,45.2945077 19.5717468,45.2945077 18.2959665,45.2945077 C16.3822959,45.2945077 16.764248,38.780983 18.2959665,38.780983 C19.8276849,38.780983 29.027649,38.780983 29.027649,38.780983 C29.027649,38.780983 29.1622037,37.966095 29.4313129,36.336319 L34,36.336319 Z M89.0462016,111.001488 L89.0462016,118 L74.4021037,118 L74.0423091,111.001488 L89.0462016,111.001488 Z M51.7093344,55.9768484 L51.7077247,64.617285 C51.5647341,66.9436394 52.8524397,68.1557129 56.00036,68.4531123 C56.2816644,68.4796885 56.5935894,68.5006556 56.9552962,68.5184295 C57.2544453,68.5331294 57.3502385,68.5367445 58.0655327,68.5620132 C58.5343016,68.5785731 58.796923,68.589785 59.0530417,68.6059862 C61.362045,68.7520463 61.915852,68.783081 63.0808757,68.7654938 C63.2569636,68.7624981 64.2428947,68.7654938 64.2913691,68.7654938 C66.1118988,68.7654938 70.5405712,66.2998403 71.7800075,65.0638956 L71.3969316,55.9768484 L65.991662,55.9768484 C66.4126196,57.0094039 66.6871132,58.7628566 66.6871132,59.9376277 C66.6871132,61.5138156 66.4739702,61.7936266 65.9404363,62.7626501 C65.4069024,63.7316736 63.4997135,65.6715135 62.6980618,66.3893409 C61.89641,67.1071682 59.8630159,66.984886 60.7206734,66.3893409 C61.5783309,65.7937958 63.4439843,63.5698346 63.8745652,62.9926024 C64.3051461,62.4153702 64.5930895,60.1113421 64.0967365,58.7577924 C63.6949222,57.6620486 62.9018125,56.7648721 62.2554702,55.9768484 L51.7093344,55.9768484 Z M85.7898216,92.5749231 L85.7898216,63.4973168 L83.7879665,63.4973168 L83.7879665,92.5749231 L85.7898216,92.5749231 Z M90.803202,92.5749231 L90.803202,63.4973168 L88.8013469,63.4973168 L88.8013469,92.5749231 L90.803202,92.5749231 Z M80.7764412,92.5749231 L80.7764412,63.4973168 L78.7745861,63.4973168 L78.7745861,92.5749231 L80.7764412,92.5749231 Z M53.1992454,38.9999463 L99.322345,38.9999463 L99.322345,36.9980912 L53.1992454,36.9980912 L53.1992454,38.9999463 Z M53,44.0018551 L99.1230996,44.0018551 L99.1230996,42 L53,42 L53,44.0018551 Z M53,49.0018551 L98.8236831,49.0018551 L98.8236831,47 L53,47 L53,49.0018551 Z" id="Combined-Shape" fill="#FFFFFF" fill-rule="nonzero"></path>
        </g>
    </g>
</svg>