<?xml version="1.0" encoding="UTF-8" standalone="no"?>
<svg width="140px" height="140px" viewBox="0 0 140 140" version="1.1" xmlns="http://www.w3.org/2000/svg" xmlns:xlink="http://www.w3.org/1999/xlink">
    <!-- Generator: Sketch 48.2 (47327) - http://www.bohemiancoding.com/sketch -->
    <title>uxb_unlock</title>
    <desc>Created with Sketch.</desc>
    <defs></defs>
    <g id="artwork-icons" stroke="none" stroke-width="1" fill="none" fill-rule="evenodd">
        <g id="uxb_unlock">
            <g id="background-grey"></g>
            <path d="M52.55,91.75 C53.15,91.1 53.15,90.1 52.55,89.45 C51.9,88.85 50.9,88.85 50.25,89.45 L37.45,102.25 C36.85,102.9 36.85,103.9 37.45,104.55 C37.8,104.85 38.2,105 38.6,105 C39,105 39.4,104.85 39.75,104.55 L52.55,91.75 Z M59,92.5833333 C59,91.6927083 58.34375,91 57.5,91 C56.65625,91 56,91.6927083 56,92.5833333 L56,108.416667 C56,109.307292 56.65625,110 57.5,110 C58.34375,110 59,109.307292 59,108.416667 L59,92.5833333 Z M49,82.5 C49,81.65625 48.3072917,81 47.4166667,81 L31.5833333,81 C30.6927083,81 30,81.65625 30,82.5 C30,83.34375 30.6927083,84 31.5833333,84 L47.4166667,84 C48.3072917,84 49,83.34375 49,82.5 Z M109,88.5502959 C109,84.9053254 107.581281,81.4970414 105.027586,78.8934911 L89.137931,62.9881657 C88.3339901,62.183432 87.435468,61.5680473 86.4896552,61 L85.6384236,72.3136095 L98.5960591,85.3313609 C99.4472906,86.183432 99.920197,87.3195266 99.920197,88.5502959 C99.920197,89.7337278 99.4472906,90.8698225 98.5960591,91.7218935 L91.644335,98.6331361 C89.9418719,100.337278 86.9152709,100.289941 85.2128079,98.5857988 L72.3024631,85.6153846 L61,86.4674556 C61.5674877,87.4142012 62.182266,88.3136095 62.9862069,89.1183432 L78.7812808,104.976331 C81.3349754,107.579882 84.7871921,109 88.4285714,109 C92.0699507,109 95.4748768,107.627219 98.0285714,105.071006 L104.980296,98.1597633 C107.581281,95.6035503 109,92.1952663 109,88.5502959 Z M79,53.5325444 C78.4325123,52.5857988 77.817734,51.6863905 77.0137931,50.8816568 L61.2187192,35.0236686 C58.6650246,32.4201183 55.2128079,31 51.5714286,31 C47.9300493,31 44.5251232,32.3727811 41.9714286,34.9289941 L35.0197044,41.8402367 C32.4187192,44.3964497 31,47.8047337 31,51.4497041 C31,55.0946746 32.4187192,58.5029586 34.9724138,61.1065089 L50.862069,77.0118343 C51.6660099,77.816568 52.564532,78.4319527 53.5103448,79 L54.3615764,67.6390533 L41.4039409,54.6686391 C40.5527094,53.816568 40.079803,52.6804734 40.079803,51.4497041 C40.079803,50.2662722 40.5527094,49.1301775 41.4039409,48.2781065 L48.355665,41.3668639 C49.2068966,40.5621302 50.3418719,40.0887574 51.5714286,40.0887574 C52.8009852,40.0887574 53.9359606,40.5621302 54.7871921,41.4142012 L67.6975369,54.3846154 L79,53.5325444 Z M110,57.5 C110,56.65625 109.307292,56 108.416667,56 L92.5833333,56 C91.6927083,56 91,56.65625 91,57.5 C91,58.34375 91.6927083,59 92.5833333,59 L108.416667,59 C109.307292,59 110,58.34375 110,57.5 Z M84,31.5833333 C84,30.6927083 83.34375,30 82.5,30 C81.65625,30 81,30.6927083 81,31.5833333 L81,47.4166667 C81,48.3072917 81.65625,49 82.5,49 C83.34375,49 84,48.3072917 84,47.4166667 L84,31.5833333 Z M104.55,39.75 C105.15,39.1 105.15,38.1 104.55,37.45 C103.9,36.85 102.9,36.85 102.25,37.45 L89.45,50.25 C88.85,50.9 88.85,51.9 89.45,52.55 C89.8,52.85 90.2,53 90.6,53 C91,53 91.4,52.85 91.75,52.55 L104.55,39.75 Z" id="-copy" fill="#FFFFFF"></path>
        </g>
    </g>
</svg>