<?xml version="1.0" encoding="UTF-8" standalone="no"?>
<svg width="140px" height="140px" viewBox="0 0 140 140" version="1.1" xmlns="http://www.w3.org/2000/svg" xmlns:xlink="http://www.w3.org/1999/xlink">
    <!-- Generator: Sketch 48.2 (47327) - http://www.bohemiancoding.com/sketch -->
    <title>uxb_undergraduate</title>
    <desc>Created with Sketch.</desc>
    <defs></defs>
    <g id="artwork-icons" stroke="none" stroke-width="1" fill="none" fill-rule="evenodd">
        <g id="uxb_undergraduate">
            <g id="background-grey"></g>
            <path d="M38.291382,61.8533047 C35.4725475,64.2801769 34.1408099,68.1079155 33.8512379,70.7025774 C33.7486339,71.6219436 33.7046888,72.6769366 33.7026349,73.7926434 C35.0846819,74.6822521 36,76.234234 36,78 C36,79.5526748 35.2922713,80.9400508 34.1818077,81.857134 C34.1912565,81.9469703 34.2007184,82.0357901 34.2101803,82.1235346 C34.5691227,85.4521642 35.971224,92.7532646 35.5590184,97.0708201 C35.1468128,101.388375 32.6423057,103.327622 30.9481513,104.563041 C29.8187151,105.386653 28.1642151,105.932778 25.9846515,106.201416 C20.5037491,104.13537 18.2676711,102.716253 19.2764174,101.944064 C20.7895368,100.785781 24.7405468,96.4200962 25.9846515,93.8710421 C27.2287561,91.3219879 27.9343223,89.7396358 28.3961941,86.7512797 C28.5594312,85.6951196 28.7232379,84.1937757 28.855773,82.5181839 C27.1672634,81.7154297 26,79.9940293 26,78 C26,75.9176285 27.2729818,74.1325778 29.083206,73.3805875 C29.08032,73.3304362 29.0773251,73.2806692 29.0742198,73.2312984 C28.8239416,69.2520857 29.1280831,66.4374138 31.2495922,62.7394558 C31.844435,61.7025979 32.4431934,60.8250632 33.0458674,60.1068518 L21.6994565,56.3291537 C20.6514469,55.9802271 20.0847282,54.8477867 20.4336547,53.7997771 C20.632671,53.2020267 21.1017062,52.7329916 21.6994565,52.5339753 L69.2578068,36.6997969 L118.316377,53.0334617 C119.364387,53.3823882 119.931105,54.5148287 119.582179,55.5628383 C119.383163,56.1605886 118.914127,56.6296238 118.316377,56.8286401 L70.7580267,72.6628184 L38.291382,61.8533047 Z" id="Combined-Shape" fill="#FFFFFF"></path>
            <path d="M39.2528999,84.6473036 C41.5554947,83.0015301 43,80.6327842 43,78 C43,75.3672158 41.5554947,72.9984699 39.2528999,71.3526964 L39.2528999,67.6669906 L69.9819801,77.6754373 C70.5966346,77.87563 71.2595119,77.8719297 71.8718931,77.6648876 L102.089547,67.4484941 C102.776117,77.1201523 102.776117,82.6766704 102.089547,84.1180483 C101.05969,86.2801152 99.9043447,86.9580396 93.2323633,90.1969336 C86.5603818,93.4358276 74.682334,94.4187127 71.6930171,94.4032894 C68.7037003,94.3878661 64.7476226,95.1365974 54.2597754,92.7256545 C47.2678772,91.1183592 42.2655854,88.8727177 39.2528999,85.9887301 L39.2528999,84.6473036 Z" id="Combined-Shape" fill="#FFFFFF"></path>
        </g>
    </g>
</svg>