<?xml version="1.0" encoding="UTF-8" standalone="no"?>
<svg width="140px" height="140px" viewBox="0 0 140 140" version="1.1" xmlns="http://www.w3.org/2000/svg" xmlns:xlink="http://www.w3.org/1999/xlink">
    <!-- Generator: Sketch 48.2 (47327) - http://www.bohemiancoding.com/sketch -->
    <title>uxb_unisex</title>
    <desc>Created with Sketch.</desc>
    <defs></defs>
    <g id="artwork-icons" stroke="none" stroke-width="1" fill="none" fill-rule="evenodd">
        <g id="uxb_unisex">
            <g id="background-grey"></g>
            <path d="M70.5,24.5 L70.5,115.58787" id="Line" stroke="#FFFFFF" stroke-width="5" stroke-linecap="square"></path>
            <path d="M64.4286327,76.1429062 C64.4286327,75.3795124 64.187561,74.6161187 63.7857748,74.0134394 L53.5000483,58.5848495 C51.8929035,56.214311 49.4018291,54.2857373 46.4286113,54.2857373 L31.0000215,54.2857373 C28.0268036,54.2857373 25.5357292,56.214311 23.9285845,58.5848495 L13.6428579,74.0134394 C13.2410717,74.6161187 13,75.3795124 13,76.1429062 C13,78.272373 14.7276806,80.0000536 16.8571475,80.0000536 C18.1428633,80.0000536 19.3482219,79.3571957 20.071437,78.272373 L29.1919836,64.5714638 L31.0000215,64.5714638 L31.0000215,69.8750416 L21.0759025,86.3884541 C20.8348308,86.7902403 20.7142949,87.2322051 20.7142949,87.7143486 C20.7142949,89.1206002 21.8794749,90.2857802 23.2857265,90.2857802 L31.0000215,90.2857802 L31.0000215,101.214365 C31.0000215,103.705439 33.049131,105.71437 35.5000268,105.71437 L41.9286059,105.71437 C44.4196803,105.71437 46.4286113,103.705439 46.4286113,101.214365 L46.4286113,90.2857802 L54.1429062,90.2857802 C55.5491579,90.2857802 56.7143378,89.1206002 56.7143378,87.7143486 C56.7143378,87.2322051 56.593802,86.7902403 56.3527303,86.3884541 L46.4286113,69.8750416 L46.4286113,64.5714638 L48.2366491,64.5714638 L57.3571957,78.272373 C58.0804109,79.3571957 59.2857695,80.0000536 60.5714853,80.0000536 C62.7009521,80.0000536 64.4286327,78.272373 64.4286327,76.1429062 Z M47.7143271,44.0000107 C47.7143271,39.0178619 43.6964652,35 38.7143164,35 C33.7321676,35 29.7143056,39.0178619 29.7143056,44.0000107 C29.7143056,48.9821595 33.7321676,53.0000215 38.7143164,53.0000215 C43.6964652,53.0000215 47.7143271,48.9821595 47.7143271,44.0000107 Z" id="" fill="#FFFFFF"></path>
            <path d="M123.142906,62.0000322 C123.142906,57.7410985 119.687545,54.2857373 115.428611,54.2857373 L89.7142949,54.2857373 C85.4553613,54.2857373 82,57.7410985 82,62.0000322 L82,78.7143378 C82,80.8438047 83.7276806,82.5714853 85.8571475,82.5714853 C87.9866143,82.5714853 89.7142949,80.8438047 89.7142949,78.7143378 L89.7142949,64.5714638 L92.2857265,64.5714638 L92.2857265,101.214365 C92.2857265,103.705439 94.2946575,105.71437 96.7857319,105.71437 C99.2768063,105.71437 101.285737,103.705439 101.285737,101.214365 L101.285737,82.5714853 L103.857169,82.5714853 L103.857169,101.214365 C103.857169,103.705439 105.8661,105.71437 108.357174,105.71437 C110.848249,105.71437 112.85718,103.705439 112.85718,101.214365 L112.85718,64.5714638 L115.428611,64.5714638 L115.428611,78.7143378 C115.428611,80.8438047 117.156292,82.5714853 119.285759,82.5714853 C121.415226,82.5714853 123.142906,80.8438047 123.142906,78.7143378 L123.142906,62.0000322 Z M111.571464,44.0000107 C111.571464,39.0178619 107.553602,35 102.571453,35 C97.5893043,35 93.5714424,39.0178619 93.5714424,44.0000107 C93.5714424,48.9821595 97.5893043,53.0000215 102.571453,53.0000215 C107.553602,53.0000215 111.571464,48.9821595 111.571464,44.0000107 Z" id="" fill="#FFFFFF"></path>
        </g>
    </g>
</svg>