<?xml version="1.0" encoding="UTF-8" standalone="no"?>
<svg width="140px" height="140px" viewBox="0 0 140 140" version="1.1" xmlns="http://www.w3.org/2000/svg" xmlns:xlink="http://www.w3.org/1999/xlink">
    <!-- Generator: Sketch 48.2 (47327) - http://www.bohemiancoding.com/sketch -->
    <title>uxb_union 3</title>
    <desc>Created with Sketch.</desc>
    <defs></defs>
    <g id="artwork-icons" stroke="none" stroke-width="1" fill="none" fill-rule="evenodd">
        <g id="uxb_union-3">
            <g id="background-grey"></g>
            <path d="M69,62 C69,56.4554455 64.0601852,52 58,52 C51.9398148,52 47,56.4554455 47,62 C47,67.4950495 51.9398148,72 58,72 C64.0601852,72 69,67.4950495 69,62 Z M95,62 C95,56.4554455 90.1111111,52 84,52 C77.9398148,52 73,56.4554455 73,62 C73,67.4950495 77.9398148,72 84,72 C90.1111111,72 95,67.4950495 95,62 Z M105,70.6188605 C93.0966356,77.0530452 82.8231926,75.9724951 77.241947,75.7269155 C73.1424481,75.5795678 71.6113099,77.2986248 71.4137437,80 C70.4259127,79.2632613 69.4380816,78.4774067 68.400859,77.4950884 C68.2032928,77.3477407 68.0551181,77.2003929 67.9069435,77.0530452 C67.0178955,76.1198428 65.5361489,75.6777996 63.2147459,75.7269155 C57.7322835,75.9233792 47.7057981,77.0039293 36,70.913556 L36,37.8585462 C36,31.8664047 37.5311382,30 43.0136006,30 L97.9370079,30 C103.172513,30 105,32.2102161 105,37.8585462 L105,70.6188605 Z M113.387633,71.4453671 C114.989022,69.0613479 113.237503,66.5283274 110.585202,68.3660089 L109.534291,69.1110149 L109.534291,34.6420698 C109.534291,29.8740313 105.931166,26 101.477303,26 L38.5727409,26 C34.1188777,26 30.5157525,29.8740313 30.5157525,34.6420698 L30.5157525,69.1110149 C30.1654486,68.8626796 29.7651014,68.6143442 29.4147975,68.3660089 C26.762497,66.5283274 25.0109778,69.0613479 26.6123668,71.4453671 C29.8151448,75.3690655 35.9204403,80.1867711 45.2285139,83.9614682 C35.3699629,117.288071 69.2993923,122.602447 68.7489148,105.516976 C68.7489148,105.814978 68.7989583,95.8318974 68.7989583,88.7295067 C69.6997396,88.928175 70.4503907,89.1268433 71.2010417,89.2758445 C71.2010417,96.3285681 71.2510852,105.814978 71.2510852,105.516976 C70.7006077,122.602447 104.630037,117.288071 94.7714861,83.9614682 C104.07956,80.1867711 110.184855,75.3690655 113.387633,71.4453671 Z" id="-copy" fill="#FFFFFF"></path>
        </g>
    </g>
</svg>