<?xml version="1.0" encoding="UTF-8" standalone="no"?>
<svg width="140px" height="140px" viewBox="0 0 140 140" version="1.1" xmlns="http://www.w3.org/2000/svg" xmlns:xlink="http://www.w3.org/1999/xlink">
    <!-- Generator: Sketch 48.2 (47327) - http://www.bohemiancoding.com/sketch -->
    <title>uxb_ultramarine</title>
    <desc>Created with Sketch.</desc>
    <defs></defs>
    <g id="artwork-icons" stroke="none" stroke-width="1" fill="none" fill-rule="evenodd">
        <g id="uxb_ultramarine">
            <g id="background-grey"></g>
            <path d="M92.4344136,44 C101.871839,50.9140891 108,62.0783843 108,74.6739884 C108,95.6608088 90.9868205,112.673988 70,112.673988 C49.0131795,112.673988 32,95.6608088 32,74.6739884 C32,62.0783843 38.1281613,50.9140891 47.5655864,44 L27,44 L27,26 L65,26 L65,37 L65,44.321127 C54.6745607,46.7971364 47,56.0893175 47,67.1739884 C47,80.15268 57.5213084,90.6739884 70.5,90.6739884 C83.4786916,90.6739884 94,80.15268 94,67.1739884 C94,55.7343337 85.8260166,46.2038151 75,44.104383 L75,37 L75,26 L113,26 L113,44 L92.4344136,44 Z" id="Combined-Shape" fill="#FFFFFF"></path>
        </g>
    </g>
</svg>