<?xml version="1.0" encoding="UTF-8" standalone="no"?>
<svg width="140px" height="140px" viewBox="0 0 140 140" version="1.1" xmlns="http://www.w3.org/2000/svg" xmlns:xlink="http://www.w3.org/1999/xlink">
    <!-- Generator: Sketch 48.2 (47327) - http://www.bohemiancoding.com/sketch -->
    <title>uxb_undercarriage</title>
    <desc>Created with Sketch.</desc>
    <defs></defs>
    <g id="artwork-icons" stroke="none" stroke-width="1" fill="none" fill-rule="evenodd">
        <g id="uxb_undercarriage">
            <g id="background-grey"></g>
            <rect id="Rectangle" fill="#FFFFFF" x="63" y="21" width="13" height="74"></rect>
            <rect id="Rectangle" fill="#FFFFFF" x="60" y="66" width="19" height="34"></rect>
            <path d="M43.5,110 C35.4918711,110 29,103.508129 29,95.5 C29,87.4918711 35.4918711,81 43.5,81 C51.5081289,81 58,87.4918711 58,95.5 C58,103.508129 51.5081289,110 43.5,110 Z M43.5,102 C47.0898509,102 50,99.0898509 50,95.5 C50,91.9101491 47.0898509,89 43.5,89 C39.9101491,89 37,91.9101491 37,95.5 C37,99.0898509 39.9101491,102 43.5,102 Z" id="Oval" fill="#FFFFFF" fill-rule="nonzero"></path>
            <path d="M95.5,110 C87.4918711,110 81,103.508129 81,95.5 C81,87.4918711 87.4918711,81 95.5,81 C103.508129,81 110,87.4918711 110,95.5 C110,103.508129 103.508129,110 95.5,110 Z M95.5,102 C99.0898509,102 102,99.0898509 102,95.5 C102,91.9101491 99.0898509,89 95.5,89 C91.9101491,89 89,91.9101491 89,95.5 C89,99.0898509 91.9101491,102 95.5,102 Z" id="Oval-Copy" fill="#FFFFFF" fill-rule="nonzero"></path>
            <path d="M43.5,120.5 C29.6928813,120.5 18.5,109.307119 18.5,95.5 C18.5,81.6928813 29.6928813,70.5 43.5,70.5 C57.3071187,70.5 68.5,81.6928813 68.5,95.5 C68.5,109.307119 57.3071187,120.5 43.5,120.5 Z M43.5,111.5 C52.336556,111.5 59.5,104.336556 59.5,95.5 C59.5,86.663444 52.336556,79.5 43.5,79.5 C34.663444,79.5 27.5,86.663444 27.5,95.5 C27.5,104.336556 34.663444,111.5 43.5,111.5 Z" id="Oval" fill="#FFFFFF" fill-rule="nonzero"></path>
            <path d="M95.5,120.5 C81.6928813,120.5 70.5,109.307119 70.5,95.5 C70.5,81.6928813 81.6928813,70.5 95.5,70.5 C109.307119,70.5 120.5,81.6928813 120.5,95.5 C120.5,109.307119 109.307119,120.5 95.5,120.5 Z M95.5,111.5 C104.336556,111.5 111.5,104.336556 111.5,95.5 C111.5,86.663444 104.336556,79.5 95.5,79.5 C86.663444,79.5 79.5,86.663444 79.5,95.5 C79.5,104.336556 86.663444,111.5 95.5,111.5 Z" id="Oval-Copy-2" fill="#FFFFFF" fill-rule="nonzero"></path>
            <rect id="Rectangle-Copy" fill="#FFFFFF" x="60" y="18" width="19" height="24"></rect>
        </g>
    </g>
</svg>